<svg xmlns="http://www.w3.org/2000/svg" xmlns:xlink="http://www.w3.org/1999/xlink" fill="none" version="1.1" width="114" height="27" viewBox="0 0 114 27"><defs><clipPath id="master_svg0_59_4071"><rect x="0" y="0" width="114" height="27" rx="0"/></clipPath></defs><g clip-path="url(#master_svg0_59_4071)"><g><g><path d="M53.73004663844109,9.81000076399684C53.53634663844109,10.02471076399684,53.25914663844109,10.14506076399684,52.97004663844109,10.14000076399684L42.35999663844109,10.14000076399684C42.07434163844108,10.14217076399684,41.80138863844108,10.02208076399684,41.610000638441086,9.81000076399684C41.395286638441085,9.61630076399684,41.27493711844109,9.33913076399684,41.279999226441085,9.05000076399684C41.277824848441085,8.764339763996839,41.39792263844109,8.491387763996839,41.610000638441086,8.299999763996839C41.80318163844109,8.091621763996839,42.07588963844108,7.97526596399684,42.35999663844109,7.979999999996839L52.94004663844109,7.979999999996839C53.529846638441086,7.9957356639968395,54.00424663844109,8.47017376399684,54.02004663844109,9.06000076399684C54.026646638441086,9.33858076399684,53.922346638441084,9.60838076399684,53.73004663844109,9.81000076399684Z" fill="#FFFFFF" fill-opacity="1" style="mix-blend-mode:passthrough"/></g><g><path d="M58.589951020765305,18.389996095341445C58.87755102076531,18.382396095341445,59.15445102076531,18.498996095341443,59.3499510207653,18.709996095341445C59.561051020765305,18.905496095341444,59.6776510207653,19.182396095341446,59.6699510207653,19.469996095341443C59.6747510207653,19.754096095341446,59.5583510207653,20.026796095341442,59.3499510207653,20.219996095341443C59.1562510207653,20.434696095341444,58.879151020765306,20.555096095341444,58.589951020765305,20.549996095341445L48.729951020765306,20.549996095341445L48.729951020765306,24.419996095341443C48.7321510207653,24.705696095341445,48.61205102076531,24.978596095341445,48.3999510207653,25.169996095341443C48.20625102076531,25.384696095341443,47.9291510207653,25.505096095341443,47.6399510207653,25.499996095341444C47.35435102076531,25.502196095341443,47.081351020765304,25.382096095341446,46.8899510207653,25.169996095341443C46.677951020765306,24.978596095341445,46.557851020765305,24.705696095341445,46.559951020765304,24.419996095341443L46.559951020765304,20.549996095341445L36.73000102076531,20.549996095341445C36.440869020765305,20.555096095341444,36.1637040207653,20.434696095341444,35.97000202076531,20.219996095341443C35.761624020765304,20.026796095341442,35.64526793076531,19.754096095341446,35.6500019727653,19.469996095341443C35.6423878407653,19.182396095341446,35.758984020765304,18.905496095341444,35.97000202076531,18.709996095341445C36.1655130207653,18.498996095341443,36.44243302076531,18.382396095341445,36.73000102076531,18.389996095341445L46.5699510207653,18.389996095341445L46.5699510207653,14.729996095341445C46.51835102076531,14.113396095341445,47.033451020765305,13.598296095341444,47.650051020765304,13.649996095341445L54.0600510207653,13.649996095341445C54.96525102076531,13.655696095341444,55.7081510207653,12.934996095341445,55.729951020765306,12.029996095341444L55.729951020765306,6.029996095341444C55.70285102076531,5.624866095341444,55.51575102076531,5.247136095341444,55.2099510207653,4.979996095341444C54.9145510207653,4.666676095341444,54.500651020765304,4.492416095341444,54.0699510207653,4.499996095341444L41.23000102076531,4.499996095341444C40.7993810207653,4.492416095341444,40.385501020765304,4.666676095341444,40.09000102076531,4.979996095341444C39.7729910207653,5.2737360953414445,39.594991020765306,5.687846095341444,39.600001020765305,6.119996095341444L39.600001020765305,12.119996095341444C39.6213010207653,13.009596095341443,40.3402810207653,13.724196095341444,41.23000102076531,13.739996095341445L44.55000102076531,13.739996095341445C45.170491020765304,13.681696095341444,45.69255102076531,14.198996095341444,45.640001020765304,14.819996095341445C45.6992510207653,15.444896095341443,45.17491102076531,15.969296095341445,44.55000102076531,15.909996095341445L41.23000102076531,15.909996095341445C39.1368410207653,15.909996095341445,37.439991020765305,14.213196095341445,37.44000102076531,12.119996095341444L37.44000102076531,6.119996095341444C37.4238910207653,5.111686095341444,37.8256610207653,4.141636095341444,38.55000102076531,3.439996095341444C39.24473102076531,2.700932095341444,40.2156810207653,2.284294585341444,41.23000102076531,2.289999943341444L54.0699510207653,2.289999943341444C55.071351020765306,2.279421095341444,56.0331510207653,2.6807560953414438,56.729951020765306,3.399996095341444C57.4616510207653,4.098196095341444,57.8708510207653,5.068696095341444,57.860051020765304,6.0799960953414445L57.860051020765304,12.079996095341444C57.85995102076531,14.173196095341444,56.163151020765305,15.869996095341444,54.0699510207653,15.869996095341444L48.729951020765306,15.869996095341444L48.729951020765306,18.439996095341446L58.589951020765305,18.389996095341445Z" fill="#FFFFFF" fill-opacity="1" style="mix-blend-mode:passthrough"/></g><g><path d="M69.29999542262077,4.239995353611707L66.29999542262077,4.239995353611707C65.85000542262077,4.239995353611707,65.61999542262078,4.509995353611708,65.61999542262078,5.049995353611708L65.61999542262078,24.470005353611707C65.67165542262077,25.08660535361171,65.15659542262077,25.601705353611706,64.53999542262078,25.55000535361171C63.94578942262077,25.544605353611708,63.465424032620774,25.064205353611708,63.459995712620774,24.470005353611707L63.459995712620774,5.049995353611708C63.437378422620775,4.284225353611708,63.71765542262077,3.540425353611708,64.24000242262078,2.9800003536117075C64.75269542262077,2.4200803536117075,65.48092542262077,2.106944353611708,66.24000542262077,2.1199998666117077L69.64000542262077,2.1199998666117077C70.21112542262077,2.104017253611708,70.75484542262078,2.3647023536117078,71.10000542262077,2.8200003536117078C71.46922542262078,3.2412153536117074,71.60423542262077,3.8187553536117074,71.46000542262077,4.3599953536117075L70.07999542262077,10.979995353611708C70.03647542262077,11.269405353611708,69.86837542262077,11.525215353611708,69.61999542262078,11.679995353611707C69.38254542262078,11.840605353611707,69.08758542262078,11.891595353611708,68.81000542262078,11.820005353611707C68.52794542262077,11.771065353611707,68.28037542262078,11.603595353611707,68.13000542262077,11.359995353611708C67.97350542262078,11.121015353611707,67.91612542262078,10.830535353611708,67.96999542262077,10.549995353611708L69.29999542262077,4.239995353611707Z" fill="#FFFFFF" fill-opacity="1" style="mix-blend-mode:passthrough"/></g><g><path d="M71.56999964747429,20.499997676838635C71.71456964747429,21.044547676838636,71.57128964747429,21.625207676838635,71.1899996474743,22.039997676838638C70.84481964747428,22.480837676838636,70.3095396474743,22.729927676838635,69.74999964747428,22.710027676838635L67.66999964747428,22.710027676838635C67.07580264747429,22.704527676838637,66.59543272747429,22.22420767683864,66.5900005994743,21.629997676838634C66.58239409747429,21.342437676838635,66.69898664747429,21.06551767683864,66.91000064747429,20.869997676838636C67.11040964747428,20.666077676838636,67.3840906474743,20.550847676838636,67.66999964747428,20.549997676838636L69.37999964747429,20.549997676838636L67.99999964747428,13.919997676838637C67.8531896474743,13.323580676838636,68.22792964747428,12.723697676838636,68.82830964747428,12.594038476838636C69.42869964747429,12.464378676838637,70.01759964747428,12.856149676838637,70.12999964747429,13.460001676838637L71.56999964747429,20.499997676838635Z" fill="#FFFFFF" fill-opacity="1" style="mix-blend-mode:passthrough"/></g><g><path d="M71.78000306192742,7.509996364277601C71.72268336192741,7.2252163642776015,71.79202696192742,6.929586364277601,71.97000546192741,6.6999963642776015L75.46000446192741,1.8600003642776013C75.61646446192741,1.6277863642776011,75.86313446192742,1.4718103642776013,76.14000446192742,1.4300000642776012C76.42052446192741,1.3716680642776011,76.71272446192741,1.4293852642776013,76.95000446192742,1.5900003642776013C77.27617446192741,1.8128583642776013,77.45302446192741,2.1973073642776013,77.41000446192741,2.589996364277601L84.31003446192742,2.589996364277601C84.92223446192742,2.593566364277601,85.47653446192741,2.9526963642776014,85.73003446192742,3.509996364277601C86.03593446192741,4.047826364277601,85.99273446192741,4.716086364277601,85.62003446192742,5.209996364277601L83.73003446192742,7.889996364277601C83.57963446192741,8.1335963642776,83.3320344619274,8.301066364277602,83.05003446192741,8.349996364277601C82.75563446192741,8.416656364277602,82.44703446192742,8.346836364277602,82.21003446192742,8.159996364277601C81.96873446192741,8.011856364277602,81.80153446192742,7.768386364277601,81.75000446192742,7.4899963642776015C81.68961446192742,7.202026364277601,81.75911446192741,6.9020663642776015,81.94003446192741,6.669996364277601L83.31003446192742,4.779996364277601L75.99999446192741,4.779996364277601L73.73000446192741,7.979996364277601C73.58576446192741,8.216636364277601,73.33634446192741,8.369266364277602,73.06000446192742,8.3899963642776C72.77946446192742,8.447176364277603,72.48772846192742,8.389546364277601,72.25000446192742,8.2299963642776C72.00536046192741,8.060546364277602,71.83668186192742,7.802146364277601,71.78000306192742,7.509996364277601Z" fill="#FFFFFF" fill-opacity="1" style="mix-blend-mode:passthrough"/></g><g><path d="M73.29999653956413,13.249996169270277C72.73798053956413,13.505916169270277,72.08062453956413,13.196296169270276,71.92000243956413,12.599996169270277C71.79670373956414,12.333576169270277,71.79670373956414,12.026426169270277,71.92000243956413,11.759996169270277C72.03908153956414,11.492536169270277,72.26348553956413,11.286226169270277,72.54000553956413,11.189996169270277L77.03000653956413,9.570001069270276C77.29642653956414,9.446701469270277,77.60357653956413,9.446701469270277,77.86999653956413,9.570001069270276C78.12423653956414,9.682986169270277,78.31991653956413,9.896778169270277,78.40999653956413,10.160001169270277C78.53329653956413,10.426427169270276,78.53329653956413,10.733576169270277,78.40999653956413,11.000006169270277C78.28804653956414,11.265396169270277,78.06468653956414,11.470736169270277,77.78999653956413,11.569996169270278L73.29999653956413,13.249996169270277Z" fill="#FFFFFF" fill-opacity="1" style="mix-blend-mode:passthrough"/></g><g><path d="M73.61999659571647,16.52000280623317C73.02579159571647,16.51457280623317,72.54542204571648,16.034202806233168,72.53999754771648,15.440002806233167C72.53239104571648,15.152432806233168,72.64898359571647,14.875512806233168,72.85999759571648,14.680002806233167C73.05550859571647,14.468982806233168,73.33243259571648,14.352382806233168,73.61999659571647,14.360002806233167L78.72999659571647,14.360002806233167L78.72999659571647,13.520002806233167C78.67833659571647,12.903397806233167,79.19340659571648,12.388336606233167,79.81000659571647,12.440000996233168C80.40372659571648,12.450489506233168,80.88403659571648,12.926396806233168,80.89999659571647,13.520002806233167L80.89999659571647,14.360002806233167L84.30004659571648,14.360002806233167C84.89424659571648,14.365422806233168,85.37454659571648,14.845792806233167,85.38004659571648,15.440002806233167C85.38764659571648,15.727572806233168,85.27104659571648,16.004492806233166,85.06004659571647,16.20000280623317C84.86444659571647,16.411012806233167,84.58754659571647,16.52761280623317,84.30004659571648,16.52000280623317L73.61999659571647,16.52000280623317Z" fill="#FFFFFF" fill-opacity="1" style="mix-blend-mode:passthrough"/></g><g><path d="M85.04004362940788,20.470001204060317C85.62984362940789,20.485731204060315,86.10424362940788,20.960171204060316,86.12004362940789,21.550001204060315C86.12504362940788,21.839131204060315,86.00474362940788,22.116301204060317,85.79004362940788,22.310001204060317C85.59684362940789,22.518381204060315,85.32414362940789,22.634731204060316,85.04004362940788,22.630001204060317L80.92999362940787,22.630001204060317L80.92999362940787,24.470001204060317C80.93505362940789,24.759131204060317,80.81471362940789,25.036291204060316,80.59999362940788,25.230001204060315C80.40447362940789,25.441011204060317,80.12756362940789,25.557611204060315,79.83999362940789,25.550001204060315C79.21175362940788,25.621921204060314,78.67530362940788,25.099981204060317,78.73000362940789,24.470001204060317L78.73000362940789,22.630001204060317L74.35000362940788,22.630001204060317C73.77944362940788,22.663071204060316,73.23856062940789,22.373311204060315,72.95000162940788,21.880001204060317C72.60441252940788,21.402491204060315,72.56170312940789,20.769611204060315,72.84000062940788,20.250001204060315L73.95000362940789,17.790001204060317C74.18688362940789,17.236626204060315,74.83647362940788,16.991326204060314,75.38000362940788,17.250000204060317C75.63897362940789,17.365811204060314,75.84319362940788,17.577193204060315,75.95000362940789,17.840000204060317C76.07330362940789,18.106426204060316,76.07330362940789,18.413571204060315,75.95000362940789,18.680001204060318L75.14000362940789,20.470001204060317L78.73000362940789,20.470001204060317L78.73000362940789,18.200001204060317C78.67834362940788,17.583397204060315,79.19340362940788,17.068336904060317,79.81000362940789,17.119999394060315C80.40373362940788,17.130487904060317,80.88403362940788,17.606394204060315,80.89999362940789,18.200001204060317L80.89999362940789,20.470001204060317L85.04004362940788,20.470001204060317Z" fill="#FFFFFF" fill-opacity="1" style="mix-blend-mode:passthrough"/></g><g><path d="M85.98003422999382,11.250005407093763C86.53753422999382,11.519305407093764,86.71883422999382,12.225415407093763,86.36003422999381,12.729995407093764C86.17833422999382,13.082405407093763,85.80573422999382,13.294225407093762,85.41000422999382,13.269995407093763C85.21838422999382,13.269505407093764,85.03094422999382,13.213965407093763,84.87000422999382,13.109995407093763L76.10999722999382,7.859995407093763C75.86333122999382,7.720995407093763,75.68042422999382,7.4914754070937635,75.59999512999381,7.219995407093763C75.52245752999382,6.940745407093763,75.56988188999382,6.641579407093763,75.73000022999382,6.4000004070937635C75.88084122999382,6.147250407093764,76.12512622999382,5.964041407093763,76.41000022999383,5.889999807093763C76.68616422999382,5.815493607093764,76.98101422999382,5.862815357093764,77.21999422999382,6.020000407093764L85.98003422999382,11.250005407093763Z" fill="#FFFFFF" fill-opacity="1" style="mix-blend-mode:passthrough"/></g><g><path d="M92.7299972280407,4.459996401661634C92.14056822804069,4.462396401661635,91.6769452280407,3.9570464016616347,91.72999998804069,3.369996401661634C91.6831936280407,2.7867734016616343,92.1449012280407,2.2881250216616342,92.7299972280407,2.2899999436616345L98.81999722804069,2.2899999436616345C99.10912722804069,2.2849366516616345,99.38629722804069,2.4052854016616343,99.5799972280407,2.6199994016616346C99.7883772280407,2.8131824016616345,99.9047272280407,3.0858904016616346,99.89999722804069,3.369996401661634C99.90143722804069,3.6563664016616344,99.78583722804069,3.9309064016616344,99.5799972280407,4.129996401661634C99.38629722804069,4.344716401661635,99.10912722804069,4.465066401661634,98.81999722804069,4.459996401661634L92.7299972280407,4.459996401661634Z" fill="#FFFFFF" fill-opacity="1" style="mix-blend-mode:passthrough"/></g><g><path d="M113.13004373927116,5.730003617619277C112.93634373927117,5.515283617619276,112.65914373927117,5.394933617619277,112.37004373927117,5.4000036176192765L102.58004373927116,5.4000036176192765L102.58004373927116,4.460003617619276L110.78004373927116,4.460003617619276C111.06734373927117,4.470483617619276,111.34364373927116,4.348903617619277,111.53004373927116,4.130003617619276C111.74474373927117,3.9362936176192758,111.86504373927116,3.6591336176192764,111.86004373927116,3.3700036176192762C111.86214373927116,3.084339617619276,111.74204373927117,2.811388617619276,111.53004373927116,2.619999617619276C111.34364373927116,2.4010916176192763,111.06734373927117,2.279515487619276,110.78004373927116,2.290000181619276L101.50004373927116,2.290000181619276C101.21084373927117,2.2849390276192763,100.93374373927116,2.405287617619276,100.74004373927116,2.619999617619276C100.53164373927116,2.813179617619276,100.41524373927116,3.085889617619276,100.42004373927116,3.3700036176192762L100.42004373927116,5.370003617619276L90.84000373927117,5.370003617619276C90.55434073927117,5.367823617619276,90.28139173927116,5.487923617619276,90.09000073927116,5.700003617619275C89.85874573927116,5.892583617619276,89.72652073927117,6.1790736176192755,89.72999973927116,6.480003617619276C89.75032473927116,7.0695336176192765,90.22068473927116,7.544253617619276,90.81000373927117,7.570003617619276L100.39004373927116,7.570003617619276L100.39004373927116,8.570003617619276L94.73000373927117,8.570003617619276C92.78595373927116,8.570003617619276,91.20999373927117,10.145963617619277,91.21000373927116,12.090003617619276L91.21000373927116,14.879973617619276C91.20445373927116,16.82797361761928,92.78204373927116,18.409973617619276,94.73000373927117,18.409973617619276L100.27004373927116,18.409973617619276L100.27004373927116,19.409973617619276L92.30000373927116,19.409973617619276C91.72455373927116,19.349573617619274,91.23961373927116,19.834573617619277,91.30000373927116,20.409973617619276C91.22233373927116,20.991473617619278,91.71857373927116,21.487673617619276,92.30000373927116,21.409973617619276L100.23004373927117,21.409973617619276L100.23004373927117,22.519973617619275L90.66000373927116,22.519973617619275C90.37363073927116,22.518573617619275,90.09909473927117,22.634173617619275,89.89999773927116,22.839973617619275C89.68528373927117,23.033673617619275,89.56493803927117,23.310873617619276,89.56999632727117,23.599973617619277C89.56493803927117,23.889173617619274,89.68528373927117,24.166273617619275,89.89999773927116,24.359973617619275C90.09370073927117,24.574673617619275,90.37086873927116,24.695073617619276,90.66000373927116,24.689973617619277L101.31004373927117,24.689973617619277C101.59914373927117,24.695073617619276,101.87634373927116,24.574673617619275,102.07004373927117,24.359973617619275C102.27394373927116,24.159573617619277,102.38914373927116,23.885873617619275,102.39004373927116,23.599973617619277L102.39004373927116,21.439973617619277L110.29004373927117,21.439973617619277C110.87454373927116,21.527073617619276,111.37704373927116,21.024573617619275,111.29004373927117,20.439973617619277C111.29694373927117,20.167273617619276,111.19224373927116,19.903573617619276,111.00004373927116,19.709973617619276C110.81294373927116,19.519173617619277,110.55724373927117,19.411073617619277,110.29004373927117,19.409973617619276L102.39004373927116,19.409973617619276L102.39004373927116,18.409973617619276L108.32004373927117,18.409973617619276C109.24964373927116,18.435373617619277,110.14794373927117,18.073073617619276,110.80004373927116,17.409973617619276C111.45604373927117,16.75327361761928,111.81704373927116,15.858073617619276,111.80004373927116,14.929973617619275L111.80004373927116,12.110003617619276C111.81744373927117,11.178853617619277,111.45664373927116,10.280413617619276,110.80004373927116,9.620003617619275C110.14524373927117,8.960933617619276,109.24874373927116,8.599443617619276,108.32004373927117,8.620003617619275L102.58004373927116,8.620003617619275L102.58004373927116,7.620003617619276L112.37004373927117,7.620003617619276C112.65914373927117,7.625063617619276,112.93634373927117,7.504713617619276,113.13004373927116,7.290003617619276C113.34474373927117,7.096293617619276,113.46504373927117,6.819133617619276,113.46004373927116,6.530003617619276C113.47704373927117,6.227083617619276,113.35564373927116,5.932793617619276,113.13004373927116,5.730003617619277ZM108.32004373927117,10.730003617619277C108.69524373927116,10.713803617619275,109.05944373927116,10.859473617619276,109.32004373927117,11.130003617619277C109.57794373927116,11.397433617619276,109.71524373927116,11.758753617619275,109.70004373927117,12.130003617619277L109.70004373927117,14.919973617619275C109.70134373927117,15.270973617619276,109.56484373927117,15.608573617619276,109.32004373927117,15.859973617619277C109.06044373927116,16.133073617619274,108.69654373927116,16.282273617619275,108.32004373927117,16.26997361761928L94.73000373927117,16.26997361761928C93.99146373927117,16.249373617619277,93.39610373927117,15.658373617619276,93.37000373927117,14.919973617619275L93.37000373927117,12.110003617619276C93.35638373927117,11.733193617619277,93.50579373927117,11.368793617619277,93.78000373927117,11.110003617619276C94.02732373927117,10.850443617619277,94.37151373927117,10.705523617619276,94.73000373927117,10.710003617619275L108.32004373927117,10.730003617619277Z" fill="#FFFFFF" fill-opacity="1" style="mix-blend-mode:passthrough"/></g><g><path d="M107.51001325831413,14.57000080153346L102.58000325831414,14.57000080153346L102.58000325831414,14.790000801533461C102.57915325831414,15.07591080153346,102.46391325831414,15.34960080153346,102.26000325831413,15.55000080153346C102.06448325831413,15.76101080153346,101.78756325831414,15.87761080153346,101.49999325831413,15.870000801533461C100.90579325831413,15.86457080153346,100.42542325831414,15.38420080153346,100.41999325831414,14.790000801533461L100.41999325831414,14.57000080153346L95.51999325831413,14.57000080153346C94.90339325831414,14.62166080153346,94.38833285831413,14.10660080153346,94.43999144831413,13.49000080153346C94.43493315831414,13.20087080153346,94.55527925831413,12.92370080153346,94.76999325831413,12.73000080153346C94.96317725831413,12.52162080153346,95.23588225831413,12.40527080153346,95.51999325831413,12.41000080153346L100.41999325831414,12.41000080153346L100.41999325831414,12.22000080153346C100.41238325831414,11.93243280153346,100.52898325831413,11.655513801533461,100.73999325831413,11.460000801533461C100.94039325831413,11.25607680153346,101.21407325831413,11.140841942533461,101.49999325831413,11.14000080153346C102.09420325831414,11.14542721153346,102.57457325831413,11.625796801533461,102.58000325831414,12.22000080153346L102.58000325831414,12.41000080153346L107.51001325831413,12.41000080153346C107.79411325831413,12.40526080153346,108.06681325831413,12.52162080153346,108.26001325831413,12.73000080153346C108.47471325831413,12.92370080153346,108.59501325831414,13.20087080153346,108.59001325831413,13.49000080153346C108.64161325831414,14.10660080153346,108.12661325831414,14.62166080153346,107.51001325831413,14.57000080153346Z" fill="#FFFFFF" fill-opacity="1" style="mix-blend-mode:passthrough"/></g><g><path d="M112.15999780177117,22.549999699236096C112.75420780177116,22.555429919236097,113.23460780177116,23.035797509236097,113.24000780177116,23.6300015092361C113.23910780177117,23.915911509236096,113.12390780177117,24.1895915092361,112.92000780177116,24.390001509236097C112.72629780177117,24.604711509236097,112.44912780177117,24.7250615092361,112.15999780177117,24.7200015092361L103.96000780177117,24.7200015092361C103.33899380177117,24.772591509236097,102.82169010177117,24.2504915092361,102.88000151177117,23.6300015092361C102.82834290177117,23.013397509236096,103.34340380177116,22.498337209236098,103.96000780177117,22.549999699236096L112.15999780177117,22.549999699236096Z" fill="#FFFFFF" fill-opacity="1" style="mix-blend-mode:passthrough"/></g><g><path d="M18.7299999892362,-0.019999999552965164L18.7299999892362,4.690000000447035C18.7244343484362,6.056440000447035,19.833559008436204,7.165570000447035,21.1999990084362,7.1600000004470346L25.729999008436202,7.1600000004470346L18.7299999892362,-0.019999999552965164Z" fill="#FFFFFF" fill-opacity="1" style="mix-blend-mode:passthrough"/></g><g><path d="M11.920000141859054,8.979999981373549L11.920000141859054,10.679999981373548L7.070000141859055,10.679999981373548L7.070000141859055,4.2899999813735485L7.170000041859055,4.2899999813735485C7.1912631418590545,4.6774669813735485,7.511950141859055,4.980582981373549,7.900000141859055,4.979999981373549C8.299220141859054,4.974567981373548,8.620000141859055,4.649332981373549,8.620000141859055,4.2499999813735485L8.730000141859055,4.2499999813735485L8.730000141859055,8.979999981373549L11.920000141859054,8.979999981373549Z" fill="#FFFFFF" fill-opacity="1" style="mix-blend-mode:passthrough"/></g><g><path d="M1.6699999511241912,1.6600000004470348L1.6699999511241912,11.300000000447035L4.019999951124191,11.300000000447035L4.019999951124191,11.410000000447035C3.6223499511241912,11.410000000447035,3.299999951124191,11.732400000447035,3.299999951124191,12.130000000447035C3.299999951124191,12.527600000447034,3.6223499511241912,12.850000000447034,4.019999951124191,12.850000000447034L4.019999951124191,12.980000000447035L0.019999951124191284,12.980000000447035L0.019999951124191284,-0.019999999552965164L11.919999951124192,-0.019999999552965164L11.919999951124192,1.6600000004470348L1.6699999511241912,1.6600000004470348Z" fill="#FFFFFF" fill-opacity="1" style="mix-blend-mode:passthrough"/></g><g><path d="M11.9,25.300000000447035L11.9,26.980000000447035L0,26.980000000447035L0,17.430000000447034L6.24,17.430000000447034L6.24,14.980000000447035L6.44,14.980000000447035C6.57516,15.197955000447035,6.81354,15.330386000447035,7.07,15.330000000447034C7.33805,15.345522000447035,7.59247,15.210603000447035,7.73,14.980000000447035L7.94,14.980000000447035L7.94,19.090000000447034L1.67,19.090000000447034L1.67,25.300000000447035L11.9,25.300000000447035Z" fill="#FFFFFF" fill-opacity="1" style="mix-blend-mode:passthrough"/></g><g><rect x="6.780000180006027" y="20.83000038191676" width="5.119999885559082" height="1.659999966621399" rx="0" fill="#FFFFFF" fill-opacity="1" style="mix-blend-mode:passthrough"/></g><g><path d="M6.009999874830246,23.069995248249768C5.235522874830246,23.075535248249768,4.603710144830246,22.45120524824977,4.600016087330246,21.67671524824977C4.596321554830246,20.90222424824977,5.2221498748302455,20.27189490824977,5.996639874830246,20.27003906294977C6.771159874830246,20.26820037824977,7.399999874830246,20.89552324824977,7.399999874830246,21.67000524824977C7.400019874830246,22.43931524824977,6.779289874830246,23.06450524824977,6.009999874830246,23.069995248249768ZM6.009999874830246,20.93999924824977C5.605579874830246,20.93446024824977,5.273736874830246,21.25879724824977,5.270030874830246,21.66324524824977C5.266323874830246,22.06768524824977,5.592163874830246,22.39805524824977,5.996619874830246,22.39992524824977C6.401119874830246,22.40175524824977,6.729999874830246,22.07442524824977,6.729999874830246,21.66999524824977C6.713909874830247,21.28411524824977,6.396219874830246,20.97966624824977,6.009999874830246,20.98000024824977L6.009999874830246,20.93999924824977Z" fill="#FFFFFF" fill-opacity="1" style="mix-blend-mode:passthrough"/></g><g><path d="M7.899999970197678,2.8900000862777233C7.126800970197678,2.889999847858723,6.499999970197678,3.5168010862777233,6.499999970197678,4.290000086277724C6.503900500197678,4.734820086277724,6.714584970197677,5.152490086277723,7.069999970197678,5.420000086277723C7.312951970197678,5.591950086277723,7.602379970197678,5.686110086277724,7.899999970197678,5.690000086277723C8.197939970197677,5.688030086277723,8.487929970197678,5.593700086277723,8.729999970197678,5.420000086277723C9.217929970197677,5.063130086277724,9.421699970197677,4.433390086277724,9.235319970197677,3.858336086277723C9.048939970197678,3.2832780862777233,8.514499970197678,2.892797216277723,7.909999970197678,2.8900000862777233L7.899999970197678,2.8900000862777233ZM7.899999970197678,4.980000086277723C7.496831970197678,4.980000086277723,7.170000970197678,4.653170086277723,7.1699999701976775,4.250000086277724C7.175431970197677,3.850780086277723,7.500669970197677,3.5300000862777234,7.899999970197678,3.5300000862777234C8.297649970197678,3.5300000862777234,8.619999970197679,3.8523550862777234,8.619999970197679,4.250000086277724C8.620039970197677,4.649290086277723,8.299259970197678,4.974530086277723,7.899999970197678,4.980000086277723Z" fill="#FFFFFF" fill-opacity="1" style="mix-blend-mode:passthrough"/></g><g><path d="M4.090000888624191,10.730000000446719C3.330159888624191,10.746382246772718,2.7243561486241914,11.370004046772719,2.7299999892241913,12.129999046772719C2.7244004886241915,12.905509046772718,3.3544938886241913,13.535599046772719,4.130000888624191,13.52999904677272C4.903200888624191,13.52999904677272,5.530000888624191,12.903199046772718,5.530000888624191,12.129999046772719C5.530000888624191,11.356800046772719,4.903200888624191,10.730000000446719,4.130000888624191,10.729999046772718L4.090000888624191,10.730000000446719ZM4.090000888624191,12.859999046772717L4.020000888624192,12.859999046772717C3.622354888624191,12.859999046772717,3.2999998886241912,12.537649046772719,3.2999998886241912,12.139999046772719C3.2999998886241912,11.742359046772718,3.622354888624191,11.420000046772719,4.020000888624192,11.420000046772719L4.090000888624191,11.420000046772719C4.493170888624191,11.420001046772718,4.820000888624191,11.746829046772719,4.820000888624191,12.149999046772718C4.820000888624191,12.553169046772718,4.493170888624191,12.879999046772719,4.090000888624191,12.879999046772719L4.090000888624191,12.859999046772717Z" fill="#FFFFFF" fill-opacity="1" style="mix-blend-mode:passthrough"/></g><g><path d="M7.070004651899338,13.20000026747426C6.2968016518993375,13.20000026747426,5.670000522899338,13.826801499104262,5.670000046899338,14.599995499104262C5.664204091899338,15.047115499104262,5.876975651899338,15.468925499104262,6.240000651899337,15.72999549910426C6.734704651899338,16.09023549910426,7.405294651899338,16.09023549910426,7.900004651899337,15.72999549910426C8.389404651899337,15.372045499104262,8.592754651899337,14.739725499104262,8.403754651899337,14.163592499104261C8.214744651899338,13.587460499104262,7.676344651899338,13.198482019104262,7.070004651899338,13.20000026747426ZM7.070004651899338,15.32999549910426C6.666831651899338,15.32999549910426,6.340000651899338,15.003165499104261,6.339999651899338,14.600005499104261C6.339606651899338,14.196555499104262,6.666553651899338,13.869288499104261,7.070004651899338,13.869288499104261C7.473444651899338,13.869288499104261,7.800394651899338,14.196555499104262,7.800004651899338,14.600005499104261C7.8157246518993375,14.730835499104261,7.791314651899338,14.863355499104262,7.730004651899337,14.97999549910426C7.594124651899338,15.212335499104261,7.338554651899338,15.347865499104262,7.070004651899338,15.32999549910426Z" fill="#FFFFFF" fill-opacity="1" style="mix-blend-mode:passthrough"/></g><g><path d="M21.18000124812126,8.760000000447034C18.934481248121262,8.754500000447035,17.115501248121262,6.935520000447035,17.11000124812126,4.690000000447035L17.11000124812126,-0.019999999552965164L11.910001248121262,-0.019999999552965164L11.910001248121262,26.980000000447035L23.290001248121264,26.980000000447035C24.65420124812126,26.963500000447034,25.746701248121262,25.844200000447035,25.730001248121262,24.480000000447035L25.730001248121262,8.760000000447034L21.18000124812126,8.760000000447034ZM21.970001248121264,24.840000000447034C21.85815124812126,24.957500000447034,21.702201248121263,25.022800000447035,21.540001248121264,25.020000000447034C21.45384124812126,25.023900000447036,21.36802124812126,25.006800000447036,21.290001248121264,24.970000000447033C21.22186124812126,24.934900000447033,21.160831248121262,24.887400000447034,21.11000124812126,24.830000000447036C21.050291248121262,24.742200000447035,21.000021248121264,24.648400000447033,20.960001248121262,24.550000000447035C20.91000124812126,24.440000000447036,20.86000124812126,24.330000000447036,20.82000124812126,24.220000000447033L20.52000124812126,23.450000000447034L18.02000124812126,23.450000000447034L17.730001248121262,24.240000000447036C17.654501248121264,24.455900000447034,17.55734124812126,24.663600000447033,17.440001248121263,24.860000000447034C17.33943124812126,24.973500000447036,17.191121248121263,25.032900000447036,17.04000124812126,25.020000000447034C16.882951248121262,25.021500000447034,16.73179124812126,24.960300000447035,16.620001248121262,24.850000000447036C16.505511248121262,24.752800000447035,16.43966124812126,24.610200000447033,16.440001248121263,24.460000000447035C16.42617124812126,24.373900000447033,16.42617124812126,24.286100000447036,16.440001248121263,24.200000000447034C16.440001248121263,24.110000000447034,16.52000124812126,23.990000000447036,16.580001248121263,23.830000000447036L18.150001248121264,19.830000000447036L18.32000124812126,19.420000000447036C18.370341248121264,19.279100000447034,18.437491248121262,19.144800000447034,18.52000124812126,19.020000000447034C18.58742124812126,18.909000000447033,18.684361248121263,18.819000000447033,18.800001248121262,18.760000000447036C19.072031248121263,18.630400000447036,19.38797124812126,18.630400000447036,19.66000124812126,18.760000000447036C19.772771248121263,18.818600000447034,19.869041248121263,18.904600000447036,19.940001248121263,19.010000000447036C20.00977124812126,19.117900000447033,20.07000124812126,19.231700000447034,20.120001248121262,19.350000000447036C20.17000124812126,19.460000000447035,20.230001248121262,19.620000000447035,20.31000124812126,19.820000000447035L21.92000124812126,23.820000000447035C22.01850124812126,24.028300000447036,22.08260124812126,24.251200000447035,22.11000124812126,24.480000000447035C22.109301248121263,24.613200000447033,22.05950124812126,24.741400000447033,21.970001248121264,24.840000000447034ZM24.13000124812126,24.320000000447035C24.14170124812126,24.507000000447036,24.08480124812126,24.691900000447035,23.970001248121264,24.840000000447034C23.86440124812126,24.960400000447034,23.710001248121262,25.026500000447037,23.550001248121262,25.020000000447034C23.392301248121264,25.029600000447036,23.239701248121264,24.962600000447036,23.140001248121262,24.840000000447034C23.02680124812126,24.691100000447033,22.97010124812126,24.506800000447036,22.980001248121262,24.320000000447035L22.980001248121262,21.050000000447035C22.97010124812126,20.863200000447033,23.02680124812126,20.678900000447033,23.140001248121262,20.530000000447036C23.246701248121262,20.418300000447037,23.395501248121263,20.356600000447035,23.550001248121262,20.360000000447034C23.707001248121262,20.358500000447034,23.85820124812126,20.419700000447033,23.970001248121264,20.530000000447036C24.07880124812126,20.665800000447035,24.13560124812126,20.836000000447036,24.13000124812126,21.010000000447036L24.13000124812126,24.320000000447035ZM23.960001248121262,19.680000000447034C23.850101248121263,19.778200000447036,23.70740124812126,19.831700000447036,23.56000124812126,19.830000000447036C23.409801248121262,19.830500000447035,23.26440124812126,19.777300000447035,23.150001248121264,19.680000000447034C22.919001248121262,19.459400000447033,22.919001248121262,19.090600000447036,23.150001248121264,18.870000000447035C23.25600124812126,18.764500000447036,23.400501248121262,18.706700000447036,23.550001248121262,18.710000000447035C23.69520124812126,18.710700000447034,23.836001248121264,18.760000000447036,23.95000124812126,18.850000000447036C24.06550124812126,18.958300000447036,24.127701248121262,19.111800000447033,24.120001248121262,19.270000000447034C24.128601248121264,19.423400000447035,24.07020124812126,19.573000000447035,23.960001248121262,19.680000000447034Z" fill="#FFFFFF" fill-opacity="1" style="mix-blend-mode:passthrough"/></g><g><path d="M18.350000828504562,22.509999771565198L20.18000082850456,22.509999771565198L19.260000828504563,19.9699997715652L18.350000828504562,22.509999771565198Z" fill="#FFFFFF" fill-opacity="1" style="mix-blend-mode:passthrough"/></g></g></g></svg>