<svg xmlns="http://www.w3.org/2000/svg" xmlns:xlink="http://www.w3.org/1999/xlink" fill="none" version="1.1" width="34" height="16" viewBox="0 0.2421875 34 16"><defs><linearGradient x1="0" y1="0.5" x2="0.9583517907435157" y2="0.6163842813256188" id="master_svg0_344_44126"><stop offset="0%" stop-color="#FF6868" stop-opacity="1"/><stop offset="100%" stop-color="#FF3628" stop-opacity="1"/></linearGradient></defs><g><g><path d="M0.662499,7.1821875C0.257161,7.8307275,0.257161,8.6536475,0.662499,9.3021875L4.4125,15.3021875C4.77798,15.8869875,5.41892,16.2421875,6.1085,16.2421875L32,16.2421875C33.1046,16.2421875,34,15.3467875,34,14.2421875L34,2.2421875C34,1.1376184999999999,33.1046,0.2421875,32,0.2421875L6.1085,0.2421875C5.41892,0.2421875,4.77798,0.5974265000000001,4.4125,1.1821895L0.662499,7.1821875Z" fill="url(#master_svg0_344_44126)" fill-opacity="1"/></g><g><path d="M13.589839999999999,8.12793L14.058589999999999,7.62012Q15.09863,8.39648,16.04102,9.12891Q16.88574,8.23047,17.330080000000002,7.1123L13.4043,7.1123Q13.39453,9.93457,12.02734,11.5166Q11.8125,11.2236,11.50977,10.9014Q12.66211,9.57324,12.66211,7.04395L12.66211,4.36816Q15.777339999999999,4.3291,18.267580000000002,3.94824L18.54102,4.70996Q16.02148,4.97363,13.4043,5.05176L13.4043,6.42871L18.13086,6.42871L18.13086,7.12207Q17.65723,8.50391,16.65137,9.60254Q17.66699,10.4082,18.54102,11.1748L17.955080000000002,11.8096Q17.017580000000002,10.96,16.08008,10.1641Q14.9375,11.1846,13.267579999999999,11.9268Q13.05273,11.624,12.7793,11.3018Q14.38086,10.6084,15.48438,9.66113Q14.53711,8.87012,13.589839999999999,8.12793ZM13.20898,12.2979L15.65039,12.3271L18.84375,12.2588Q18.736330000000002,12.5811,18.57031,13.0303L15.42578,13.0205L13.02344,12.9912Q11.35352,12.9717,10.68945,11.8584Q10.28906,12.2295,9.517578,13.167L9.117188,12.3564Q9.981445,11.5215,10.36719,11.1602L10.36719,7.87402L9.205078,7.87402L9.205078,7.15137L11.11914,7.15137L11.11914,11.3311Q11.70996,12.2783,13.20898,12.2979ZM10.33789,3.87012Q10.83594,4.47559,11.70508,5.71582L11.01172,6.2041Q10.2207,4.96387,9.712891,4.29004L10.33789,3.87012ZM19.7322,4.27051L28.2673,4.27051L28.2673,13.2158L27.447,13.2158L27.447,12.5908L20.552500000000002,12.5908L20.552500000000002,13.2158L19.7322,13.2158L19.7322,4.27051ZM27.447,4.99316L20.552500000000002,4.99316L20.552500000000002,11.8877L27.447,11.8877L27.447,4.99316ZM21.9197,6.4873L26.0701,6.4873L26.0701,10.7549L25.3084,10.7549L25.3084,10.208L22.6814,10.208L22.6814,10.7549L21.9197,10.7549L21.9197,6.4873ZM25.3084,7.1709L22.6814,7.1709L22.6814,9.52441L25.3084,9.52441L25.3084,7.1709Z" fill="#FFFFFF" fill-opacity="1"/></g></g></svg>