<svg xmlns="http://www.w3.org/2000/svg" xmlns:xlink="http://www.w3.org/1999/xlink" fill="none" version="1.1" width="16" height="16" viewBox="0 0 16 16"><defs><clipPath id="master_svg0_39_77473"><rect x="0" y="0" width="16" height="16" rx="0"/></clipPath></defs><g clip-path="url(#master_svg0_39_77473)"><g><path d="M3.2,10.3999996L5.6486000999999995,10.3999996L5.6486000999999995,12.799999L3.2,12.799999L3.2,10.3999996ZM6.8497992,10.3999996L9.2497997,10.3999996L9.2497997,12.799999L6.8497992,12.799999L6.8497992,10.3999996ZM10.4497995,10.3999996L12.799999,10.3999996L12.799999,12.799999L10.4491997,12.799999L10.4497995,10.3999996ZM3.2,6.8000002L5.6486000999999995,6.8000002L5.6486000999999995,9.1999998L3.2,9.1999998L3.2,6.8000002ZM6.8491998,6.8000002L9.2491994,6.8000002L9.2491994,9.1999998L6.8491998,9.1999998L6.8491998,6.8000002ZM10.4491997,6.8000002L12.799999,6.8000002L12.799999,9.1999998L10.4491997,9.1999998L10.4491997,6.8000002ZM3.2,3.2L5.6486000999999995,3.2L5.6486000999999995,5.5999994L3.2,5.5999994L3.2,3.2ZM6.8491998,3.2L9.2491994,3.2L9.2491994,5.5999994L6.8491998,5.5999994L6.8491998,3.2ZM10.4491997,3.2L12.799999,3.2L12.799999,5.5999994L10.4491997,5.5999994L10.4491997,3.2ZM10.4491997,2L2,2L2,14L14,14L14,2L10.4491997,2Z" fill="#7579DB" fill-opacity="1" style="mix-blend-mode:passthrough"/></g></g></svg>