<svg xmlns="http://www.w3.org/2000/svg" xmlns:xlink="http://www.w3.org/1999/xlink" fill="none" version="1.1" width="89" height="29" viewBox="0 9 89 29"><g><g><path d="M12.36,9.5600014L11.52,12.77L4.0499997,12.77L4.0499997,15.470001L10.77,15.470001L9.8699999,18.59L1.5899999,18.59L1.5899999,21.32L9,21.32C8.3400002,23.42,7.6799998,25.369999,7.0799999,26.959999L20.789999,26.959999C19.26,28.52,17.4,30.35,15.63,31.969999C13.41,31.190001,11.099999,30.470001,9.1199999,29.959999L7.5599999,32.060001C12.27,33.380001,18.449999,35.84,21.48,37.610001L23.16,35.18C21.959999,34.52,20.34,33.799999,18.57,33.080002C21.24,30.5,24.09,27.68,26.219999,25.43L24.029999,24.17L23.549999,24.32L11.01,24.32L11.969999,21.32L28.049999,21.32L28.049999,18.59L12.809999,18.59L13.74,15.470001L25.889999,15.470001L25.889999,12.77L14.52,12.77L15.299999,9.9500008L12.36,9.5600014ZM44.639999,9.9800014C41.549999,11.810001,36.360001,13.52,31.65,14.6C32.040001,15.23,32.490002,16.280001,32.610001,16.940001C34.380001,16.550001,36.239998,16.07,38.07,15.560001L38.07,21.68L31.41,21.68L31.41,24.41L38.010002,24.41C37.739998,28.459999,36.419998,32.48,31.110001,35.389999C31.77,35.900002,32.73,36.919998,33.150002,37.580002C39.18,34.189999,40.59,29.33,40.860001,24.41L49.41,24.41L49.41,37.52L52.32,37.52L52.32,24.41L58.650002,24.41L58.650002,21.68L52.32,21.68L52.32,10.190001L49.41,10.190001L49.41,21.68L40.919998,21.68L40.919998,14.690001C43.049999,14,45.029999,13.220001,46.709999,12.35L44.639999,9.9800014ZM73.470001,18.68L73.470001,29.27L66.900002,29.27C69.419998,26.360001,71.580002,22.67,73.110001,18.68L73.470001,18.68ZM76.470001,18.68L76.770004,18.68C78.270004,22.639999,80.400002,26.360001,82.949997,29.27L76.470001,29.27L76.470001,18.68ZM73.470001,9.6800003L73.470001,15.77L61.860001,15.77L61.860001,18.68L70.199997,18.68C68.160004,23.540001,64.739998,28.16,60.93,30.59C61.619999,31.130001,62.549999,32.18,63.029999,32.869999C64.349998,31.91,65.610001,30.74,66.779999,29.389999L66.779999,32.150002L73.470001,32.150002L73.470001,37.52L76.470001,37.52L76.470001,32.150002L83.160004,32.150002L83.160004,29.51C84.300003,30.77,85.5,31.880001,86.790001,32.779999C87.300003,32,88.32,30.889999,89.040001,30.290001C85.139999,27.950001,81.690002,23.450001,79.650002,18.68L88.199997,18.68L88.199997,15.77L76.470001,15.77L76.470001,9.6800003L73.470001,9.6800003Z" fill="#0C0E43" fill-opacity="1"/></g></g></svg>