<svg xmlns="http://www.w3.org/2000/svg" xmlns:xlink="http://www.w3.org/1999/xlink" fill="none" version="1.1" width="20" height="20" viewBox="0 0 20 20"><defs><linearGradient x1="0" y1="0" x2="0.8477041151929903" y2="1.154708382499408" id="master_svg0_55_17330"><stop offset="0%" stop-color="#FFDB25" stop-opacity="1"/><stop offset="100%" stop-color="#FFB625" stop-opacity="1"/></linearGradient></defs><g><g><path d="M15.000001,2L5.000000200000001,2C3.89543056,2,3,2.89543056,3,4L3,16C3,17.104568999999998,3.89543056,18,5.0000007,18L15,18C16.104568999999998,18,17,17.104568999999998,17,16L17.000000999999997,4.000000200000001C17.000000999999997,2.89543056,16.104570000000002,2,15.000001,2ZM8.7220478,10.4676304L9.7743278,10.1209507C9.9206963,10.0727139,10.07868,10.0727139,10.2250481,10.1209507L11.2773275,10.4676304C11.7435999,10.6212959,12.223546,10.2734909,12.2226877,9.7825503L12.2205276,8.6553907C12.2202129,8.5032444,12.2681036,8.3549099,12.3573275,8.231670900000001L13.019729,7.3165512C13.306307,6.9208593,13.123964,6.3607125,12.6593685,6.2095509L11.5962887,5.863951C11.4504738,5.816561200000001,11.323596,5.7238617000000005,11.234128,5.5993509L10.5846882,4.6943109C10.297434800000001,4.293953699999999,9.7019405,4.293953699999999,9.4146881,4.6943109L8.7652483,5.5993509C8.6757798,5.7238612,8.5489016,5.8165605,8.4030886,5.863951L7.3400083,6.2095509C6.875412,6.360713,6.6930685,6.9208598,6.9796481,7.3165512L7.6420479,8.231670900000001C7.7312717,8.3549089,7.7791624,8.503243900000001,7.7788482,8.6553907L7.7766876,9.7825503C7.7758303,10.2734909,8.2557755,10.6212959,8.7220478,10.4676304ZM14,11.5L6,11.5L6,13L14,13L14,11.5ZM13,14L7,14Q6.9995313,14.960001,7,15.5L13,15.5L13,14Z" fill-rule="evenodd" fill="url(#master_svg0_55_17330)" fill-opacity="1" style="mix-blend-mode:passthrough"/></g></g></svg>