<svg xmlns="http://www.w3.org/2000/svg" xmlns:xlink="http://www.w3.org/1999/xlink" fill="none" version="1.1" width="20" height="20" viewBox="0 0 20 20"><defs><clipPath id="master_svg0_39_77432/39_34892"><rect x="2" y="2" width="16" height="16" rx="0"/></clipPath></defs><g><g><g><rect x="0" y="0" width="20" height="20" rx="2" fill="#FF4622" fill-opacity="1"/></g><g clip-path="url(#master_svg0_39_77432/39_34892)"><g><path d="M16.265884,5.70336318125C15.8704,5.30786323525,15.229181,5.30786323525,14.833697,5.70336318125L8.388775299999999,12.14826968125L5.1663224,8.92581658125C4.7708224,8.53031638125,4.12960351,8.53031638125,3.73411918,8.92581658125C3.338634849,9.32131668125,3.338619113,9.96253538125,3.73411918,10.35800358125L7.6726661,14.29655078125C7.6840568,14.30795668125,7.6951504,14.31845668125,7.7060099,14.32825378125C8.103416,14.69164468125,8.7202754,14.68114468125,9.1048694,14.29655078125L16.265853999999997,7.13556628125C16.661369,6.74006608125,16.661369,6.09884739125,16.265884,5.70336318125L16.265884,5.70336318125Z" fill="#FFFFFF" fill-opacity="1" style="mix-blend-mode:passthrough"/></g></g></g></g></svg>