<svg xmlns="http://www.w3.org/2000/svg" xmlns:xlink="http://www.w3.org/1999/xlink" fill="none" version="1.1" width="16" height="16" viewBox="0 0 16 16"><defs><clipPath id="master_svg0_366_05837"><rect x="0" y="0" width="16" height="16" rx="0"/></clipPath><clipPath id="master_svg1_366_05843"><rect x="0" y="0" width="16" height="16" rx="0"/></clipPath></defs><g clip-path="url(#master_svg0_366_05837)"><rect x="0" y="0" width="16" height="16" rx="0" fill="#FFFFFF" fill-opacity="1"/><g clip-path="url(#master_svg1_366_05843)"><g><path d="M13.5909,4.18182L11,4.18182L11,3.22727C11,2.545455,10.45455,2,9.77273,2L6.22727,2C5.545450000000001,2,5,2.545455,5,3.22727L5,4.18182L2.409091,4.18182C2.190909,4.18182,2,4.37273,2,4.59091C2,4.809089999999999,2.190909,5,2.409091,5L13.5909,5C13.8091,5,14,4.809089999999999,14,4.59091C14,4.37273,13.8091,4.18182,13.5909,4.18182ZM5.81818,4.18182L5.81818,3.22727C5.81818,3.00909,6.00909,2.818182,6.22727,2.818182L9.77273,2.818182C9.99091,2.818182,10.18182,3.00909,10.18182,3.22727L10.18182,4.18182L5.81818,4.18182ZM12.2,5.81818C11.98182,5.81818,11.79091,6.00909,11.79091,6.22727L11.79091,12.4182C11.79091,12.8273,11.46364,13.1818,11.02727,13.1818L4.94545,13.1818C4.53636,13.1818,4.18182,12.8545,4.18182,12.4182L4.18182,6.22727C4.18182,6.00909,3.99091,5.81818,3.77273,5.81818C3.55455,5.81818,3.36364,6.00909,3.36364,6.22727L3.36364,12.4182C3.36364,13.2909,4.07273,14,4.94545,14L11.05454,14C11.92727,14,12.6364,13.2909,12.6364,12.4182L12.6364,6.22727C12.6091,6.00909,12.4182,5.81818,12.2,5.81818Z" fill="#999999" fill-opacity="1" style="mix-blend-mode:passthrough"/></g><g><path d="M6.95001220703125,11.625L6.95001220703125,6.375C6.95001220703125,6.175,6.77501220703125,6,6.57501220703125,6C6.37501220703125,6,6.20001220703125,6.175,6.20001220703125,6.375L6.20001220703125,11.625C6.20001220703125,11.825,6.37501220703125,12,6.57501220703125,12C6.77501220703125,12,6.95001220703125,11.825,6.95001220703125,11.625ZM9.80001220703125,11.625L9.80001220703125,6.375C9.80001220703125,6.175,9.62501220703125,6,9.42501220703125,6C9.22501220703125,6,9.05001220703125,6.175,9.05001220703125,6.375L9.05001220703125,11.625C9.05001220703125,11.825,9.22501220703125,12,9.42501220703125,12C9.62501220703125,12,9.80001220703125,11.825,9.80001220703125,11.625Z" fill="#999999" fill-opacity="1" style="mix-blend-mode:passthrough"/></g></g></g></svg>