<svg xmlns="http://www.w3.org/2000/svg" xmlns:xlink="http://www.w3.org/1999/xlink" fill="none" version="1.1" width="16" height="16" viewBox="0 0 16 16"><defs><clipPath id="master_svg0_39_77498"><rect x="0" y="0" width="16" height="16" rx="0"/></clipPath></defs><g clip-path="url(#master_svg0_39_77498)"><g><path d="M1.9575195625,10.57226560625L0.9628906245,10.58642580625L0.9462890625,9.30859370625L2.8012695625,9.28320310625L3.2788085625,10.433105506250001L5.2641601625,2.47900390625L14.9462890625,2.47900390625L14.9462890625,3.7563477062499997L6.2563476625,3.7563477062499997L3.5800781625,14.47900390625L1.9575195625,10.57226560625ZM6.8364257625,13.52880890625L9.0244140625,9.80664060625L6.9008788625,5.725097706250001L12.6835940625,5.725097706250001L13.4868160625,7.64111330625L12.3139650625,8.136230506250001L11.8383790625,7.00000000625L8.9999999625,7.00000000625L10.4790038625,9.84179690625L9.0639648625,12.25146480625L11.8535160625,12.25146480625L12.3222660625,11.22167970625L13.4785160625,11.75292970625L12.6694340625,13.52831990625L6.8364257625,13.52831990625L6.8364257625,13.52880890625Z" fill="#BDBDBD" fill-opacity="1" style="mix-blend-mode:passthrough"/></g></g></svg>