<svg xmlns="http://www.w3.org/2000/svg" xmlns:xlink="http://www.w3.org/1999/xlink" fill="none" version="1.1" width="16" height="16" viewBox="0 0 16 16"><defs><clipPath id="master_svg0_48_04748"><rect x="0" y="0" width="16" height="16" rx="8"/></clipPath></defs><g clip-path="url(#master_svg0_48_04748)"><g><path d="M13.4784375,12.7650875L11.3507975,10.6374375L11.3498775,10.6365575C11.7144375,10.2049275,12.0117375,9.7206775,12.2316375,9.2001975C12.5257375,8.5047775,12.6748375,7.7663475,12.6748375,7.0054075C12.6748375,6.2444575,12.5257375,5.5060275,12.2316375,4.8106075C11.9476375,4.1391575,11.5411375,3.5362375,11.0234875,3.0185975000000003C10.5058275,2.5009575,9.9029075,2.0944685,9.2314475,1.8104685C8.5360275,1.5163285,7.7975975,1.3671875,7.0366575,1.3671875C6.2757075,1.3671875,5.5372775,1.5163285,4.8418575,1.8104685C4.1704075,2.0944685,3.5674875,2.5009375,3.0498475000000003,3.0185975000000003C2.5321875,3.5362375,2.1257185,4.1391675,1.8417185,4.8106075C1.5475785,5.5060275,1.3984375,6.2444675,1.3984375,7.0054075C1.3984375,7.7663475,1.5475785,8.5047775,1.8417185,9.2001975C2.1257185,9.8716675,2.5321875,10.4745875,3.0498475000000003,10.9922275C3.5674875,11.5098875,4.1704175,11.9163875,4.8418575,12.2003875C5.5372775,12.4944875,6.2757175,12.6435875,7.0366575,12.6435875C7.7975975,12.6435875,8.5360275,12.4944875,9.2314475,12.2003875C9.7436375,11.9836875,10.2157775,11.6955875,10.6407775,11.3414675C10.6417675,11.3424675,10.6426875,11.3435275,10.6436875,11.3445175L12.7713375,13.4721875C12.8689375,13.5697875,12.9969375,13.6185875,13.1249375,13.6185875C13.2528375,13.6185875,13.3808375,13.5697875,13.4784375,13.4721875C13.6737375,13.2768875,13.6737375,12.9603875,13.4784375,12.7650875ZM7.0366575,11.6796875C5.7881075,11.6796875,4.6142975,11.1934675,3.7314375,10.3106275C2.8485775,9.4277675,2.3623754999999997,8.2539575,2.3623754999999997,7.0054075C2.3623754999999997,5.7568575,2.8485775,4.5830475,3.7314375,3.7001875C4.6142775,2.8173275,5.7880975,2.3311254999999997,7.0366575,2.3311254999999997C8.2852175,2.3311254999999997,9.4590175,2.8173275,10.3418775,3.7001875C11.2247175,4.5830275,11.7109375,5.7568475,11.7109375,7.0054075C11.7109375,8.2539675,11.2247175,9.4277675,10.3418775,10.3106275C9.4590175,11.1934675,8.2852075,11.6796875,7.0366575,11.6796875Z" fill="#FFFFFF" fill-opacity="1" style="mix-blend-mode:passthrough"/></g></g></svg>