<svg xmlns="http://www.w3.org/2000/svg" xmlns:xlink="http://www.w3.org/1999/xlink" fill="none" version="1.1" width="119" height="29" viewBox="1 9 119 29"><g><g><path d="M2.64,11.81C4.17,13.25,6.06,15.29,6.93,16.58L8.97,14.69C8.04,13.43,6.06,11.51,4.56,10.16L2.64,11.81ZM1.2,18.98L1.2,21.56L5.1,21.56L5.1,31.19C5.1,32.87,4.05,34.16,3.39,34.73C3.9,35.09,4.8,36.05,5.13,36.59C5.55,35.93,6.39,35.21,11.46,30.83C11.13,30.32,10.65,29.24,10.41,28.49L7.83,30.68L7.83,18.98L1.2,18.98ZM11.73,10.94L11.73,22.91L18.18,22.91L18.18,25.07L10.2,25.07L10.2,27.65L16.71,27.65C14.88,30.38,12.03,32.96,9.21,34.28C9.81,34.79,10.65,35.75,11.07,36.41C13.68,34.91,16.29,32.27,18.18,29.39L18.18,37.49L20.97,37.49L20.97,29.33C22.77,32.03,25.2,34.64,27.39,36.17C27.87,35.45,28.71,34.49,29.37,33.95C26.94,32.63,24.21,30.14,22.41,27.65L28.77,27.65L28.77,25.07L20.97,25.07L20.97,22.91L27.09,22.91L27.09,10.94L11.73,10.94ZM14.31,17.99L18.27,17.99L18.27,20.6L14.31,20.6L14.31,17.99ZM20.85,17.99L24.42,17.99L24.42,20.6L20.85,20.6L20.85,17.99ZM14.31,13.22L18.27,13.22L18.27,15.77L14.31,15.77L14.31,13.22ZM20.85,13.22L24.42,13.22L24.42,15.77L20.85,15.77L20.85,13.22ZM46.47,13.28L54.63,13.28L54.63,18.23L46.47,18.23L46.47,13.28ZM43.83,10.88L43.83,20.63L57.39,20.63L57.39,10.88L43.83,10.88ZM43.47,28.49L43.47,30.92L49.08,30.92L49.08,34.28L41.52,34.28L41.52,36.8L58.98,36.8L58.98,34.28L51.9,34.28L51.9,30.92L57.63,30.92L57.63,28.49L51.9,28.49L51.9,25.37L58.32,25.37L58.32,22.91L42.78,22.91L42.78,25.37L49.08,25.37L49.08,28.49L43.47,28.49ZM40.56,10.04C38.31,11.09,34.47,11.96,31.11,12.5C31.44,13.1,31.8,14.06,31.92,14.69C33.21,14.51,34.62,14.3,36,14.03L36,18.11L31.35,18.11L31.35,20.78L35.61,20.78C34.47,23.99,32.58,27.62,30.75,29.66C31.2,30.35,31.86,31.52,32.13,32.3C33.51,30.59,34.86,28.01,36,25.28L36,37.49L38.76,37.49L38.76,25.01C39.66,26.24,40.65,27.68,41.1,28.49L42.75,26.27C42.15,25.55,39.57,22.88,38.76,22.19L38.76,20.78L42.3,20.78L42.3,18.11L38.76,18.11L38.76,13.4C40.11,13.07,41.4,12.68,42.51,12.23L40.56,10.04ZM62.94,12.05C64.77,13.55,67.17,15.71,68.28,17.06L70.17,14.9C69,13.58,66.51,11.57,64.68,10.16L62.94,12.05ZM84.06,22.04C82.05,23.51,79.02,25.22,76.38,26.48L76.38,20.84L73.74,20.84C76.17,18.65,78.09,16.19,79.59,13.73C81.75,17.21,84.72,20.54,87.51,22.55C87.99,21.86,88.89,20.84,89.55,20.33C86.4,18.38,82.92,14.66,81.03,11.15L81.51,10.13L78.48,9.59C76.95,13.22,73.95,17.57,69.36,20.69C69.99,21.14,70.86,22.16,71.28,22.85C72.09,22.25,72.84,21.65,73.56,21.02L73.56,32.72C73.56,35.81,74.55,36.71,78.12,36.71C78.87,36.71,83.22,36.71,84,36.71C87.15,36.71,87.96,35.48,88.32,31.04C87.54,30.89,86.37,30.41,85.74,29.96C85.53,33.5,85.29,34.13,83.82,34.13C82.83,34.13,79.14,34.13,78.36,34.13C76.68,34.13,76.38,33.92,76.38,32.72L76.38,29.33C79.35,28.04,83.1,26.18,85.92,24.44L84.06,22.04ZM61.11,19.04L61.11,21.77L65.55,21.77L65.55,32.03C65.55,33.56,64.68,34.61,64.11,35.09C64.56,35.51,65.31,36.53,65.58,37.1C66.06,36.41,66.93,35.66,72.03,31.52C71.73,30.98,71.28,29.9,71.04,29.12L68.28,31.28L68.28,19.04L61.11,19.04ZM102.54,10.31C103.38,11.75,104.22,13.64,104.58,14.87L91.44,14.87L91.44,17.63L96.12,17.63C97.83,22.04,100.08,25.85,102.99,28.97C99.78,31.61,95.79,33.47,90.93,34.79C91.5,35.45,92.37,36.77,92.7,37.46C97.62,35.93,101.73,33.86,105.09,31.01C108.36,33.86,112.38,35.99,117.24,37.31C117.69,36.5,118.53,35.3,119.16,34.67C114.48,33.53,110.55,31.55,107.31,28.94C110.16,25.91,112.38,22.19,114,17.63L118.71,17.63L118.71,14.87L105.09,14.87L107.76,14.03C107.37,12.77,106.41,10.85,105.54,9.41L102.54,10.31ZM105.15,26.99C102.54,24.32,100.5,21.17,99.06,17.63L110.79,17.63C109.44,21.38,107.58,24.44,105.15,26.99Z" fill="#0C0E43" fill-opacity="1"/></g></g></svg>