<svg xmlns="http://www.w3.org/2000/svg" xmlns:xlink="http://www.w3.org/1999/xlink" fill="none" version="1.1" width="20" height="20" viewBox="0 0 20 20"><defs><linearGradient x1="1" y1="1.0275715589523315" x2="0" y2="-0.04238281399011612" id="master_svg0_55_16058"><stop offset="0%" stop-color="#1462FF" stop-opacity="1"/><stop offset="100%" stop-color="#2A98FF" stop-opacity="1"/></linearGradient></defs><g><g><rect x="0" y="0" width="20" height="20" rx="0" fill="#D8D8D8" fill-opacity="0"/></g><g><path d="M16.5,10.9375L15.5,10.9375L15.5,4.375C15.5,3.34375,14.6,2.5,13.5,2.5L6.5,2.5C5.4,2.5,4.5,3.34375,4.5,4.375L4.5,10.9375L3.5,10.9375C2.9,10.9375,2.5,11.3125,2.5,11.875L2.5,16.5625C2.5,17.125,2.9,17.5,3.5,17.5L16.5,17.5C17.1,17.5,17.5,17.125,17.5,16.5625L17.5,11.875C17.5,11.3125,17.1,10.9375,16.5,10.9375ZM7.5,4.375L12.5,4.375L12.5,5.3125L7.5,5.3125L7.5,4.375ZM7.5,7.1875L12.5,7.1875L12.5,8.125L7.5,8.125L7.5,7.1875ZM12.5,14.6875L7.5,14.6875L7.5,13.75L12.5,13.75L12.5,14.6875ZM5.5,10.9375L5.5,10L14.5,10L14.5,10.9375L5.5,10.9375Z" fill="url(#master_svg0_55_16058)" fill-opacity="1" style="mix-blend-mode:passthrough"/></g></g></svg>