<svg xmlns="http://www.w3.org/2000/svg" xmlns:xlink="http://www.w3.org/1999/xlink" fill="none" version="1.1" width="55.57460403442383" height="24" viewBox="0 0 55.57460403442383 24"><g><g><path d="M52.54085049266517,23.317164735126497L8.580630492665172,23.317164735126497C7.6015704926651715,23.317464735126496,6.682540492665171,22.846864735126495,6.112730492665172,22.053364735126497L0.5851844926651716,14.338064735126496C-0.1435845073348284,13.326464735126496,-0.17456350733482837,11.972864735126496,0.5071524926651716,10.929164735126495L6.138750492665172,2.2967847351264954C6.698180492665172,1.4392607351264952,7.655090492665171,0.9221922921264953,8.681420492665172,0.9228647351264954L52.54085049266517,0.9228647351264954C54.21635049266517,0.9228449574264954,55.574550492665175,2.2764347351264953,55.574550492665175,3.9461447351264956L55.574550492665175,20.297164735126497C55.57275049266517,21.965564735126495,54.21505049266517,23.317164735126497,52.54085049266517,23.317164735126497Z" fill="#231815" fill-opacity="1" style="mix-blend-mode:passthrough"/></g><g><path d="M9.01640150933838,14.322096189422608Q9.16597750933838,12.296856189422607,9.16597750933838,9.921646189422606L10.67793050933838,9.921646189422606Q10.67793050933838,12.381106189422606,10.570630509338379,14.335046189422608C10.501700509338379,15.620516189422608,10.34746050933838,16.900076189422606,10.108920509338379,18.16517618942261L8.483170509338379,18.16517618942261C8.743306509338378,16.896876189422606,8.921420509338379,15.613166189422607,9.01640150933838,14.322096189422608ZM19.50577050933838,17.18337618942261Q19.105770509338377,18.155476189422608,18.71887050933838,18.903976189422607L16.62492050933838,18.903976189422607C17.240230509338378,17.86207618942261,17.783400509338378,16.779376189422607,18.250670509338377,15.663616189422607L16.51112050933838,14.299406189422607C16.29393050933838,15.886016189422607,15.872070509338378,17.437976189422606,15.25605050933838,18.916976189422606L13.23033050933838,18.916976189422606C13.851720509338378,17.702676189422608,14.30457050933838,16.409776189422608,14.576460509338379,15.073866189422608C14.845340509338378,13.708826189422608,14.97714050933838,12.320486189422606,14.969890509338379,10.929426189422607L14.969890509338379,7.9839061894226075L14.215540509338378,7.9839061894226075L14.215540509338378,9.348116189422608L12.944220509338379,9.348116189422608L12.944220509338379,10.994236189422608L14.215540509338378,11.778396189422608L14.215540509338378,13.923536189422608L12.944220509338379,13.139366189422606L12.944220509338379,18.903976189422607L11.120130509338379,18.903976189422607L11.120130509338379,9.341626189422607L8.753030509338378,9.341626189422607L8.753030509338378,7.578856189422607L10.964050509338378,7.578856189422607L10.964050509338378,6.039676189422607L12.846660509338378,6.039676189422607L12.846660509338378,7.5756161894226075L14.07248050933838,7.5756161894226075L14.07248050933838,6.253533189422607L20.54617050933838,6.253533189422607L19.788570509338378,9.636496189422608L21.58667050933838,9.636496189422608Q21.34287050933838,11.551546189422607,21.01767050933838,13.016206189422608C20.82587050933838,13.861946189422607,20.58847050933838,14.727136189422607,20.30237050933838,15.608516189422607L21.843570509338377,16.83017618942261L21.843570509338377,19.033576189422607L19.50577050933838,17.18337618942261ZM19.01797050933838,14.030466189422608C19.28647050933838,13.148246189422608,19.50357050933838,12.251326189422606,19.668270509338377,11.344196189422608L17.67189050933838,11.344196189422608L18.406710509338378,7.9839061894226075L16.70944050933838,7.9839061894226075L16.70944050933838,10.922936189422607C16.70944050933838,11.217796189422607,16.70944050933838,11.639066189422607,16.68016050933838,12.189916189422608L19.01797050933838,14.030466189422608Z" fill="#FFFFFF" fill-opacity="1" style="mix-blend-mode:passthrough"/></g><g><path d="M35.97133046875,16.985518857574462L35.97133046875,18.761218857574463L28.98712046875,18.761218857574463C28.23922046875,18.771918857574462,27.49181046875,18.71771885757446,26.75334046875,18.599218857574463C26.19546046875,18.500718857574462,25.65528046875,18.320618857574463,25.15035046875,18.064518857574463L24.90649046875,18.903818857574464L22.92631946875,18.903818857574464C23.34966546875,17.782018857574464,23.68555146875,16.62931885757446,23.93104046875,15.456018857574463C24.15343046875,14.320028857574464,24.28499046875,13.168238857574462,24.32448046875,12.011498857574463L22.69873046875,12.011498857574463L22.69873046875,10.164478857574462L26.14856046875,10.164478857574462Q26.14856046875,11.969368857574462,26.02175046875,13.404858857574464C25.93655046875,14.371688857574464,25.79323046875,15.332568857574463,25.592550468749998,16.282318857574463C26.04394046875,16.533918857574463,26.53220046875,16.71321885757446,27.03947046875,16.813718857574464C27.682450468749998,16.934718857574463,28.33612046875,16.990118857574465,28.99037046875,16.979018857574463L35.97133046875,16.985518857574462ZM25.22188046875,6.114015857574463L26.19733046875,9.198868857574464L24.27244046875,9.198868857574464L23.29699546875,6.114015857574463L25.22188046875,6.114015857574463ZM27.44591046875,13.275248857574462L29.17245046875,13.275248857574462C29.08400046875,14.333538857574464,28.80882046875,15.367968857574462,28.35958046875,16.330918857574463L26.46395046875,16.330918857574463C27.01084046875,15.396338857574463,27.34390046875,14.352938857574463,27.43940046875,13.275248857574462L27.44591046875,13.275248857574462ZM26.69156046875,6.541728857574463L30.36575046875,6.541728857574463L30.36575046875,5.971418857574463L32.18984046875,5.971418857574463L32.18984046875,6.541728857574463L35.71123046875,6.541728857574463L35.71123046875,8.187848857574462L32.18009046875,8.187848857574462L32.18009046875,8.955818857574464L35.41533046875,8.955818857574464L35.41533046875,12.951218857574464L32.163840468749996,12.951218857574464L32.163840468749996,16.431418857574464L30.39502046875,16.431418857574464L30.39502046875,12.951218857574464L27.11425046875,12.951218857574464L27.11425046875,8.955818857574464L30.36575046875,8.955818857574464L30.36575046875,8.187848857574462L26.69156046875,8.187848857574462L26.69156046875,6.541728857574463ZM30.38200046875,11.444428857574463L30.38200046875,10.472318857574463L28.85705046875,10.472318857574463L28.85705046875,11.444428857574463L30.38200046875,11.444428857574463ZM33.675730468750004,11.444428857574463L33.675730468750004,10.472318857574463L32.15082046875,10.472318857574463L32.15082046875,11.444428857574463L33.675730468750004,11.444428857574463ZM35.090130468750004,13.275248857574462C35.19293046875,14.354208857574463,35.53263046875,15.397418857574463,36.08513046875,16.330918857574463L34.17653046875,16.330918857574463C33.72573046875,15.368488857574462,33.45043046875,14.333798857574463,33.36363046875,13.275248857574462L35.090130468750004,13.275248857574462Z" fill="#FFFFFF" fill-opacity="1" style="mix-blend-mode:passthrough"/></g><g><path d="M46.59396871582031,15.550022818908692L44.87067871582031,11.587032818908693L44.87067871582031,12.52027281890869C44.87571871582031,13.630712818908691,44.796368715820314,14.739922818908692,44.63331871582031,15.838412818908692C44.47483871582031,16.88451281890869,44.22013871582031,17.913912818908692,43.872458715820315,18.913512818908693L40.53643871582031,18.913512818908693L40.53643871582031,14.377002818908691L39.378908715820316,14.377002818908691C39.326278715820315,15.90315281890869,39.13583871582031,17.421412818908692,38.80989871582031,18.913512818908693L36.96955871582031,18.913512818908693C37.243566715820315,17.966812818908693,37.437179715820314,16.998912818908693,37.54833471582031,16.019912818908693C37.65417171582031,14.984212818908691,37.70410271582031,13.943632818908691,37.69791071582031,12.902632818908693L37.69791071582031,6.327901818908692L39.40819871582031,6.327901818908692L39.40819871582031,9.425702818908691L40.22107871582031,9.425702818908691L40.22107871582031,6.114025818908692L41.87609871582031,6.114025818908692L41.87609871582031,9.42568281890869L42.617448715820316,9.42568281890869L42.617448715820316,11.243542818908692L39.40821871582031,11.243542818908692L39.40821871582031,12.53969281890869L42.21751871582031,12.53969281890869L42.21751871582031,18.25251281890869C42.57060871582031,17.39051281890869,42.82475871582031,16.491512818908692,42.97512871582031,15.57268281890869C43.124228715820315,14.55452281890869,43.19487871582031,13.526482818908692,43.186478715820314,12.49756281890869L43.186478715820314,6.227450818908691Q46.93869871582031,6.227450818908691,50.08935871582031,5.903412818908691L50.08935871582031,7.659692818908692Q47.97915871582031,7.889772818908691,44.887008715820315,7.957802818908691L44.887008715820315,9.863152818908691L50.27475871582031,9.863152818908691C49.91635871582031,11.675802818908691,49.37165871582032,13.446832818908693,48.648958715820314,15.148212818908691L50.38855871582031,18.90061281890869L48.535158715820316,18.90061281890869L47.70925871582031,17.12481281890869C47.38415871582031,17.772912818908694,47.010258715820314,18.349712818908692,46.63956871582031,18.90061281890869L44.500078715820315,18.90061281890869C45.28337871582031,17.839012818908692,45.983418715820314,16.71881281890869,46.59396871582031,15.550022818908692ZM47.52065871582031,13.560412818908691Q47.96605871582031,12.452212818908691,48.21975871582031,11.570822818908692L46.69475871582031,11.570822818908692L47.52065871582031,13.560412818908691Z" fill="#FFFFFF" fill-opacity="1" style="mix-blend-mode:passthrough"/></g></g></svg>