<svg xmlns="http://www.w3.org/2000/svg" xmlns:xlink="http://www.w3.org/1999/xlink" fill="none" version="1.1" width="94" height="58" viewBox="0 0 94 58"><defs><clipPath id="master_svg0_55_20274"><rect x="0" y="0" width="94" height="58" rx="0"/></clipPath><linearGradient x1="0.0000075315147114451975" y1="0.5001527070999146" x2="1" y2="0.5001527070999146" id="master_svg1_36_06397"><stop offset="0%" stop-color="#7370D5" stop-opacity="1"/><stop offset="100%" stop-color="#7C96EE" stop-opacity="1"/></linearGradient><linearGradient x1="1.4210854715202004e-14" y1="0.4998490810394287" x2="1" y2="0.4998490810394287" id="master_svg2_55_20277"><stop offset="0%" stop-color="#7370D5" stop-opacity="1"/><stop offset="100%" stop-color="#7C96EE" stop-opacity="1"/></linearGradient></defs><g clip-path="url(#master_svg0_55_20274)"><g><path d="M42.966246874999996,7.999387839355469C46.492446875,8.00046783935547,49.483146875,10.571397839355468,49.988246875,14.03579783935547L58.087646875000004,14.03579783935547C57.538546875,5.894207839355468,50.551946875,-0.32874716064453124,42.339346875000004,0.00869923935546875C34.126676875,0.34615283935546876,27.682000875,7.120997839355469,27.812484205,15.279797839355469C27.942967875,23.43849783935547,34.601036875,30.006797839355468,42.820346875,30.08529783935547L49.980946875,30.08529783935547L49.980946875,22.08829783935547L42.941946875,22.08829783935547C39.073946875000004,22.01099783935547,35.980876875,18.872597839355468,35.987496875,15.03199783935547C35.994126875,11.191397839355469,39.098046875,8.063557839355468,42.966246874999996,7.999387839355469Z" fill="url(#master_svg1_36_06397)" fill-opacity="1" style="mix-blend-mode:passthrough"/></g><g><path d="M58.072265625,22.0908203125L66.191185625,22.0908203125L66.191185625,24.9882803125C66.185835625,27.8047503125,63.886505625,30.0862503125,61.049365625,30.0902403125L58.072265625,30.0902403125L58.072265625,22.0908203125Z" fill="url(#master_svg2_55_20277)" fill-opacity="1" style="mix-blend-mode:passthrough"/></g><g><g><path d="M10.899,40.44072009C11.6822,40.44072009,12.1395,40.81739,12.2659,41.56832L14.6715,56.1353L12.0349,56.1353L11.3392,51.596000000000004L4.54348,51.596000000000004L2.71442,56.1353L0,56.1353L6.05879,41.406542C6.27585,40.792521,6.87869,40.3975104,7.53275,40.44072009L10.899,40.44072009ZM8.14081,42.73937L5.46531,49.2973L10.9768,49.2973L9.96745,42.73937L8.14081,42.73937Z" fill="#272E38" fill-opacity="1" style="mix-blend-mode:passthrough"/></g><g><path d="M16.373554375,40.44091796875L18.856894375,40.44091796875L16.911084375,56.13551796875L14.427734375,56.13551796875L16.373554375,40.44091796875Z" fill="#272E38" fill-opacity="1" style="mix-blend-mode:passthrough"/></g><g><path d="M29.768071875,39.1078293075L29.096771875,43.4709259375L36.607671875,43.4709259375L36.332771875,45.5112259375L29.201371875,45.5112259375C29.864771875000002,47.6110459375,30.849171875,49.5971859375,32.120071875,51.4002859375Q33.657271875,53.5733859375,36.476271874999995,56.0579859375L34.182671875,56.9779859375C32.884371875,55.7969859375,31.726371874999998,54.4723859375,30.731271874999997,53.0301859375C29.554771875,51.4110859375,28.606371875,49.6401859375,27.912281874999998,47.7664259375C26.237951875,51.4901859375,23.540421875,54.6701859375,20.129011875,56.9416859375L18.076171875,55.9613859375C20.130021875,54.6195859375,21.960081875,52.9673859375,23.500131875,51.0646859375Q25.706201874999998,48.2879659375,26.445611875,45.5112259375L19.482021875,45.5112259375L19.691191875,43.4636859375L26.832351875,43.4636859375L27.547441875,39.1005859375L29.768071875,39.1078293075Z" fill="#272E38" fill-opacity="1" style="mix-blend-mode:passthrough"/></g><g><path d="M38.993915,40.9866075L40.939735,40.9866075L39.723605,51.3063875L37.765625,51.3063875L38.993915,40.9866075ZM43.496055,47.3779275C43.255815,49.1971875,42.832925,50.9879875,42.233705,52.7237875C41.717135,54.2385875,40.987535,55.6732875,40.066555,56.985487500000005L38.152355,56.420387500000004Q40.908115,52.5571875,41.581855,47.3368875L42.518275,38.9921875L44.464095,38.9921875L43.496055,47.3779275ZM55.993025,39.8372745L55.803325,41.7375275L51.595525,41.7375275L51.301225,44.0772275L53.490225,44.0772275C53.987825,44.0409275,54.479625,44.202487500000004,54.857225,44.5263275Q55.321725,44.9754275,55.236625000000004,45.8519175L54.395025000000004,52.6826875C54.353825,53.097387499999996,54.162925,53.4832875,53.857524999999995,53.7691875C53.549525,54.0266875,53.155525,54.1601875,52.753225,54.1434875C52.393924999999996,54.138887499999996,52.035425000000004,54.1081875,51.680625,54.0516875C51.334525,54.0058875,50.995425,53.9174875,50.671225,53.7884875L50.817125000000004,51.9510875C51.239125,52.0974875,51.676525,52.1954875,52.120824999999996,52.2431875L52.206025,52.2431875C52.278125,52.2481875,52.349425,52.225787499999996,52.405425,52.1804875C52.470025,52.1121875,52.516825,52.0292875,52.541624999999996,51.938987499999996L53.290825,45.9943975L51.060425,45.9943975L49.712925,56.8743875L47.694175,56.8743875L49.041624999999996,45.9943975L47.020415,45.9943975L46.011015,54.0565875L44.033575,54.0565875L45.074595,45.7698475C45.107105,45.3040875,45.308425,44.865787499999996,45.641325,44.5360075C45.991704999999996,44.2209375,46.453295,44.0560575,46.925565,44.0772375L49.282425,44.0772375L49.576724999999996,41.7375375L45.128105,41.7375375L45.337275,39.8372815L55.993025,39.8372745Z" fill="#272E38" fill-opacity="1" style="mix-blend-mode:passthrough"/></g><g><path d="M68.7974875,50.92747109375L68.6077875,52.61767109375L56.8671875,52.61767109375L57.0982565,50.92747109375L68.7974875,50.92747109375ZM72.6671875,39.75537109375C73.3263875,39.75537109375,73.8006875,39.86161209375,74.0876875,40.07892009375C74.3960875,40.33997609375,74.55748750000001,40.73343209375,74.5205875,41.13408109375C74.5153875,41.29575109375,74.5007875,41.45699109375,74.4768875,41.61699109375L74.2044875,44.20780109375L72.1418875,44.20780109375L72.4166875,41.59767109375L60.1069775,41.59767109375L59.7932175,44.29230109375L57.6892965,44.29230109375L58.0030575,41.47211109375C58.0881775,40.85881109375,58.2778975,40.42177609375,58.5722075,40.15617309375C58.8665175,39.89057109375,59.3286475,39.76018281375,59.9610475,39.76018281375L72.6671875,39.75537109375ZM71.5532875,45.60342109375L62.7386975,45.60342109375L62.2522375,47.37811109375L70.81388749999999,47.37811109375Q71.7867875,47.37811109375,72.2123875,47.69200109375C72.4993875,47.89965109375,72.6453875,48.26908109375,72.6453875,48.797871093750004C72.64738750000001,48.93021109375,72.64008749999999,49.06254109375,72.6234875,49.19386109375Q72.4944875,50.65707109375,72.2658875,52.349671093750004Q72.0980875,53.61977109375,71.8231875,55.005671093749996C71.6967875,55.674571093750004,71.4486875,56.14297109375,71.0764875,56.415771093749996C70.7043875,56.68867109375,70.1692875,56.794871093750004,69.4687875,56.73937109375C67.8966875,56.58887109375,66.3360175,56.33797109375,64.7963975,55.98847109375L65.0274675,54.05677109375Q67.5132875,54.60007109375,69.2352875,54.81017109375C69.2976875,54.82327109375,69.3612875,54.82977109375,69.4249875,54.82947109375C69.5225875,54.84057109375,69.6197875,54.805771093749996,69.6876875,54.73527109375C69.7544875,54.62427109375,69.7943875,54.49957109375,69.8044875,54.37067109375Q70.14008749999999,52.38597109375,70.4976875,49.14800109375L61.5809275,49.14800109375C61.1641775,49.17902109375,60.7473575,49.08839109375,60.3818275,48.88722109375C60.1205175,48.69629109375,59.9770475,48.38496109375,60.0023875,48.06387109375C60.0003975,47.823321093749996,60.0356675,47.58390109375,60.1069775,47.35399109375L61.4958075,42.37275109375L63.621607499999996,42.37275109375L63.2008275,43.91807109375L71.7623875,43.91807109375L71.5532875,45.60342109375Z" fill="#7A92EC" fill-opacity="1" style="mix-blend-mode:passthrough"/></g><g><path d="M83.1865075,39.08659385625L81.1044875,42.44766015625L79.3702775,57.00496015625L77.2858175,57.00496015625L78.5919475,46.31334015625L77.3490575,48.08803015625L74.9921875,48.08803015625C77.1571075,45.22217015625,79.1252075,42.21490015625,80.8831375,39.08657175625L83.1865075,39.08659385625ZM93.7911875,43.38933015625L88.2772875,43.38933015625L87.9196875,46.26989015625L93.0760875,46.26989015625L92.8328875,48.15082015625L87.7251875,48.15082015625L87.3894875,50.88656015625L92.6699875,50.88656015625L92.3804875,52.75536015625L87.1535875,52.75536015625L86.6670875,57.00496015625L84.5437275,57.00496015625L86.1805875,43.38933015625L85.6114875,43.38933015625Q85.1249875,44.36964015625,84.5266775,45.44654015625Q83.9283375,46.52343015625,83.7386275,46.87595015625L83.4662175,47.35886015625L81.1458275,47.35886015625Q82.5151975,45.12540015625,83.5245975,43.254120156249996Q84.5753375,41.32247015625,85.5846875,39.01416015625L87.7323875,39.01416015625L87.1535875,40.23592015625L86.5867875,41.42629015625L93.9906875,41.42629015625L93.7911875,43.38933015625Z" fill="#7A92EC" fill-opacity="1" style="mix-blend-mode:passthrough"/></g></g></g></svg>