<svg xmlns="http://www.w3.org/2000/svg" xmlns:xlink="http://www.w3.org/1999/xlink" fill="none" version="1.1" width="116" height="29" viewBox="0 9 116 29"><g><g><path d="M14.52,16.73C11.94,20.24,6.75,23.27,1.05,25.13C1.62,25.64,2.46,26.78,2.82,27.41C4.98,26.63,7.05,25.73,8.94,24.68L8.94,25.82L21.21,25.82L21.21,24.32C23.22,25.37,25.32,26.33,27.33,27.02C27.78,26.27,28.68,25.1,29.31,24.53C24.72,23.24,19.38,20.72,16.47,18.62L17.1,17.81L14.52,16.73ZM10.98,23.45C12.42,22.49,13.74,21.47,14.91,20.33C16.17,21.32,17.82,22.4,19.65,23.45L10.98,23.45ZM6.21,27.89L6.21,37.55L8.94,37.55L8.94,36.44L21.09,36.44L21.09,37.43L23.91,37.43L23.91,27.89L6.21,27.89ZM8.94,33.98L8.94,30.35L21.09,30.35L21.09,33.98L8.94,33.98ZM5.76,9.5C4.71,12.32,2.94,15.2,0.93,16.97C1.62,17.36,2.79,18.11,3.33,18.56C4.32,17.51,5.34,16.16,6.24,14.66L7.35,14.66C8.07,15.92,8.79,17.42,9.12,18.41L11.64,17.57C11.37,16.79,10.83,15.68,10.23,14.66L14.67,14.66L14.67,12.26L7.56,12.26C7.89,11.6,8.19,10.91,8.46,10.22L5.76,9.5ZM17.76,9.5C17.07,11.9,15.78,14.27,14.22,15.77C14.85,16.13,16.02,16.91,16.53,17.33C17.19,16.61,17.85,15.71,18.45,14.72L20.1,14.72C21,15.92,21.9,17.39,22.26,18.41L24.9,17.45C24.57,16.67,23.94,15.68,23.25,14.72L28.35,14.72L28.35,12.32L19.65,12.32C19.95,11.6,20.25,10.88,20.46,10.13L17.76,9.5ZM42,11.72C43.2,13.43,44.61,15.71,45.18,17.15L47.4,15.65C46.74,14.27,45.3,12.05,44.07,10.43L42,11.72ZM49.56,16.67C50.13,18.23,50.49,20.3,50.55,21.65L52.68,21.14C52.59,19.82,52.17,17.78,51.57,16.22L49.56,16.67ZM41.37,19.1L41.37,21.83L43.89,21.83L43.89,31.49C43.89,32.87,43.02,33.95,42.45,34.37C42.9,34.88,43.68,35.96,43.95,36.59C44.34,36.02,45.09,35.39,49.32,31.91C48.99,31.4,48.54,30.35,48.33,29.6L46.38,31.16L46.38,19.1L41.37,19.1ZM33.87,10.67C34.32,11.54,34.77,12.59,35.16,13.55L31.53,13.55L31.53,15.92L41.04,15.92L41.04,13.55L37.92,13.55C37.5,12.44,36.84,11.03,36.21,9.92L33.87,10.67ZM31.59,27.11L31.59,29.48L34.8,29.48C34.59,31.64,33.87,34.1,31.44,35.69C32.01,36.14,32.82,37.01,33.18,37.55C36.15,35.45,37.14,32.3,37.41,29.48L40.98,29.48L40.98,27.11L37.5,27.11L37.5,23.96L41.22,23.96L41.22,21.59L38.91,21.59C39.39,20.18,39.9,18.32,40.38,16.67L38.07,16.16C37.86,17.75,37.29,20.03,36.81,21.59L33.48,21.59L35.52,21.14C35.46,19.82,35.04,17.78,34.47,16.22L32.46,16.64C33,18.2,33.33,20.27,33.33,21.59L31.23,21.59L31.23,23.96L34.89,23.96L34.89,27.11L31.59,27.11ZM51.3,10.46C51.78,11.39,52.29,12.5,52.68,13.52L48.69,13.52L48.69,15.89L58.38,15.89L58.38,13.52L55.41,13.52C54.99,12.35,54.27,10.88,53.61,9.71L51.3,10.46ZM48.75,27.83L48.75,30.23L52.32,30.23L52.32,37.52L54.96,37.52L54.96,30.23L58.44,30.23L58.44,27.83L54.96,27.83L54.96,24.02L58.83,24.02L58.83,21.68L56.31,21.68C56.85,20.18,57.39,18.23,57.9,16.55L55.56,16.04C55.29,17.69,54.72,20.03,54.21,21.68L48.33,21.68L48.33,24.02L52.32,24.02L52.32,27.83L48.75,27.83ZM62.91,35L66.39,35L66.39,26.63L69.72,26.63C74.52,26.63,78.06,24.41,78.06,19.61C78.06,14.6,74.52,12.89,69.6,12.89L62.91,12.89L62.91,35ZM66.39,23.81L66.39,15.71L69.27,15.71C72.78,15.71,74.61,16.67,74.61,19.61C74.61,22.46,72.9,23.81,69.42,23.81L66.39,23.81ZM82.35,35L85.83,35L85.83,26.63L89.16,26.63C93.96,26.63,97.5,24.41,97.5,19.61C97.5,14.6,93.96,12.89,89.04,12.89L82.35,12.89L82.35,35ZM85.83,23.81L85.83,15.71L88.71,15.71C92.22,15.71,94.05,16.67,94.05,19.61C94.05,22.46,92.34,23.81,88.86,23.81L85.83,23.81ZM105.54,35L109.08,35L109.08,15.83L115.56,15.83L115.56,12.89L99.09,12.89L99.09,15.83L105.54,15.83L105.54,35Z" fill="#0C0E43" fill-opacity="1"/></g></g></svg>