<svg xmlns="http://www.w3.org/2000/svg" xmlns:xlink="http://www.w3.org/1999/xlink" fill="none" version="1.1" width="20" height="20" viewBox="0 0 20 20"><defs><linearGradient x1="0" y1="0" x2="0.9063798513158267" y2="1.0786669304915621" id="master_svg0_55_17020"><stop offset="0%" stop-color="#FF5CBE" stop-opacity="1"/><stop offset="100%" stop-color="#FF4E4E" stop-opacity="1"/></linearGradient></defs><g><g><rect x="0" y="0" width="20" height="20" rx="0" fill="#D8D8D8" fill-opacity="0"/></g><g><path d="M12.8127,3.82048L15.5625,3.82048C15.9422,3.82048,16.25,4.12789,16.25,4.507099999999999L16.25,15.493C16.25,15.8722,15.9422,16.1796,15.5625,16.1796L12.8127,16.1796L12.8127,3.82048ZM3.09122,3.73603L11.73266,2.50354924C11.93979,2.4738442,12.12521,2.634381,12.12521,2.843426L12.12521,17.1567C12.12517,17.3654,11.94025,17.5258,11.73335,17.4966L3.0905329999999998,16.2641C2.751722,16.215899999999998,2.5,15.9261,2.5,15.5843L2.5,4.41578C2.50000327809,4.07398,2.751726,3.78422,3.09122,3.73603L3.09122,3.73603ZM4.563079999999999,7.25358L4.563079999999999,12.7465L5.93802,12.7465L5.93802,11.37329L10.062809999999999,11.37329L10.062809999999999,7.25358L4.563079999999999,7.25358ZM5.93802,8.626809999999999L8.68788,8.626809999999999L8.68788,10.00005L5.93802,10.00005L5.93802,8.626809999999999Z" fill="url(#master_svg0_55_17020)" fill-opacity="1" style="mix-blend-mode:passthrough"/></g></g></svg>