<?xml version="1.0" standalone="no"?><!DOCTYPE svg PUBLIC "-//W3C//DTD SVG 1.1//EN" "http://www.w3.org/Graphics/SVG/1.1/DTD/svg11.dtd"><svg t="1776065883094" class="icon" viewBox="0 0 1024 1024" version="1.1" xmlns="http://www.w3.org/2000/svg" p-id="24953" width="32" height="32" data-spm-anchor-id="a313x.search_index.0.i81.65843a81415OU4" xmlns:xlink="http://www.w3.org/1999/xlink"><path d="M690.4 320.9h203.9L639.4 66v203.9c0 28.1 22.9 51 51 51zM479 531.3c-7.5-7.6-16.2-13.7-27.2-19.3-9.7-4.2-20.7-6.4-32.2-6.4-12.2 0-23.1 2.1-33.4 6.6-9.3 4-18.1 10.3-26.9 19.1-7.4 7.5-13.4 16.6-18.2 27.9-4.3 10.1-6.5 21.7-6.5 33.7 0 12.3 2.1 23.3 6.6 34.7 4.7 11.1 10.7 20.3 18.1 27.8 7.6 7.6 15.9 13.6 27.2 19.3 10.8 4.6 22.3 7.2 33 7.2 12.1 0 22.7-2.4 32.2-7.2 9.7-4.2 18.5-10.5 27.2-19.3 8-8 14.1-17.3 18.1-27.7 4.4-10.4 6.6-22 6.6-34.7 0-11.6-2.2-22.7-6.6-33.9-4.6-11.2-10.5-20.3-18-27.8z" p-id="24954" data-spm-anchor-id="a313x.search_index.0.i82.65843a81415OU4" class="" fill="#6361fe"></path><path d="M604.1 363.2a127.38 127.38 0 0 1-37.3-90.1V66H257.1c-33.8 0-66.2 13.4-90.1 37.3a127.38 127.38 0 0 0-37.3 90.1v637.1c0 33.8 13.4 66.2 37.3 90.1 23.9 23.9 56.3 37.3 90.1 37.3h509.7c33.8 0 66.2-13.4 90.1-37.3 23.9-23.9 37.3-56.3 37.3-90.1v-430h-200c-33.8 0-66.2-13.4-90.1-37.3z m59.2 478.4c-9.9 11.2-20.5 16.6-32.6 16.6-11.5 0-22.9-5-33.9-14.8L516 764.9c-16.7 10-35.1 17.7-55 22.7-15.7 4-32.2 5.9-50.6 5.9-4.8 0-9.6-0.1-14.4-0.4-21.9-2.2-42.4-7.6-63.3-16.4-19.8-8.4-38.6-22.2-56.1-41-18.3-18.4-32.6-40.6-42.3-65.8-9.5-24.5-14.1-48.9-14.1-74.6 0-26.4 4.8-51.5 14.2-74.7 9.7-24 24-46.1 42.3-65.7 19.5-19.7 41.1-34.5 64.4-44.1 23.3-9.6 47.2-14.3 73.1-14.3 26.2 0 51.1 4.8 74.1 14.3 25.1 10.4 46.8 25.2 64.4 44.1 16 17.3 29.1 36.7 39 57.9 8.7 20.9 14.2 42.6 16.4 64.8 2.1 20.9 0.3 43.1-5.4 66-5 20.1-12.5 38.7-22.5 55.6l76.5 78.2c11 13.6 16.7 24.2 18 33.2 1.4 10.1-2.5 20.8-11.4 31z" p-id="24955" data-spm-anchor-id="a313x.search_index.0.i78.65843a81415OU4" class="selected" fill="#6361fe"></path></svg>