<svg xmlns="http://www.w3.org/2000/svg" xmlns:xlink="http://www.w3.org/1999/xlink" fill="none" version="1.1" width="16" height="16" viewBox="0 0 16 16"><defs><clipPath id="master_svg0_39_77720"><rect x="0" y="0" width="16" height="16" rx="0"/></clipPath></defs><g clip-path="url(#master_svg0_39_77720)"><g><path d="M7.1585602375,6.3893275L8.5047483375,14.24209C8.5047483375,14.24209,9.5143890375,13.204404,10.3277111375,12.503264L12.1506734375,14.94323C12.2348104375,15.055412,12.3750384375,15.055412,12.5152664375,14.971275L13.3005424375,14.410364C13.4127254375,14.326227,13.4688164375,14.157954,13.3846794375,14.073817L11.6178084375,11.717989C12.5433124375,11.353396,14.0577734375,10.9327126,14.0577734375,10.9327126L7.1585602375,6.3893275ZM4.9710049375,10.0072069L2.9517229375,11.493623C2.6432215375,11.717987,2.5871304375,12.138671,2.8395406375,12.475218C3.0919507375,12.783719,3.5126347375,12.867856,3.8211360375,12.643492L5.8404178375,11.157076C6.1489191375,10.9327116,6.2050104375,10.4839821,5.9526000375,10.1754808C5.7282352375,9.8389339,5.2795062375,9.7828426,4.9710049375,10.0072069ZM14.5065024375,3.9493618C14.2540924375,3.6408601,13.8334084375,3.5567236,13.5249074375,3.7810884L11.5336704375,5.2394586C11.2251691375,5.4638233,11.1690778375,5.9125524,11.3934424375,6.2210541C11.6458524375,6.5295553,12.0665364375,6.6136923,12.4030824375,6.3893275L14.3943194375,4.9309573C14.7028204375,4.7065926000000005,14.7308664375,4.2578635,14.5065024375,3.9493618ZM5.1392784375,2.4349004C4.9149136375,2.0983535,4.4661846375,2.0422621999999997,4.157682937500001,2.2666269999999997C3.8491811375,2.4909917,3.7930903375,2.9116752999999997,4.045500737499999,3.2201767L5.6160531375,5.2675042C5.8404178375,5.5760055,6.2891469375,5.6320968,6.5976486375,5.4357777C6.9061498375,5.2114129,6.9622411375,4.7626839,6.7378764375,4.454182100000001L5.1392784375,2.4349004ZM9.093705137499999,4.874866C9.4863433375,4.9309573,9.8509359375,4.678546900000001,9.8789816375,4.2859087L10.1874828375,1.78985202C10.2435741375,1.4252594699999999,9.9911642375,1.060666919,9.5985260375,0.9765301943C9.2058878375,0.920439005,8.841295237499999,1.1728493,8.8132496375,1.56548738L8.4767027375,4.0615439C8.420611337499999,4.454182100000001,8.7010669375,4.790729,9.093705137499999,4.874866ZM5.3075518375,7.6513782C5.3355975375,7.2587399,5.0831871374999995,6.9221931,4.6905489375,6.8380561L2.1664465675,6.4173722C1.7738084775,6.3612809,1.4092158075,6.6136913,1.381170392,7.0063295C1.3250792025,7.3989677,1.6055350275,7.7635603,1.9981731175,7.8196511L4.522275437499999,8.240335C4.8868680375,8.2964263,5.223414937499999,8.0440164,5.3075518375,7.6513782Z" fill="#7579DB" fill-opacity="1" style="mix-blend-mode:passthrough"/></g></g></svg>