<svg xmlns="http://www.w3.org/2000/svg" xmlns:xlink="http://www.w3.org/1999/xlink" fill="none" version="1.1" width="16" height="16" viewBox="0 0 16 16"><defs><clipPath id="master_svg0_33_06213"><rect x="16" y="0" width="16" height="16" rx="0"/></clipPath></defs><g transform="matrix(-1,0,0,1,32,0)" clip-path="url(#master_svg0_33_06213)"><g><path d="M17.034870465702056,15.998001131286621C16.870519465702056,16.00091113128662,16.711927465702058,15.93748113128662,16.594925465702058,15.822021131286622C16.350826765702056,15.586181131286622,16.350826765702056,15.194971131286621,16.594925465702058,14.959131131286622L21.857271465702055,9.696789131286621C22.093821465702057,9.450378431286621,22.486611465702058,9.446259531286621,22.728281465702057,9.687653131286622C22.969961465702056,9.929047131286621,22.966291465702056,10.32183813128662,22.720161465702056,10.55868113128662L17.457821465702057,15.82102113128662C17.344862465702057,15.932251131286622,17.193373465702056,15.995631131286622,17.034870465702056,15.998001131286621Z" fill="#FFFFFF" fill-opacity="1" style="mix-blend-mode:passthrough"/></g><g><path d="M24.1289873651886,13.903247827529908L24.0939873651886,13.903247827529908C23.8861273651886,13.888247827529907,23.7034873651886,13.759847827529907,23.6190473651886,13.569347827529906L22.1192373651886,10.136727827529906L18.440693365188597,9.414817827529907C18.2362463651886,9.379917827529908,18.0711760651886,9.228537827529907,18.0187465651886,9.027867827529906C17.971403165188597,8.825547827529906,18.031029665188598,8.613087827529906,18.1767263651886,8.464937827529909L20.976377365188597,5.983247827529907L20.5184373651886,2.2697158275299074C20.4979673651886,2.062042827529907,20.5922373651886,1.8597078275299073,20.7644073651886,1.7417817275299072C20.9376173651886,1.6219349275299073,21.1650273651886,1.6148892275299072,21.3453273651886,1.7237839275299072L24.5839273651886,3.623547827529907L27.983497365188597,2.039744827529907C28.1734973651886,1.9509608275299073,28.3973973651886,1.9773328275299074,28.561597365188597,2.1078388275299074C28.725797365188598,2.2383438275299072,28.801997365188598,2.450512827529907,28.7583973651886,2.655667827529907L27.966507365188598,6.316207827529907L30.5191973651886,9.061867827529907C30.664797365188598,9.210997827529908,30.706497365188596,9.432947827529908,30.625197365188598,9.624797827529907C30.5498973651886,9.818147827529907,30.373497365188598,9.953717827529907,30.1671973651886,9.976747827529907L26.4356973651886,10.328707827529907L24.6229173651886,13.620247827529907C24.521767365188598,13.797247827529906,24.3327573651886,13.905447827529906,24.1289873651886,13.903247827529908ZM19.763527365188597,8.552927827529906L22.6321673651886,9.115857827529908C22.807707365188598,9.153167827529908,22.9556873651886,9.270447827529907,23.032117365188597,9.432817827529906L24.193977365188598,12.108447827529908L25.6197973651886,9.556807827529907C25.7059473651886,9.399537827529908,25.863487365188597,9.294267827529907,26.0417473651886,9.274837827529907L28.9413973651886,8.992877827529906L26.952627365188597,6.863147827529907C26.830357365188597,6.730357827529907,26.7780773651886,6.547567827529908,26.8116473651886,6.370207827529907L27.445567365188598,3.518557827529907L24.7878973651886,4.750407827529907C24.6240173651886,4.824007827529908,24.435257365188598,4.817357827529907,24.276967365188597,4.732407827529907L21.7602773651886,3.232597827529907L22.112237365188598,6.132237827529908C22.1265573651886,6.308757827529908,22.0621473651886,6.482597827529907,21.9362573651886,6.607177827529907L19.763527365188597,8.552927827529906Z" fill="#FFFFFF" fill-opacity="1" style="mix-blend-mode:passthrough"/></g><g><path d="M24.776903336364747,2.056741985406876C24.475849336364746,2.0556419854068757,24.232068066364747,1.8118619854068756,24.230971336364746,1.5108119854068756L24.230971336364746,0.7029119854068756C24.232068066364747,0.4018579854068756,24.475849336364746,0.1580771254068756,24.776903336364747,0.1569803953068756C25.080513336364746,0.15184837540687562,25.327971336364747,0.3993019854068756,25.322831336364747,0.7029119854068756L25.322831336364747,1.5128119854068756C25.320641336364744,1.8130819854068756,25.077182336364746,2.0556519854068753,24.776903336364747,2.056741985406876ZM29.265341336364745,6.140231985406875C29.000941336364747,6.144851985406875,28.771101336364747,5.959631985406876,28.719411336364747,5.700291985406875C28.669191336364747,5.400751985406876,28.862691336364747,5.114451985406876,29.159351336364747,5.049371985406876L31.201101336364747,4.6494219854068755C31.496501336364744,4.603711985406876,31.775161336364746,4.799771985406876,31.831921336364747,5.093251985406876C31.888681336364748,5.386721985406876,31.703211336364745,5.6725519854068756,31.412071336364747,5.740281985406876L29.370331336364746,6.127231985406875C29.336991336364747,6.141751985406875,29.300611336364746,6.147921985406875,29.264341336364744,6.145231985406876L29.265341336364745,6.140231985406875ZM28.865391336364745,14.307201985406875C28.681321336364746,14.306601985406875,28.509641336364744,14.214301985406875,28.407451336364744,14.061201985406875L26.770651336364747,11.614501985406875C26.620351336364745,11.362401985406876,26.695511336364746,11.036501985406876,26.941091336364746,10.875701985406875C27.186681336364746,10.714801985406876,27.515411336364746,10.776101985406875,27.686541336364748,11.014601985406875L29.323331336364745,13.443301985406876C29.500491336364746,13.693601985406875,29.427851336364746,14.041701985406876,29.165351336364747,14.200201985406876C29.080401336364744,14.268801985406876,28.974551336364748,14.306201985406876,28.865391336364745,14.307201985406875L28.865391336364745,14.307201985406875Z" fill="#FFFFFF" fill-opacity="1" style="mix-blend-mode:passthrough"/></g></g></svg>