<svg xmlns="http://www.w3.org/2000/svg" xmlns:xlink="http://www.w3.org/1999/xlink" fill="none" version="1.1" width="120" height="29" viewBox="0 9 120 29"><g><g><path d="M5.01,30.74C4.14,32.66,2.58,34.61,0.96,35.9C1.62,36.29,2.73,37.07,3.24,37.55C4.86,36.08,6.63,33.74,7.71,31.49L5.01,30.74ZM9.39,31.85C10.56,33.26,11.97,35.21,12.54,36.44L14.85,35.09C14.19,33.86,12.75,32,11.58,30.65L9.39,31.85ZM25.2,13.67L25.2,17.93L19.86,17.93L19.86,13.67L25.2,13.67ZM17.19,11.09L17.19,22.04C17.19,26.36,17.01,32.06,14.58,36.02C15.21,36.29,16.38,37.13,16.86,37.64C18.57,34.85,19.35,31.04,19.65,27.44L25.2,27.44L25.2,34.13C25.2,34.61,25.05,34.73,24.6,34.76C24.18,34.76,22.68,34.79,21.21,34.73C21.6,35.45,21.96,36.68,22.05,37.43C24.3,37.46,25.77,37.4,26.7,36.92C27.63,36.47,27.96,35.66,27.96,34.16L27.96,11.09L17.19,11.09ZM25.2,20.45L25.2,24.89L19.8,24.89L19.86,22.04L19.86,20.45L25.2,20.45ZM11.16,10.01L11.16,13.46L6.45,13.46L6.45,10.01L3.87,10.01L3.87,13.46L1.41,13.46L1.41,15.95L3.87,15.95L3.87,27.77L1.05,27.77L1.05,30.26L15.84,30.26L15.84,27.77L13.8,27.77L13.8,15.95L15.93,15.95L15.93,13.46L13.8,13.46L13.8,10.01L11.16,10.01ZM6.45,15.95L11.16,15.95L11.16,18.23L6.45,18.23L6.45,15.95ZM6.45,20.45L11.16,20.45L11.16,22.94L6.45,22.94L6.45,20.45ZM6.45,25.19L11.16,25.19L11.16,27.77L6.45,27.77L6.45,25.19ZM48.12,13.19L48.12,30.05L50.97,30.05L50.97,13.19L48.12,13.19ZM54.66,10.22L54.66,33.77C54.66,34.37,54.45,34.55,53.82,34.58C53.16,34.58,51.15,34.61,48.99,34.52C49.44,35.36,49.92,36.71,50.07,37.52C52.92,37.55,54.84,37.46,56.01,36.98C57.15,36.5,57.57,35.66,57.57,33.77L57.57,10.22L54.66,10.22ZM31.11,21.35L31.11,24.2L37.17,24.2L37.17,37.49L40.08,37.49L40.08,24.2L46.26,24.2L46.26,21.35L40.08,21.35L40.08,14.21L45.39,14.21L45.39,11.45L31.89,11.45L31.89,14.21L37.17,14.21L37.17,21.35L31.11,21.35ZM62.94,12.05C64.77,13.55,67.17,15.71,68.28,17.06L70.17,14.9C69,13.58,66.51,11.57,64.68,10.16L62.94,12.05ZM84.06,22.04C82.05,23.51,79.02,25.22,76.38,26.48L76.38,20.84L73.74,20.84C76.17,18.65,78.09,16.19,79.59,13.73C81.75,17.21,84.72,20.54,87.51,22.55C87.99,21.86,88.89,20.84,89.55,20.33C86.4,18.38,82.92,14.66,81.03,11.15L81.51,10.13L78.48,9.59C76.95,13.22,73.95,17.57,69.36,20.69C69.99,21.14,70.86,22.16,71.28,22.85C72.09,22.25,72.84,21.65,73.56,21.02L73.56,32.72C73.56,35.81,74.55,36.71,78.12,36.71C78.87,36.71,83.22,36.71,84,36.71C87.15,36.71,87.96,35.48,88.32,31.04C87.54,30.89,86.37,30.41,85.74,29.96C85.53,33.5,85.29,34.13,83.82,34.13C82.83,34.13,79.14,34.13,78.36,34.13C76.68,34.13,76.38,33.92,76.38,32.72L76.38,29.33C79.35,28.04,83.1,26.18,85.92,24.44L84.06,22.04ZM61.11,19.04L61.11,21.77L65.55,21.77L65.55,32.03C65.55,33.56,64.68,34.61,64.11,35.09C64.56,35.51,65.31,36.53,65.58,37.1C66.06,36.41,66.93,35.66,72.03,31.52C71.73,30.98,71.28,29.9,71.04,29.12L68.28,31.28L68.28,19.04L61.11,19.04ZM102.54,10.31C103.38,11.75,104.22,13.64,104.58,14.87L91.44,14.87L91.44,17.63L96.12,17.63C97.83,22.04,100.08,25.85,102.99,28.97C99.78,31.61,95.79,33.47,90.93,34.79C91.5,35.45,92.37,36.77,92.7,37.46C97.62,35.93,101.73,33.86,105.09,31.01C108.36,33.86,112.38,35.99,117.24,37.31C117.69,36.5,118.53,35.3,119.16,34.67C114.48,33.53,110.55,31.55,107.31,28.94C110.16,25.91,112.38,22.19,114,17.63L118.71,17.63L118.71,14.87L105.09,14.87L107.76,14.03C107.37,12.77,106.41,10.85,105.54,9.41L102.54,10.31ZM105.15,26.99C102.54,24.32,100.5,21.17,99.06,17.63L110.79,17.63C109.44,21.38,107.58,24.44,105.15,26.99Z" fill="#0C0E43" fill-opacity="1"/></g></g></svg>