<svg xmlns="http://www.w3.org/2000/svg" xmlns:xlink="http://www.w3.org/1999/xlink" fill="none" version="1.1" width="89" height="29" viewBox="0 9 89 29"><g><g><path d="M10.5,33.71L10.5,36.41L28.44,36.41L28.44,33.71L20.79,33.71L20.79,25.13L28.86,25.13L28.86,22.37L20.79,22.37L20.79,14.48C23.37,13.97,25.83,13.37,27.87,12.68L25.77,10.28C22.05,11.63,15.75,12.8,10.26,13.52C10.56,14.18,10.98,15.23,11.1,15.95C13.29,15.68,15.6,15.38,17.91,14.99L17.91,22.37L9.3,22.37L9.3,25.13L17.91,25.13L17.91,33.71L10.5,33.71ZM8.46,9.71C6.69,14.33,3.69,18.83,0.54,21.71C1.08,22.4,1.95,23.93,2.25,24.62C3.3,23.6,4.35,22.4,5.34,21.08L5.34,37.49L8.13,37.49L8.13,16.91C9.33,14.9,10.41,12.74,11.25,10.61L8.46,9.71ZM43.02,23.6C42.9,24.62,42.72,25.55,42.48,26.39L33.66,26.39L33.66,28.85L41.52,28.85C39.75,32.27,36.57,34.13,31.62,35.09C32.13,35.66,32.97,36.86,33.24,37.49C38.97,36.02,42.6,33.53,44.58,28.85L53.25,28.85C52.77,32.3,52.2,34.01,51.51,34.52C51.15,34.79,50.79,34.82,50.13,34.82C49.35,34.82,47.31,34.79,45.36,34.61C45.84,35.3,46.23,36.35,46.26,37.1C48.15,37.22,49.98,37.22,51,37.16C52.2,37.1,53.01,36.92,53.76,36.23C54.84,35.27,55.53,32.93,56.22,27.59C56.28,27.2,56.34,26.39,56.34,26.39L45.42,26.39C45.63,25.58,45.81,24.74,45.96,23.84L43.02,23.6ZM51.87,15.05C50.13,16.64,47.82,17.9,45.15,18.95C42.93,18.02,41.13,16.85,39.87,15.38L40.2,15.05L51.87,15.05ZM41.19,9.65C39.63,12.23,36.75,15.14,32.49,17.21C33.06,17.66,33.84,18.71,34.2,19.37C35.61,18.62,36.87,17.78,38.01,16.91C39.12,18.11,40.44,19.16,41.94,20.03C38.58,20.99,34.92,21.59,31.35,21.92C31.77,22.58,32.25,23.69,32.46,24.41C36.78,23.9,41.19,23,45.15,21.56C48.63,22.91,52.77,23.69,57.39,24.05C57.72,23.3,58.38,22.16,58.98,21.53C55.17,21.32,51.63,20.87,48.6,20.09C51.84,18.47,54.57,16.37,56.37,13.67L54.63,12.53L54.18,12.65L42.42,12.65C43.05,11.87,43.59,11.03,44.1,10.22L41.19,9.65ZM81.12,12.32C83.07,13.58,85.71,15.44,86.94,16.64L88.71,14.48C87.39,13.34,84.69,11.57,82.77,10.43L81.12,12.32ZM63.57,14.84L63.57,17.57L72.12,17.57L72.12,22.94L61.77,22.94L61.77,25.61L72.12,25.61L72.12,37.46L75.03,37.46L75.03,25.61L85.44,25.61C85.14,29.51,84.75,31.31,84.18,31.82C83.82,32.12,83.49,32.15,82.86,32.15C82.11,32.15,80.19,32.12,78.33,31.94C78.84,32.69,79.23,33.86,79.29,34.67C81.15,34.73,82.95,34.76,83.94,34.7C85.11,34.61,85.86,34.4,86.58,33.62C87.51,32.69,87.99,30.17,88.44,24.14C88.5,23.75,88.56,22.94,88.56,22.94L84.18,22.94L84.18,14.84L75.03,14.84L75.03,9.77L72.12,9.77L72.12,14.84L63.57,14.84ZM75.03,22.94L75.03,17.57L81.36,17.57L81.36,22.94L75.03,22.94Z" fill="#0C0E43" fill-opacity="1"/></g></g></svg>