<svg xmlns="http://www.w3.org/2000/svg" xmlns:xlink="http://www.w3.org/1999/xlink" fill="none" version="1.1" width="16" height="16" viewBox="0 0 16 16"><defs><clipPath id="master_svg0_39_77469"><rect x="0" y="0" width="16" height="16" rx="0"/></clipPath></defs><g clip-path="url(#master_svg0_39_77469)"><g><path d="M14.000025567077637,14.00027811531067L1.9999265670776367,13.99958711531067L1.9999265670776367,1.999488115310669L3.1993837670776366,1.999488115310669L3.1993837670776366,12.799440115310668L14.000025567077637,12.800130115310669L14.000025567077637,14.00027811531067ZM11.900000567077637,2.000000059600669L11.900000567077637,11.000000215310669L13.100000567077636,11.000000215310669L13.100000567077636,2.000000059600669L11.900000567077637,2.000000059600669ZM9.400000567077637,4.000000015310668L9.400000567077637,11.000000215310669L10.600000367077637,11.000000215310669L10.600000367077637,4.000000015310668L9.400000567077637,4.000000015310668ZM6.900000567077637,11.000000215310669L6.900000567077637,6.000000215310669L8.100000367077637,6.000000215310669L8.100000367077637,11.000000215310669L6.900000567077637,11.000000215310669ZM4.400000567077637,11.000000215310669L4.400000567077637,8.000000215310669L5.600000367077637,8.000000215310669L5.600000367077637,11.000000215310669L4.400000567077637,11.000000215310669Z" fill-rule="evenodd" fill="#666666" fill-opacity="1"/></g></g></svg>