<svg xmlns="http://www.w3.org/2000/svg" xmlns:xlink="http://www.w3.org/1999/xlink" fill="none" version="1.1" width="16" height="16" viewBox="0 0 16 16"><defs><clipPath id="master_svg0_39_77473"><rect x="0" y="0" width="16" height="16" rx="0"/></clipPath></defs><g clip-path="url(#master_svg0_39_77473)"><g><path d="M14.000099,14.00079L2,14.000099L2,2L3.1994572,2L3.1994572,12.799952L14.000099,12.800642L14.000099,14.00079ZM11.900074,2.00051194429L11.900074,11.0005121L13.100074,11.0005121L13.100074,2.00051194429L11.900074,2.00051194429ZM9.400074,4.000511899999999L9.400074,11.0005121L10.6000738,11.0005121L10.6000738,4.000511899999999L9.400074,4.000511899999999ZM6.900074,11.0005121L6.900074,6.0005121L8.1000738,6.0005121L8.1000738,11.0005121L6.900074,11.0005121ZM4.400074,11.0005121L4.400074,8.0005121L5.6000738000000005,8.0005121L5.6000738000000005,11.0005121L4.400074,11.0005121Z" fill-rule="evenodd" fill="#7579DB" fill-opacity="1"/></g></g></svg>