<svg xmlns="http://www.w3.org/2000/svg" xmlns:xlink="http://www.w3.org/1999/xlink" fill="none" version="1.1" width="16" height="16" viewBox="0 0 16 16"><defs><clipPath id="master_svg0_79_000074"><rect x="0" y="0" width="16" height="16" rx="0"/></clipPath></defs><g clip-path="url(#master_svg0_79_000074)"><g><path d="M6.0364057421875,6.0218049453125Q6.0364057421875,6.0733789453125,6.0263457421875,6.1239619453125Q6.0162857421875,6.1745439453125,5.9965457421875,6.2221919453125Q5.9768127421875,6.2698399453124996,5.9481597421875,6.3127219453125Q5.9195067421875,6.3556039453125,5.8830387421875,6.3920719453125Q5.8465707421875,6.4285399453125,5.8036887421875,6.4571929453125Q5.7608067421874996,6.4858459453125,5.7131587421875,6.5055789453125Q5.6655107421875,6.5253189453125,5.6149287421875,6.5353789453125Q5.5643457421875,6.5454389453125,5.5127717421875,6.5454389453125Q5.4611987421875,6.5454389453125,5.4106157421875,6.5353789453125Q5.3600327421875,6.5253189453125,5.3123847421875,6.5055789453125Q5.2647367421875,6.4858459453125,5.2218557421875,6.4571929453125Q5.1789737421875,6.4285399453125,5.1425057421875,6.3920719453125Q5.1060367421875,6.3556039453125,5.0773843421875,6.3127219453125Q5.0487315421875,6.2698399453124996,5.0289951421875,6.2221919453125Q5.0092587421875,6.1745439453125,4.9991972421875,6.1239619453125Q4.9891357421875,6.0733789453125,4.9891357421875,6.0218049453125Q4.9891357421875,5.9702319453125,4.9991972421875,5.9196489453125Q5.0092587421875,5.8690659453125,5.0289951421875,5.8214179453125Q5.0487315421875,5.7737699453125,5.0773843421875,5.7308889453125Q5.1060367421875,5.6880069453125,5.1425057421875,5.6515389453125Q5.1789737421875,5.6150699453125,5.2218557421875,5.5864175453125Q5.2647377421875,5.5577647453125,5.3123847421875,5.5380283453125Q5.3600327421875,5.5182919453125,5.4106157421875,5.5082304453125Q5.4611987421875,5.4981689453125,5.5127717421875,5.4981689453125Q5.5643457421875,5.4981689453125,5.6149287421875,5.5082304453125Q5.6655107421875,5.5182919453125,5.7131587421875,5.5380283453125Q5.7608067421874996,5.5577647453125,5.8036887421875,5.5864175453125Q5.8465707421875,5.6150699453125,5.8830387421875,5.6515389453125Q5.9195067421875,5.6880069453125,5.9481597421875,5.7308889453125Q5.9768127421875,5.7737709453125,5.9965457421875,5.8214179453125Q6.0162857421875,5.8690659453125,6.0263457421875,5.9196489453125Q6.0364057421875,5.9702319453125,6.0364057421875,6.0218049453125Z" fill="#50B674" fill-opacity="1" style="mix-blend-mode:passthrough"/></g><g><path d="M7.3309330940245,6.007278578125C7.3306508061875,6.296674578125,7.5651736171875,6.5314225781249995,7.8545686171875,6.5314225781249995C8.1439656171875,6.5314225781249995,8.3784826171875,6.296674578125,8.3782026171875,6.007278578125C8.3782026171875,5.718082578125,8.1437656171875,5.483642578125,7.8545686171875,5.483642578125C7.5653726171875,5.483642578125,7.3309326171875,5.718082578125,7.3309330940245,6.007278578125Z" fill="#50B674" fill-opacity="1" style="mix-blend-mode:passthrough"/></g><g><path d="M9.3672876484375,8.3491106328125Q9.3672876484375,8.3849256328125,9.3603006484375,8.4200526328125Q9.3533126484375,8.4551796328125,9.3396076484375,8.4882676328125Q9.3259016484375,8.5213566328125,9.3060036484375,8.5511356328125Q9.2861056484375,8.5809156328125,9.2607806484375,8.6062406328125Q9.2354556484375,8.6315656328125,9.2056766484375,8.6514636328125Q9.1758976484375,8.6713606328125,9.1428086484375,8.6850666328125Q9.1097196484375,8.6987726328125,9.0745926484375,8.7057596328125Q9.0394666484375,8.7127466328125,9.0036506484375,8.7127466328125Q8.9678356484375,8.7127466328125,8.9327096484375,8.7057596328125Q8.8975826484375,8.6987726328125,8.8644936484375,8.6850666328125Q8.8314046484375,8.6713606328125,8.8016256484375,8.6514636328125Q8.7718466484375,8.6315656328125,8.7465216484375,8.6062406328125Q8.7211962484375,8.5809156328125,8.7012984484375,8.5511356328125Q8.6814006484375,8.5213566328125,8.6676948484375,8.4882676328125Q8.6539889484375,8.4551796328125,8.6470018184375,8.4200526328125Q8.6400146484375,8.3849256328125,8.6400146484375,8.3491106328125Q8.6400146484375,8.3132956328125,8.6470018184375,8.2781686328125Q8.6539889484375,8.2430416328125,8.6676948484375,8.2099526328125Q8.6814006484375,8.1768636328125,8.7012984484375,8.1470846328125Q8.7211962484375,8.1173056328125,8.7465216484375,8.0919806328125Q8.7718466484375,8.0666552328125,8.8016256484375,8.0467574328125Q8.8314046484375,8.0268596328125,8.8644936484375,8.0131538328125Q8.8975826484375,7.9994480328125,8.9327096484375,7.9924608128125Q8.9678356484375,7.9854736328125,9.0036506484375,7.9854736328125Q9.0394666484375,7.9854736328125,9.0745926484375,7.9924608128125Q9.1097196484375,7.9994480328125,9.1428086484375,8.0131538328125Q9.1758976484375,8.0268596328125,9.2056766484375,8.0467574328125Q9.2354556484375,8.0666552328125,9.2607806484375,8.0919806328125Q9.2861056484375,8.1173056328125,9.3060036484375,8.1470846328125Q9.3259016484375,8.1768636328125,9.3396076484375,8.2099526328125Q9.3533126484375,8.2430416328125,9.3603006484375,8.2781686328125Q9.3672876484375,8.3132956328125,9.3672876484375,8.3491106328125Z" fill="#50B674" fill-opacity="1" style="mix-blend-mode:passthrough"/></g><g><path d="M11.2145776875,8.3781633671875Q11.2145776875,8.4139783671875,11.2075906875,8.4491053671875Q11.2006026875,8.4842323671875,11.1868976875,8.5173203671875Q11.1731916875,8.5504093671875,11.1532936875,8.5801883671875Q11.1333956875,8.6099683671875,11.1080706875,8.6352933671875Q11.0827456875,8.6606183671875,11.0529666875,8.6805163671875Q11.0231876875,8.7004133671875,10.9900986875,8.7141193671875Q10.9570096875,8.7278253671875,10.9218826875,8.7348123671875Q10.8867566875,8.7417993671875,10.8509406875,8.7417993671875Q10.8151256875,8.7417993671875,10.7799996875,8.7348123671875Q10.7448726875,8.7278253671875,10.7117836875,8.7141193671875Q10.6786946875,8.7004133671875,10.6489156875,8.6805163671875Q10.6191366875,8.6606183671875,10.5938116875,8.6352933671875Q10.5684862875,8.6099683671875,10.5485884875,8.5801883671875Q10.5286906875,8.5504093671875,10.5149848875,8.5173203671875Q10.5012789875,8.4842323671875,10.4942918575,8.4491053671875Q10.4873046875,8.4139783671875,10.4873046875,8.3781633671875Q10.4873046875,8.3423483671875,10.4942918575,8.3072213671875Q10.5012789875,8.2720943671875,10.5149848875,8.2390053671875Q10.5286906875,8.2059163671875,10.5485884875,8.1761373671875Q10.5684862875,8.1463583671875,10.5938116875,8.1210333671875Q10.6191366875,8.0957079671875,10.6489156875,8.0758101671875Q10.6786946875,8.0559123671875,10.7117836875,8.0422065671875Q10.7448726875,8.0285007671875,10.7799996875,8.0215135471875Q10.8151256875,8.0145263671875,10.8509406875,8.0145263671875Q10.8867566875,8.0145263671875,10.9218826875,8.0215135471875Q10.9570096875,8.0285007671875,10.9900986875,8.0422065671875Q11.0231876875,8.0559123671875,11.0529666875,8.0758101671875Q11.0827456875,8.0957079671875,11.1080706875,8.1210333671875Q11.1333956875,8.1463583671875,11.1532936875,8.1761373671875Q11.1731916875,8.2059163671875,11.1868976875,8.2390053671875Q11.2006026875,8.2720943671875,11.2075906875,8.3072213671875Q11.2145776875,8.3423483671875,11.2145776875,8.3781633671875Z" fill="#50B674" fill-opacity="1" style="mix-blend-mode:passthrough"/></g><g><path d="M8,0C3.57818,0,0,3.57818,0,8C0,12.4218,3.57818,16,8,16C12.4218,16,16,12.4218,16,8C16,3.57818,12.4218,0,8,0ZM6.63273,9.84727C6.21091,9.84727,5.87636,9.76,5.45455,9.67273L4.27636,10.2545L4.61091,9.25091C3.76727,8.66909,3.27273,7.91273,3.27273,6.98182C3.27273,5.38182,4.78545,4.13091,6.63273,4.13091C8.27636,4.13091,9.73091,5.13455,10.0218,6.48727C9.92,6.47273,9.80364,6.47273,9.70182,6.47273C8.10182,6.47273,6.85091,7.66545,6.85091,9.13455C6.85091,9.38182,6.89455,9.61455,6.95273,9.83273C6.83636,9.83273,6.73455,9.84727,6.63273,9.84727ZM11.5491,11.0255L11.7964,11.8691L10.88,11.36C10.5455,11.4473,10.2109,11.5345,9.87636,11.5345C8.27636,11.5345,7.02545,10.4436,7.02545,9.10546C7.02545,7.76727,8.27636,6.67636,9.87636,6.67636C11.3891,6.67636,12.7273,7.76727,12.7273,9.10546C12.7273,9.84727,12.2327,10.5164,11.5491,11.0255Z" fill="#50B674" fill-opacity="1" style="mix-blend-mode:passthrough"/></g></g></svg>