<svg xmlns="http://www.w3.org/2000/svg" xmlns:xlink="http://www.w3.org/1999/xlink" fill="none" version="1.1" width="125" height="29" viewBox="2 9 125 29"><g><g><path d="M23.13,14.51C22.26,15.71,21.18,16.76,19.89,17.69C18.69,16.79,17.67,15.8,16.89,14.69L17.04,14.51L23.13,14.51ZM17.31,9.71C16.08,11.93,13.86,14.63,10.74,16.61C11.34,17,12.18,17.93,12.57,18.56C13.53,17.87,14.43,17.15,15.24,16.37C15.96,17.36,16.83,18.23,17.76,19.04C15.54,20.27,12.99,21.17,10.38,21.71C10.86,22.28,11.52,23.33,11.79,23.99C14.7,23.24,17.52,22.16,19.98,20.66C22.17,22.04,24.72,23.06,27.51,23.66C27.87,22.97,28.62,21.92,29.19,21.35C26.64,20.9,24.24,20.15,22.2,19.07C24.21,17.45,25.86,15.44,26.94,13.01L25.2,12.14L24.72,12.26L18.81,12.26C19.29,11.6,19.71,10.91,20.1,10.25L17.31,9.71ZM12.45,24.62L12.45,27.08L19.11,27.08L19.11,30.68L14.82,30.68L15.51,28.16L12.96,27.86C12.54,29.57,11.91,31.7,11.37,33.14L19.11,33.14L19.11,37.52L21.84,37.52L21.84,33.14L28.38,33.14L28.38,30.68L21.84,30.68L21.84,27.08L27.51,27.08L27.51,24.62L21.84,24.62L21.84,22.58L19.11,22.58L19.11,24.62L12.45,24.62ZM2.16,10.88L2.16,37.46L4.68,37.46L4.68,13.43L8.01,13.43C7.35,15.44,6.48,17.96,5.64,19.97C7.89,22.25,8.46,24.26,8.46,25.82C8.49,26.75,8.31,27.5,7.83,27.77C7.56,27.98,7.23,28.04,6.84,28.07C6.39,28.1,5.79,28.1,5.13,28.01C5.52,28.73,5.79,29.78,5.82,30.47C6.54,30.5,7.32,30.5,7.95,30.44C8.61,30.35,9.18,30.14,9.66,29.84C10.59,29.15,11.01,27.86,11.01,26.09C10.98,24.26,10.5,22.13,8.19,19.67C9.27,17.33,10.41,14.36,11.34,11.87L9.48,10.79L9.06,10.88L2.16,10.88ZM30,35L33.57,35L35.43,28.73L43.11,28.73L44.97,35L48.66,35L41.34,12.89L37.32,12.89L30,35ZM36.27,25.97L37.14,23C37.86,20.6,38.55,18.17,39.21,15.65L39.33,15.65C40.02,18.14,40.68,20.6,41.4,23L42.27,25.97L36.27,25.97ZM51.57,35L55.05,35L55.05,12.89L51.57,12.89L51.57,35ZM69.87,35.42C72.87,35.42,75.36,34.28,76.83,32.81L76.83,23.24L69.3,23.24L69.3,26.12L73.65,26.12L73.65,31.28C72.9,31.94,71.58,32.36,70.23,32.36C65.64,32.36,63.21,29.12,63.21,23.9C63.21,18.71,65.94,15.53,70.05,15.53C72.18,15.53,73.53,16.43,74.64,17.51L76.5,15.29C75.18,13.88,73.08,12.5,69.96,12.5C64.08,12.5,59.61,16.82,59.61,23.99C59.61,31.25,63.96,35.42,69.87,35.42ZM90.48,35.42C93.36,35.42,95.58,34.28,97.38,32.21L95.49,29.99C94.17,31.43,92.64,32.36,90.63,32.36C86.73,32.36,84.24,29.12,84.24,23.9C84.24,18.71,86.91,15.53,90.72,15.53C92.49,15.53,93.87,16.37,95.04,17.51L96.9,15.29C95.55,13.82,93.39,12.5,90.66,12.5C85.05,12.5,80.64,16.82,80.64,23.99C80.64,31.25,84.93,35.42,90.48,35.42ZM123.06,15.71C122.04,16.91,120.27,18.56,118.95,19.52L121.05,20.84C122.37,19.91,124.08,18.5,125.43,17.12L123.06,15.71ZM99.81,24.65L101.22,26.93C103.17,26,105.57,24.74,107.82,23.51L107.28,21.41C104.52,22.67,101.7,23.93,99.81,24.65ZM100.68,17.36C102.27,18.32,104.25,19.82,105.18,20.84L107.19,19.13C106.17,18.11,104.16,16.73,102.57,15.83L100.68,17.36ZM118.53,23C120.6,24.2,123.18,25.97,124.41,27.17L126.51,25.46C125.16,24.26,122.49,22.55,120.51,21.44L118.53,23ZM99.78,28.88L99.78,31.52L111.84,31.52L111.84,37.49L114.84,37.49L114.84,31.52L126.93,31.52L126.93,28.88L114.84,28.88L114.84,26.63L111.84,26.63L111.84,28.88L99.78,28.88ZM111.03,10.16C111.45,10.79,111.9,11.54,112.26,12.23L100.44,12.23L100.44,14.84L111.12,14.84C110.31,16.1,109.47,17.15,109.14,17.48C108.69,18.02,108.24,18.38,107.79,18.47C108.06,19.1,108.42,20.27,108.57,20.78C109.02,20.6,109.71,20.45,112.65,20.24C111.36,21.5,110.25,22.49,109.71,22.91C108.69,23.75,107.94,24.29,107.22,24.41C107.49,25.07,107.85,26.27,108,26.78C108.66,26.45,109.77,26.27,117.36,25.58C117.66,26.12,117.9,26.66,118.05,27.11L120.3,26.21C119.7,24.74,118.26,22.58,116.94,20.99L114.84,21.77C115.26,22.31,115.71,22.91,116.13,23.54L111.75,23.87C114.3,21.86,116.85,19.34,119.07,16.7L116.85,15.41C116.25,16.25,115.56,17.09,114.87,17.87L111.51,18.02C112.38,17.06,113.22,15.98,114,14.84L126.6,14.84L126.6,12.23L115.62,12.23C115.17,11.39,114.51,10.31,113.88,9.47L111.03,10.16Z" fill="#0C0E43" fill-opacity="1"/></g></g></svg>