<svg xmlns="http://www.w3.org/2000/svg" xmlns:xlink="http://www.w3.org/1999/xlink" fill="none" version="1.1" width="155" height="52" viewBox="0 0 155 52"><g><g><path d="M0,42L4.284,42L6.516,34.476L15.732,34.476L17.964,42L22.392,42L13.608,15.468L8.784,15.468L0,42ZM7.524,31.164L8.568,27.6C9.432,24.72,10.26,21.804,11.052,18.78L11.196,18.78C12.024,21.768,12.816,24.72,13.68,27.6L14.724,31.164L7.524,31.164ZM25.884,42L30.06,42L30.06,15.468L25.884,15.468L25.884,42ZM47.844,42.504C51.444,42.504,54.432,41.136,56.196,39.372L56.196,27.888L47.16,27.888L47.16,31.344L52.38,31.344L52.38,37.536C51.48,38.328,49.896,38.832,48.276,38.832C42.768,38.832,39.852,34.944,39.852,28.68C39.852,22.452,43.128,18.636,48.06,18.636C50.616,18.636,52.236,19.716,53.568,21.012L55.8,18.348C54.216,16.656,51.696,15,47.952,15C40.896,15,35.532,20.184,35.532,28.788C35.532,37.5,40.752,42.504,47.844,42.504ZM72.576,42.504C76.032,42.504,78.696,41.136,80.856,38.652L78.588,35.988C77.004,37.716,75.168,38.832,72.756,38.832C68.076,38.832,65.088,34.944,65.088,28.68C65.088,22.452,68.292,18.636,72.864,18.636C74.988,18.636,76.644,19.644,78.048,21.012L80.28,18.348C78.66,16.584,76.068,15,72.792,15C66.06,15,60.768,20.184,60.768,28.788C60.768,37.5,65.916,42.504,72.576,42.504ZM96.228,29.328C97.164,32.1,98.1,35.664,98.388,38.04L101.16,37.248C100.836,34.944,99.864,31.38,98.856,28.644L96.228,29.328ZM103.14,28.32C103.788,31.02,104.4,34.584,104.544,36.924L107.352,36.492C107.136,34.152,106.488,30.696,105.804,27.96L103.14,28.32ZM88.092,11.616L88.092,18.312L83.592,18.312L83.592,21.444L87.804,21.444C86.904,25.872,85.032,31.164,83.088,33.936C83.628,34.836,84.384,36.348,84.708,37.356C85.968,35.376,87.156,32.388,88.092,29.184L88.092,44.988L91.188,44.988L91.188,27.06C92.016,28.68,92.88,30.444,93.276,31.488L95.292,29.148C94.716,28.104,92.088,24.036,91.188,22.812L91.188,21.444L94.572,21.444L94.572,18.312L91.188,18.312L91.188,11.616L88.092,11.616ZM104.76,16.332C106.56,18.492,108.864,20.76,111.204,22.704L99.252,22.704C101.268,20.796,103.14,18.636,104.76,16.332ZM104.22,11.292C101.772,16.188,97.416,20.688,92.988,23.424C93.564,24.072,94.572,25.548,94.968,26.232C96.264,25.332,97.56,24.252,98.82,23.1L98.82,25.62L111.276,25.62L111.276,22.776C112.644,23.892,114.012,24.9,115.344,25.764C115.704,24.828,116.424,23.388,117.036,22.56C113.364,20.544,109.008,16.944,106.452,13.704L107.172,12.372L104.22,11.292ZM94.392,40.416L94.392,43.44L115.812,43.44L115.812,40.416L109.692,40.416C111.492,37.104,113.508,32.496,115.02,28.68L112.032,27.96C110.88,31.74,108.72,37.032,106.848,40.416L94.392,40.416ZM135.468,38.904C137.196,40.704,139.248,43.188,140.184,44.772L142.38,43.332C141.372,41.784,139.284,39.372,137.556,37.644L135.468,38.904ZM129.132,13.632L129.132,36.672L131.76,36.672L131.76,16.116L138.852,16.116L138.852,36.528L141.588,36.528L141.588,13.632L129.132,13.632ZM148.896,12.12L148.896,41.388C148.896,41.928,148.68,42.108,148.176,42.108C147.636,42.108,145.98,42.144,144.108,42.072C144.504,42.9,144.9,44.16,145.008,44.916C147.6,44.916,149.22,44.808,150.264,44.34C151.272,43.872,151.632,43.044,151.632,41.352L151.632,12.12L148.896,12.12ZM143.964,14.892L143.964,36.708L146.592,36.708L146.592,14.892L143.964,14.892ZM133.92,18.456L133.92,31.632C133.92,35.844,133.272,40.092,127.404,42.9C127.872,43.332,128.664,44.448,128.952,44.988C135.432,41.892,136.44,36.456,136.44,31.704L136.44,18.456L133.92,18.456ZM120.708,14.424C122.688,15.54,125.316,17.232,126.576,18.348L128.664,15.612C127.332,14.496,124.632,12.948,122.724,11.976L120.708,14.424ZM119.196,24.108C121.176,25.188,123.84,26.808,125.136,27.852L127.152,25.152C125.748,24.108,123.084,22.596,121.14,21.624L119.196,24.108ZM119.88,42.828L122.976,44.592C124.488,41.172,126.144,36.852,127.44,33.072L124.668,31.272C123.264,35.376,121.284,40.02,119.88,42.828Z" fill="#0C0E43" fill-opacity="1"/></g></g></svg>