<svg xmlns="http://www.w3.org/2000/svg" xmlns:xlink="http://www.w3.org/1999/xlink" fill="none" version="1.1" width="119" height="29" viewBox="1 9 119 29"><g><g><path d="M3.9,24.74C4.68,24.32,5.91,24.05,14.52,22.25C14.43,21.65,14.4,20.51,14.46,19.73L6.96,21.17L6.96,16.28L14.19,16.28L14.19,13.73L6.96,13.73L6.96,9.98L4.05,9.98L4.05,19.82C4.05,21.17,3.15,21.98,2.55,22.37C3.03,22.88,3.69,24.05,3.9,24.74ZM25.56,11.72C23.76,12.77,21.06,13.94,18.39,14.87L18.39,9.89L15.51,9.89L15.51,20.12C15.51,23.03,16.35,23.87,19.59,23.87C20.28,23.87,23.82,23.87,24.54,23.87C27.27,23.87,28.05,22.76,28.35,18.74C27.6,18.59,26.46,18.11,25.83,17.69C25.68,20.78,25.47,21.32,24.3,21.32C23.49,21.32,20.58,21.32,19.95,21.32C18.6,21.32,18.39,21.14,18.39,20.12L18.39,17.33C21.51,16.43,24.93,15.26,27.57,13.97L25.56,11.72ZM1.44,27.77L1.44,30.32L13.47,30.32L13.47,37.49L16.35,37.49L16.35,30.32L28.62,30.32L28.62,27.77L16.35,27.77L16.35,24.11L13.47,24.11L13.47,27.77L1.44,27.77ZM55.35,16.4C54.24,19.88,52.17,24.29,50.58,27.08L52.92,28.28C54.54,25.43,56.52,21.23,57.93,17.63L55.35,16.4ZM32.22,17.09C33.72,20.6,35.43,25.31,36.12,28.07L38.94,27.02C38.16,24.29,36.36,19.76,34.83,16.31L32.22,17.09ZM47.31,10.04L47.31,33.2L42.72,33.2L42.72,10.04L39.81,10.04L39.81,33.2L31.68,33.2L31.68,36.05L58.38,36.05L58.38,33.2L50.22,33.2L50.22,10.04L47.31,10.04ZM62.94,12.05C64.77,13.55,67.17,15.71,68.28,17.06L70.17,14.9C69,13.58,66.51,11.57,64.68,10.16L62.94,12.05ZM84.06,22.04C82.05,23.51,79.02,25.22,76.38,26.48L76.38,20.84L73.74,20.84C76.17,18.65,78.09,16.19,79.59,13.73C81.75,17.21,84.72,20.54,87.51,22.55C87.99,21.86,88.89,20.84,89.55,20.33C86.4,18.38,82.92,14.66,81.03,11.15L81.51,10.13L78.48,9.59C76.95,13.22,73.95,17.57,69.36,20.69C69.99,21.14,70.86,22.16,71.28,22.85C72.09,22.25,72.84,21.65,73.56,21.02L73.56,32.72C73.56,35.81,74.55,36.71,78.12,36.71C78.87,36.71,83.22,36.71,84,36.71C87.15,36.71,87.96,35.48,88.32,31.04C87.54,30.89,86.37,30.41,85.74,29.96C85.53,33.5,85.29,34.13,83.82,34.13C82.83,34.13,79.14,34.13,78.36,34.13C76.68,34.13,76.38,33.92,76.38,32.72L76.38,29.33C79.35,28.04,83.1,26.18,85.92,24.44L84.06,22.04ZM61.11,19.04L61.11,21.77L65.55,21.77L65.55,32.03C65.55,33.56,64.68,34.61,64.11,35.09C64.56,35.51,65.31,36.53,65.58,37.1C66.06,36.41,66.93,35.66,72.03,31.52C71.73,30.98,71.28,29.9,71.04,29.12L68.28,31.28L68.28,19.04L61.11,19.04ZM102.54,10.31C103.38,11.75,104.22,13.64,104.58,14.87L91.44,14.87L91.44,17.63L96.12,17.63C97.83,22.04,100.08,25.85,102.99,28.97C99.78,31.61,95.79,33.47,90.93,34.79C91.5,35.45,92.37,36.77,92.7,37.46C97.62,35.93,101.73,33.86,105.09,31.01C108.36,33.86,112.38,35.99,117.24,37.31C117.69,36.5,118.53,35.3,119.16,34.67C114.48,33.53,110.55,31.55,107.31,28.94C110.16,25.91,112.38,22.19,114,17.63L118.71,17.63L118.71,14.87L105.09,14.87L107.76,14.03C107.37,12.77,106.41,10.85,105.54,9.41L102.54,10.31ZM105.15,26.99C102.54,24.32,100.5,21.17,99.06,17.63L110.79,17.63C109.44,21.38,107.58,24.44,105.15,26.99Z" fill="#0C0E43" fill-opacity="1"/></g></g></svg>