<svg xmlns="http://www.w3.org/2000/svg" xmlns:xlink="http://www.w3.org/1999/xlink" fill="none" version="1.1" width="144" height="52" viewBox="0 0 144 52"><g><g><path d="M4.68,29.688C5.616,29.184,7.092,28.86,17.424,26.7C17.316,25.98,17.28,24.612,17.352,23.676L8.352,25.404L8.352,19.536L17.028,19.536L17.028,16.476L8.352,16.476L8.352,11.976L4.86,11.976L4.86,23.784C4.86,25.404,3.78,26.376,3.06,26.844C3.636,27.456,4.428,28.86,4.68,29.688ZM30.672,14.064C28.512,15.324,25.272,16.728,22.068,17.844L22.068,11.868L18.612,11.868L18.612,24.144C18.612,27.636,19.62,28.644,23.508,28.644C24.336,28.644,28.584,28.644,29.448,28.644C32.724,28.644,33.66,27.312,34.02,22.488C33.12,22.308,31.752,21.732,30.996,21.228C30.816,24.936,30.564,25.584,29.16,25.584C28.188,25.584,24.696,25.584,23.94,25.584C22.32,25.584,22.068,25.368,22.068,24.144L22.068,20.796C25.812,19.716,29.916,18.312,33.084,16.764L30.672,14.064ZM1.728,33.324L1.728,36.384L16.164,36.384L16.164,44.988L19.62,44.988L19.62,36.384L34.344,36.384L34.344,33.324L19.62,33.324L19.62,28.932L16.164,28.932L16.164,33.324L1.728,33.324ZM66.42,19.68C65.088,23.856,62.604,29.148,60.696,32.496L63.504,33.936C65.448,30.516,67.824,25.476,69.516,21.156L66.42,19.68ZM38.664,20.508C40.464,24.72,42.516,30.372,43.344,33.684L46.728,32.424C45.792,29.148,43.632,23.712,41.796,19.572L38.664,20.508ZM56.772,12.048L56.772,39.84L51.264,39.84L51.264,12.048L47.772,12.048L47.772,39.84L38.016,39.84L38.016,43.26L70.056,43.26L70.056,39.84L60.264,39.84L60.264,12.048L56.772,12.048ZM75.528,14.46C77.724,16.26,80.604,18.852,81.936,20.472L84.204,17.88C82.8,16.296,79.812,13.884,77.616,12.192L75.528,14.46ZM100.872,26.448C98.46,28.212,94.824,30.264,91.656,31.776L91.656,25.008L88.488,25.008C91.404,22.38,93.708,19.428,95.508,16.476C98.1,20.652,101.664,24.648,105.012,27.06C105.588,26.232,106.668,25.008,107.46,24.396C103.68,22.056,99.504,17.592,97.236,13.38L97.812,12.156L94.176,11.508C92.34,15.864,88.74,21.084,83.232,24.828C83.988,25.368,85.032,26.592,85.536,27.42C86.508,26.7,87.408,25.98,88.272,25.224L88.272,39.264C88.272,42.972,89.46,44.052,93.744,44.052C94.644,44.052,99.864,44.052,100.8,44.052C104.58,44.052,105.552,42.576,105.984,37.248C105.048,37.068,103.644,36.492,102.888,35.952C102.636,40.2,102.348,40.956,100.584,40.956C99.396,40.956,94.968,40.956,94.032,40.956C92.016,40.956,91.656,40.704,91.656,39.264L91.656,35.196C95.22,33.648,99.72,31.416,103.104,29.328L100.872,26.448ZM73.332,22.848L73.332,26.124L78.66,26.124L78.66,38.436C78.66,40.272,77.616,41.532,76.932,42.108C77.472,42.612,78.372,43.836,78.696,44.52C79.272,43.692,80.316,42.792,86.436,37.824C86.076,37.176,85.536,35.88,85.248,34.944L81.936,37.536L81.936,22.848L73.332,22.848ZM123.048,12.372C124.056,14.1,125.064,16.368,125.496,17.844L109.728,17.844L109.728,21.156L115.344,21.156C117.396,26.448,120.096,31.02,123.588,34.764C119.736,37.932,114.948,40.164,109.116,41.748C109.8,42.54,110.844,44.124,111.24,44.952C117.144,43.116,122.076,40.632,126.108,37.212C130.032,40.632,134.856,43.188,140.688,44.772C141.228,43.8,142.236,42.36,142.992,41.604C137.376,40.236,132.66,37.86,128.772,34.728C132.192,31.092,134.856,26.628,136.8,21.156L142.452,21.156L142.452,17.844L126.108,17.844L129.312,16.836C128.844,15.324,127.692,13.02,126.648,11.292L123.048,12.372ZM126.18,32.388C123.048,29.184,120.6,25.404,118.872,21.156L132.948,21.156C131.328,25.656,129.096,29.328,126.18,32.388Z" fill="#0C0E43" fill-opacity="1"/></g></g></svg>