<svg xmlns="http://www.w3.org/2000/svg" xmlns:xlink="http://www.w3.org/1999/xlink" fill="none" version="1.1" width="20" height="20" viewBox="0 0 20 20"><defs><linearGradient x1="0" y1="1" x2="1.1265891263186367" y2="0.17230186637814437" id="master_svg0_55_20551"><stop offset="0%" stop-color="#585DD0" stop-opacity="1"/><stop offset="100%" stop-color="#868BFF" stop-opacity="1"/></linearGradient></defs><g><g transform="matrix(-1,0,0,1,37.5,0)"><path d="M35.6781,6.4139800000000005L28.04533,2.5719947C27.69021,2.4760018,27.31042,2.4760018,26.955289999999998,2.5719947L19.322521,6.4139800000000005C18.559993,6.79818,18.559993,7.75868,19.322521,8.04628L26.955289999999998,11.88826C27.28573,12.0803,27.71489,12.0803,28.04533,11.88826L35.6781,8.04628C36.4406,7.75867,36.4406,6.79818,35.6781,6.4139800000000005ZM22.02137,10.18352L26.83654,12.7357C27.23426,12.9469,27.73261,12.9469,28.13033,12.7357L32.9255,10.18352L32.9255,14.3658C32.9257,14.7509,32.6961,15.1078,32.320499999999996,15.3065L28.7716,17.1847C27.97909,17.604300000000002,26.98746,17.6052,26.194020000000002,17.1869L22.62764,15.3054C22.25146,15.1069,22.02137,14.7498,22.02137,14.3647L22.02137,10.18352ZM18.75,9.22302L20.93133,14.986L18.75,14.986L18.75,9.22302Z" fill="url(#master_svg0_55_20551)" fill-opacity="1" style="mix-blend-mode:passthrough"/></g></g></svg>