<svg xmlns="http://www.w3.org/2000/svg" xmlns:xlink="http://www.w3.org/1999/xlink" fill="none" version="1.1" width="16" height="16" viewBox="0 0 16 16"><defs><clipPath id="master_svg0_329_97762"><rect x="0" y="0" width="16" height="16" rx="0"/></clipPath></defs><g clip-path="url(#master_svg0_329_97762)"><g><path d="M13.6375732421875,11.812413215L13.6385326381875,11.812413215L13.6385326381875,11.806640625L13.6375732421875,11.812413215Z" fill="#999999" fill-opacity="1" style="mix-blend-mode:passthrough"/></g><g><path d="M14.49764140625,7.99994140625C14.49764140625,4.41688140625,11.58254140625,1.50244140625,8.00015140625,1.50244140625C4.41688140625,1.50244140625,1.50244140625,4.41688140625,1.50244140625,7.99994140625C1.50244140625,11.58274140625,4.41688140625,14.49744140625,8.00015140625,14.49744140625C11.58254140625,14.49744140625,14.49764140625,11.58274140625,14.49764140625,7.99994140625ZM8.00015140625,13.56514140625C4.93178140625,13.56514140625,2.4349454062499998,11.06786140625,2.4349454062499998,7.99994140625C2.4349454062499998,4.93159140625,4.93178140625,2.43497640625,8.00015140625,2.43497640625C11.06803140625,2.43497640625,13.56494140625,4.93159140625,13.56494140625,7.99994140625C13.56494140625,11.06786140625,11.06803140625,13.56514140625,8.00015140625,13.56514140625Z" fill="#999999" fill-opacity="1" style="mix-blend-mode:passthrough"/></g><g><path d="M10.6622298828125,10.03492265625L8.6531398828125,8.019882656250001L10.660389882812499,6.03495165625C10.8425998828125,5.85504065625,10.8439698828125,5.56100065625,10.664049882812499,5.37877265625C10.4841398828125,5.19632005625,10.1896298828125,5.19492915625,10.0073898828125,5.37530265625L7.9983198828125,7.36254265625L6.0191658828125,5.37715765625C5.8378808828125,5.19585605625,5.5442718828125,5.19494485625,5.3625228828125,5.37622965625C5.1812219828125,5.55777065625,5.1812219828125,5.85134765625,5.3615958828125,6.03266465625L7.3384498828125,8.01529265625L5.3459578828125,9.98613265625C5.1637296828125,10.16650265625,5.1618909828125,10.45964265625,5.3422808828125,10.64190265625C5.4333868828125,10.73394265625,5.5521228828125,10.779922656250001,5.6717538828125,10.779922656250001C5.7895618828124995,10.779922656250001,5.9082648828124995,10.73485265625,5.9984758828124995,10.64603265625L7.9937198828125,8.67241265625L10.0046398828125,10.690672656250001C10.095299882812501,10.78130265625,10.2144698828125,10.82688265625,10.3336498828125,10.82688265625C10.452379882812501,10.82688265625,10.5706098828125,10.78130265625,10.6612798828125,10.691582656249999C10.8425998828125,10.51076265625,10.8430298828125,10.217142656250001,10.6622298828125,10.03492265625Z" fill="#999999" fill-opacity="1" style="mix-blend-mode:passthrough"/></g></g></svg>