<svg xmlns="http://www.w3.org/2000/svg" xmlns:xlink="http://www.w3.org/1999/xlink" fill="none" version="1.1" width="144" height="52" viewBox="0 0 144 52"><g><g><path d="M3.384,14.352C5.328,16.044,7.812,18.492,8.928,20.076L11.268,17.736C10.08,16.188,7.56,13.884,5.58,12.3L3.384,14.352ZM1.44,22.812L1.44,26.088L6.156,26.088L6.156,37.644C6.156,39.696,4.824,41.244,4.032,41.928C4.608,42.396,5.724,43.512,6.12,44.196C6.624,43.476,7.524,42.684,12.24,38.832C11.736,40.38,11.052,41.856,10.152,43.188C10.836,43.512,12.096,44.484,12.6,45.024C16.092,40.128,16.632,32.352,16.632,26.772L16.632,16.08L30.384,16.08L30.384,41.172C30.384,41.712,30.168,41.892,29.664,41.892C29.16,41.928,27.54,41.928,25.812,41.856C26.244,42.684,26.712,44.124,26.82,44.952C29.376,44.952,30.96,44.88,32.004,44.376C33.084,43.836,33.408,42.9,33.408,41.244L33.408,13.092L13.608,13.092L13.608,26.772C13.608,30.012,13.5,33.828,12.636,37.356C12.312,36.708,11.988,35.916,11.772,35.304L9.432,37.176L9.432,22.812L1.44,22.812ZM22.032,17.016L22.032,19.752L18.612,19.752L18.612,22.236L22.032,22.236L22.032,25.404L17.856,25.404L17.856,27.888L29.232,27.888L29.232,25.404L24.768,25.404L24.768,22.236L28.368,22.236L28.368,19.752L24.768,19.752L24.768,17.016L22.032,17.016ZM18.432,30.48L18.432,40.776L20.952,40.776L20.952,39.156L28.152,39.156L28.152,30.48L18.432,30.48ZM20.952,32.964L25.596,32.964L25.596,36.708L20.952,36.708L20.952,32.964ZM63.54,16.692L63.54,26.412L58.428,26.412L58.428,16.692L63.54,16.692ZM51.48,26.412L51.48,29.652L55.188,29.652C55.008,34.296,54.144,39.624,50.724,43.26C51.516,43.692,52.74,44.628,53.316,45.24C57.276,41.136,58.212,35.088,58.392,29.652L63.54,29.652L63.54,45.024L66.78,45.024L66.78,29.652L70.704,29.652L70.704,26.412L66.78,26.412L66.78,16.692L69.984,16.692L69.984,13.524L52.452,13.524L52.452,16.692L55.224,16.692L55.224,26.412L51.48,26.412ZM37.692,13.452L37.692,16.548L41.904,16.548C40.968,21.696,39.42,26.484,36.972,29.724C37.512,30.66,38.196,32.712,38.34,33.576C38.952,32.82,39.492,31.992,40.032,31.128L40.032,43.368L42.912,43.368L42.912,40.56L50.04,40.56L50.04,24.54L42.984,24.54C43.884,22.02,44.568,19.284,45.144,16.548L50.58,16.548L50.58,13.452L37.692,13.452ZM42.912,27.564L47.088,27.564L47.088,37.536L42.912,37.536L42.912,27.564ZM91.08,28.356C92.376,31.992,94.104,35.304,96.3,38.112C94.644,39.876,92.664,41.352,90.396,42.468L90.396,28.356L91.08,28.356ZM94.356,28.356L101.664,28.356C100.944,30.912,99.864,33.324,98.424,35.484C96.732,33.36,95.364,30.912,94.356,28.356ZM87.012,12.84L87.012,44.916L90.396,44.916L90.396,42.756C91.152,43.404,92.016,44.376,92.484,45.132C94.788,43.944,96.768,42.432,98.496,40.632C100.26,42.396,102.276,43.872,104.508,44.952C105.048,44.052,106.056,42.72,106.848,42.072C104.58,41.136,102.492,39.696,100.692,37.968C103.14,34.548,104.76,30.444,105.624,25.872L103.428,25.188L102.816,25.296L90.396,25.296L90.396,16.008L101.052,16.008C100.872,18.744,100.692,20.004,100.296,20.436C99.972,20.688,99.576,20.724,98.82,20.724C98.064,20.724,95.868,20.724,93.636,20.544C94.104,21.3,94.5,22.488,94.536,23.316C96.876,23.46,99.108,23.46,100.296,23.388C101.52,23.28,102.492,23.064,103.212,22.308C104.04,21.408,104.4,19.284,104.544,14.208C104.58,13.74,104.616,12.84,104.616,12.84L87.012,12.84ZM78.408,11.616L78.408,18.708L73.548,18.708L73.548,22.02L78.408,22.02L78.408,29.004L73.044,30.336L73.836,33.792L78.408,32.568L78.408,41.028C78.408,41.604,78.192,41.784,77.58,41.784C77.076,41.82,75.204,41.82,73.332,41.748C73.836,42.684,74.268,44.124,74.412,44.988C77.292,45.024,79.092,44.952,80.28,44.376C81.432,43.872,81.864,42.936,81.864,41.028L81.864,31.56L85.968,30.372L85.572,27.096L81.864,28.104L81.864,22.02L85.68,22.02L85.68,18.708L81.864,18.708L81.864,11.616L78.408,11.616ZM116.496,11.832C115.164,15.828,112.932,19.86,110.268,22.38C111.132,22.812,112.68,23.712,113.4,24.216C114.48,22.992,115.596,21.444,116.604,19.716L125.064,19.716L125.064,24.684L110.16,24.684L110.16,27.888L141.948,27.888L141.948,24.684L128.628,24.684L128.628,19.716L139.464,19.716L139.464,16.584L128.628,16.584L128.628,11.616L125.064,11.616L125.064,16.584L118.296,16.584C118.908,15.324,119.448,13.992,119.916,12.66L116.496,11.832ZM114.48,31.02L114.48,45.276L117.936,45.276L117.936,43.332L134.46,43.332L134.46,45.168L138.06,45.168L138.06,31.02L114.48,31.02ZM117.936,40.2L117.936,34.152L134.46,34.152L134.46,40.2L117.936,40.2Z" fill="#0C0E43" fill-opacity="1"/></g></g></svg>