<svg xmlns="http://www.w3.org/2000/svg" xmlns:xlink="http://www.w3.org/1999/xlink" fill="none" version="1.1" width="118" height="29" viewBox="1 9 118 29"><g><g><path d="M2.82,11.96C4.44,13.37,6.51,15.41,7.44,16.73L9.39,14.78C8.4,13.49,6.3,11.57,4.65,10.25L2.82,11.96ZM1.2,19.01L1.2,21.74L5.13,21.74L5.13,31.37C5.13,33.08,4.02,34.37,3.36,34.94C3.84,35.33,4.77,36.26,5.1,36.83C5.52,36.23,6.27,35.57,10.2,32.36C9.78,33.65,9.21,34.88,8.46,35.99C9.03,36.26,10.08,37.07,10.5,37.52C13.41,33.44,13.86,26.96,13.86,22.31L13.86,13.4L25.32,13.4L25.32,34.31C25.32,34.76,25.14,34.91,24.72,34.91C24.3,34.94,22.95,34.94,21.51,34.88C21.87,35.57,22.26,36.77,22.35,37.46C24.48,37.46,25.8,37.4,26.67,36.98C27.57,36.53,27.84,35.75,27.84,34.37L27.84,10.91L11.34,10.91L11.34,22.31C11.34,25.01,11.25,28.19,10.53,31.13C10.26,30.59,9.99,29.93,9.81,29.42L7.86,30.98L7.86,19.01L1.2,19.01ZM18.36,14.18L18.36,16.46L15.51,16.46L15.51,18.53L18.36,18.53L18.36,21.17L14.88,21.17L14.88,23.24L24.36,23.24L24.36,21.17L20.64,21.17L20.64,18.53L23.64,18.53L23.64,16.46L20.64,16.46L20.64,14.18L18.36,14.18ZM15.36,25.4L15.36,33.98L17.46,33.98L17.46,32.63L23.46,32.63L23.46,25.4L15.36,25.4ZM17.46,27.47L21.33,27.47L21.33,30.59L17.46,30.59L17.46,27.47ZM52.95,13.91L52.95,22.01L48.69,22.01L48.69,13.91L52.95,13.91ZM42.9,22.01L42.9,24.71L45.99,24.71C45.84,28.58,45.12,33.02,42.27,36.05C42.93,36.41,43.95,37.19,44.43,37.7C47.73,34.28,48.51,29.24,48.66,24.71L52.95,24.71L52.95,37.52L55.65,37.52L55.65,24.71L58.92,24.71L58.92,22.01L55.65,22.01L55.65,13.91L58.32,13.91L58.32,11.27L43.71,11.27L43.71,13.91L46.02,13.91L46.02,22.01L42.9,22.01ZM31.41,11.21L31.41,13.79L34.92,13.79C34.14,18.08,32.85,22.07,30.81,24.77C31.26,25.55,31.83,27.26,31.95,27.98C32.46,27.35,32.91,26.66,33.36,25.94L33.36,36.14L35.76,36.14L35.76,33.8L41.7,33.8L41.7,20.45L35.82,20.45C36.57,18.35,37.14,16.07,37.62,13.79L42.15,13.79L42.15,11.21L31.41,11.21ZM35.76,22.97L39.24,22.97L39.24,31.28L35.76,31.28L35.76,22.97ZM75.9,23.63C76.98,26.66,78.42,29.42,80.25,31.76C78.87,33.23,77.22,34.46,75.33,35.39L75.33,23.63L75.9,23.63ZM78.63,23.63L84.72,23.63C84.12,25.76,83.22,27.77,82.02,29.57C80.61,27.8,79.47,25.76,78.63,23.63ZM72.51,10.7L72.51,37.43L75.33,37.43L75.33,35.63C75.96,36.17,76.68,36.98,77.07,37.61C78.99,36.62,80.64,35.36,82.08,33.86C83.55,35.33,85.23,36.56,87.09,37.46C87.54,36.71,88.38,35.6,89.04,35.06C87.15,34.28,85.41,33.08,83.91,31.64C85.95,28.79,87.3,25.37,88.02,21.56L86.19,20.99L85.68,21.08L75.33,21.08L75.33,13.34L84.21,13.34C84.06,15.62,83.91,16.67,83.58,17.03C83.31,17.24,82.98,17.27,82.35,17.27C81.72,17.27,79.89,17.27,78.03,17.12C78.42,17.75,78.75,18.74,78.78,19.43C80.73,19.55,82.59,19.55,83.58,19.49C84.6,19.4,85.41,19.22,86.01,18.59C86.7,17.84,87,16.07,87.12,11.84C87.15,11.45,87.18,10.7,87.18,10.7L72.51,10.7ZM65.34,9.68L65.34,15.59L61.29,15.59L61.29,18.35L65.34,18.35L65.34,24.17L60.87,25.28L61.53,28.16L65.34,27.14L65.34,34.19C65.34,34.67,65.16,34.82,64.65,34.82C64.23,34.85,62.67,34.85,61.11,34.79C61.53,35.57,61.89,36.77,62.01,37.49C64.41,37.52,65.91,37.46,66.9,36.98C67.86,36.56,68.22,35.78,68.22,34.19L68.22,26.3L71.64,25.31L71.31,22.58L68.22,23.42L68.22,18.35L71.4,18.35L71.4,15.59L68.22,15.59L68.22,9.68L65.34,9.68ZM97.08,9.86C95.97,13.19,94.11,16.55,91.89,18.65C92.61,19.01,93.9,19.76,94.5,20.18C95.4,19.16,96.33,17.87,97.17,16.43L104.22,16.43L104.22,20.57L91.8,20.57L91.8,23.24L118.29,23.24L118.29,20.57L107.19,20.57L107.19,16.43L116.22,16.43L116.22,13.82L107.19,13.82L107.19,9.68L104.22,9.68L104.22,13.82L98.58,13.82C99.09,12.77,99.54,11.66,99.93,10.55L97.08,9.86ZM95.4,25.85L95.4,37.73L98.28,37.73L98.28,36.11L112.05,36.11L112.05,37.64L115.05,37.64L115.05,25.85L95.4,25.85ZM98.28,33.5L98.28,28.46L112.05,28.46L112.05,33.5L98.28,33.5Z" fill="#0C0E43" fill-opacity="1"/></g></g></svg>