<svg xmlns="http://www.w3.org/2000/svg" xmlns:xlink="http://www.w3.org/1999/xlink" fill="none" version="1.1" width="20" height="20" viewBox="0 0 20 20"><defs><linearGradient x1="0" y1="0" x2="0.7883071129538913" y2="1.183864859518704" id="master_svg0_55_17330"><stop offset="0%" stop-color="#FFDB25" stop-opacity="1"/><stop offset="100%" stop-color="#FFB625" stop-opacity="1"/></linearGradient></defs><g><g><g style="opacity:0;"><rect x="0" y="0" width="20" height="20" rx="0" fill="#D8D8D8" fill-opacity="1"/></g><g><path d="M5.83333,3.875L5.83333,6.625L14.1667,6.625L14.1667,3.875L15.5604,3.875C15.941,3.875,16.25,4.18094,16.25,4.55769L16.25,16.817C16.25,17.1938,15.9421,17.5,15.5615,17.5L4.438477,17.5C4.057921,17.5,3.75,17.1938,3.75,16.817L3.75,4.55769C3.75,4.18094,4.059028,3.875,4.439583,3.875L5.83333,3.875ZM7.91667,12.8125L6.52778,12.8125L6.52778,14.1875L7.91667,14.1875L7.91667,12.8125ZM7.91667,10.75L6.52778,10.75L6.52778,12.125L7.91667,12.125L7.91667,10.75ZM7.91667,8.6875L6.52778,8.6875L6.52778,10.0625L7.91667,10.0625L7.91667,8.6875ZM12.77778,2.5L12.77778,5.25L7.22222,5.25L7.22222,2.5L12.77778,2.5Z" fill="url(#master_svg0_55_17330)" fill-opacity="1" style="mix-blend-mode:passthrough"/></g></g></g></svg>