<svg xmlns="http://www.w3.org/2000/svg" xmlns:xlink="http://www.w3.org/1999/xlink" fill="none" version="1.1" width="20" height="20" viewBox="0 0 20 20"><defs><linearGradient x1="0" y1="0" x2="0.785993876893234" y2="1.20172316903322" id="master_svg0_55_17188"><stop offset="0%" stop-color="#20CFFF" stop-opacity="1"/><stop offset="100%" stop-color="#209AFF" stop-opacity="1"/></linearGradient></defs><g><g style="opacity:0;"><rect x="0" y="0" width="20" height="20" rx="0" fill="#D8D8D8" fill-opacity="1"/></g><g><path d="M16.25,14.5L5.83333,14.5C5.4498,14.5,5.13889,14.8358,5.13889,15.25C5.13889,15.6642,5.4498,16,5.83333,16L16.25,16L16.25,17.5L11.04167,17.5L5.83333,17.5C4.68274,17.5,3.75,16.4926,3.75,15.25L3.75,4C3.75,3.171573,4.371827,2.5,5.13889,2.5L16.25,2.5L16.25,14.5ZM12.77778,7.75L12.77778,6.25L7.22222,6.25L7.22222,7.75L12.77778,7.75Z" fill="url(#master_svg0_55_17188)" fill-opacity="1" style="mix-blend-mode:passthrough"/></g></g></svg>