<svg xmlns="http://www.w3.org/2000/svg" xmlns:xlink="http://www.w3.org/1999/xlink" fill="none" version="1.1" width="144" height="52" viewBox="0 0 144 52"><g><g><path d="M3.168,14.172C5.004,15.9,7.272,18.348,8.316,19.896L10.764,17.628C9.648,16.116,7.272,13.812,5.472,12.192L3.168,14.172ZM1.44,22.776L1.44,25.872L6.12,25.872L6.12,37.428C6.12,39.444,4.86,40.992,4.068,41.676C4.68,42.108,5.76,43.26,6.156,43.908C6.66,43.116,7.668,42.252,13.752,36.996C13.356,36.384,12.78,35.088,12.492,34.188L9.396,36.816L9.396,22.776L1.44,22.776ZM14.076,13.128L14.076,27.492L21.816,27.492L21.816,30.084L12.24,30.084L12.24,33.18L20.052,33.18C17.856,36.456,14.436,39.552,11.052,41.136C11.772,41.748,12.78,42.9,13.284,43.692C16.416,41.892,19.548,38.724,21.816,35.268L21.816,44.988L25.164,44.988L25.164,35.196C27.324,38.436,30.24,41.568,32.868,43.404C33.444,42.54,34.452,41.388,35.244,40.74C32.328,39.156,29.052,36.168,26.892,33.18L34.524,33.18L34.524,30.084L25.164,30.084L25.164,27.492L32.508,27.492L32.508,13.128L14.076,13.128ZM17.172,21.588L21.924,21.588L21.924,24.72L17.172,24.72L17.172,21.588ZM25.02,21.588L29.304,21.588L29.304,24.72L25.02,24.72L25.02,21.588ZM17.172,15.864L21.924,15.864L21.924,18.924L17.172,18.924L17.172,15.864ZM25.02,15.864L29.304,15.864L29.304,18.924L25.02,18.924L25.02,15.864ZM55.764,15.936L65.556,15.936L65.556,21.876L55.764,21.876L55.764,15.936ZM52.596,13.056L52.596,24.756L68.868,24.756L68.868,13.056L52.596,13.056ZM52.164,34.188L52.164,37.104L58.896,37.104L58.896,41.136L49.824,41.136L49.824,44.16L70.776,44.16L70.776,41.136L62.28,41.136L62.28,37.104L69.156,37.104L69.156,34.188L62.28,34.188L62.28,30.444L69.984,30.444L69.984,27.492L51.336,27.492L51.336,30.444L58.896,30.444L58.896,34.188L52.164,34.188ZM48.672,12.048C45.972,13.308,41.364,14.352,37.332,15C37.728,15.72,38.16,16.872,38.304,17.628C39.852,17.412,41.544,17.16,43.2,16.836L43.2,21.732L37.62,21.732L37.62,24.936L42.732,24.936C41.364,28.788,39.096,33.144,36.9,35.592C37.44,36.42,38.232,37.824,38.556,38.76C40.212,36.708,41.832,33.612,43.2,30.336L43.2,44.988L46.512,44.988L46.512,30.012C47.592,31.488,48.78,33.216,49.32,34.188L51.3,31.524C50.58,30.66,47.484,27.456,46.512,26.628L46.512,24.936L50.76,24.936L50.76,21.732L46.512,21.732L46.512,16.08C48.132,15.684,49.68,15.216,51.012,14.676L48.672,12.048ZM75.528,14.46C77.724,16.26,80.604,18.852,81.936,20.472L84.204,17.88C82.8,16.296,79.812,13.884,77.616,12.192L75.528,14.46ZM100.872,26.448C98.46,28.212,94.824,30.264,91.656,31.776L91.656,25.008L88.488,25.008C91.404,22.38,93.708,19.428,95.508,16.476C98.1,20.652,101.664,24.648,105.012,27.06C105.588,26.232,106.668,25.008,107.46,24.396C103.68,22.056,99.504,17.592,97.236,13.38L97.812,12.156L94.176,11.508C92.34,15.864,88.74,21.084,83.232,24.828C83.988,25.368,85.032,26.592,85.536,27.42C86.508,26.7,87.408,25.98,88.272,25.224L88.272,39.264C88.272,42.972,89.46,44.052,93.744,44.052C94.644,44.052,99.864,44.052,100.8,44.052C104.58,44.052,105.552,42.576,105.984,37.248C105.048,37.068,103.644,36.492,102.888,35.952C102.636,40.2,102.348,40.956,100.584,40.956C99.396,40.956,94.968,40.956,94.032,40.956C92.016,40.956,91.656,40.704,91.656,39.264L91.656,35.196C95.22,33.648,99.72,31.416,103.104,29.328L100.872,26.448ZM73.332,22.848L73.332,26.124L78.66,26.124L78.66,38.436C78.66,40.272,77.616,41.532,76.932,42.108C77.472,42.612,78.372,43.836,78.696,44.52C79.272,43.692,80.316,42.792,86.436,37.824C86.076,37.176,85.536,35.88,85.248,34.944L81.936,37.536L81.936,22.848L73.332,22.848ZM123.048,12.372C124.056,14.1,125.064,16.368,125.496,17.844L109.728,17.844L109.728,21.156L115.344,21.156C117.396,26.448,120.096,31.02,123.588,34.764C119.736,37.932,114.948,40.164,109.116,41.748C109.8,42.54,110.844,44.124,111.24,44.952C117.144,43.116,122.076,40.632,126.108,37.212C130.032,40.632,134.856,43.188,140.688,44.772C141.228,43.8,142.236,42.36,142.992,41.604C137.376,40.236,132.66,37.86,128.772,34.728C132.192,31.092,134.856,26.628,136.8,21.156L142.452,21.156L142.452,17.844L126.108,17.844L129.312,16.836C128.844,15.324,127.692,13.02,126.648,11.292L123.048,12.372ZM126.18,32.388C123.048,29.184,120.6,25.404,118.872,21.156L132.948,21.156C131.328,25.656,129.096,29.328,126.18,32.388Z" fill="#0C0E43" fill-opacity="1"/></g></g></svg>