<svg xmlns="http://www.w3.org/2000/svg" xmlns:xlink="http://www.w3.org/1999/xlink" fill="none" version="1.1" width="118" height="29" viewBox="1 9 118 29"><g><g><path d="M19.14,14.24L19.14,22.28L11.43,22.28L11.43,21.17L11.43,14.24L19.14,14.24ZM1.47,22.28L1.47,24.98L8.31,24.98C7.83,28.82,6.24,32.6,1.47,35.54C2.19,35.99,3.27,37.01,3.75,37.64C9.15,34.22,10.8,29.6,11.28,24.98L19.14,24.98L19.14,37.55L22.11,37.55L22.11,24.98L28.59,24.98L28.59,22.28L22.11,22.28L22.11,14.24L27.66,14.24L27.66,11.54L2.55,11.54L2.55,14.24L8.52,14.24L8.52,21.14L8.52,22.28L1.47,22.28ZM35.55,16.64L40.92,16.64L40.92,18.56L35.55,18.56L35.55,16.64ZM35.55,12.86L40.92,12.86L40.92,14.75L35.55,14.75L35.55,12.86ZM33,10.91L33,20.54L43.56,20.54L43.56,10.91L33,10.91ZM50.64,19.28C50.46,26.78,49.95,30.38,43.71,32.3C44.16,32.72,44.79,33.59,45.03,34.16C51.99,31.91,52.8,27.59,53.01,19.28L50.64,19.28ZM51.9,29.66C53.7,30.98,56.01,32.87,57.12,34.1L58.8,32.36C57.63,31.16,55.29,29.36,53.49,28.13L51.9,29.66ZM33.33,25.97C33.21,30.23,32.73,33.83,30.81,36.14C31.38,36.44,32.43,37.13,32.82,37.49C33.81,36.17,34.47,34.52,34.92,32.6C37.47,36.26,41.58,36.89,47.61,36.89L58.08,36.89C58.23,36.17,58.65,35.09,59.04,34.52C57,34.61,49.26,34.61,47.64,34.61C44.46,34.58,41.79,34.43,39.69,33.65L39.69,29.69L44.4,29.69L44.4,27.56L39.69,27.56L39.69,24.68L45,24.68L45,22.55L31.41,22.55L31.41,24.68L37.29,24.68L37.29,32.27C36.54,31.61,35.91,30.77,35.4,29.69C35.52,28.55,35.61,27.38,35.67,26.15L33.33,25.97ZM46.02,15.83L46.02,28.43L48.36,28.43L48.36,17.9L55.02,17.9L55.02,28.31L57.48,28.31L57.48,15.83L51.93,15.83L53.07,13.25L58.77,13.25L58.77,10.97L44.91,10.97L44.91,13.25L50.22,13.25C49.95,14.15,49.65,15.05,49.38,15.83L46.02,15.83ZM75.9,23.63C76.98,26.66,78.42,29.42,80.25,31.76C78.87,33.23,77.22,34.46,75.33,35.39L75.33,23.63L75.9,23.63ZM78.63,23.63L84.72,23.63C84.12,25.76,83.22,27.77,82.02,29.57C80.61,27.8,79.47,25.76,78.63,23.63ZM72.51,10.7L72.51,37.43L75.33,37.43L75.33,35.63C75.96,36.17,76.68,36.98,77.07,37.61C78.99,36.62,80.64,35.36,82.08,33.86C83.55,35.33,85.23,36.56,87.09,37.46C87.54,36.71,88.38,35.6,89.04,35.06C87.15,34.28,85.41,33.08,83.91,31.64C85.95,28.79,87.3,25.37,88.02,21.56L86.19,20.99L85.68,21.08L75.33,21.08L75.33,13.34L84.21,13.34C84.06,15.62,83.91,16.67,83.58,17.03C83.31,17.24,82.98,17.27,82.35,17.27C81.72,17.27,79.89,17.27,78.03,17.12C78.42,17.75,78.75,18.74,78.78,19.43C80.73,19.55,82.59,19.55,83.58,19.49C84.6,19.4,85.41,19.22,86.01,18.59C86.7,17.84,87,16.07,87.12,11.84C87.15,11.45,87.18,10.7,87.18,10.7L72.51,10.7ZM65.34,9.68L65.34,15.59L61.29,15.59L61.29,18.35L65.34,18.35L65.34,24.17L60.87,25.28L61.53,28.16L65.34,27.14L65.34,34.19C65.34,34.67,65.16,34.82,64.65,34.82C64.23,34.85,62.67,34.85,61.11,34.79C61.53,35.57,61.89,36.77,62.01,37.49C64.41,37.52,65.91,37.46,66.9,36.98C67.86,36.56,68.22,35.78,68.22,34.19L68.22,26.3L71.64,25.31L71.31,22.58L68.22,23.42L68.22,18.35L71.4,18.35L71.4,15.59L68.22,15.59L68.22,9.68L65.34,9.68ZM97.08,9.86C95.97,13.19,94.11,16.55,91.89,18.65C92.61,19.01,93.9,19.76,94.5,20.18C95.4,19.16,96.33,17.87,97.17,16.43L104.22,16.43L104.22,20.57L91.8,20.57L91.8,23.24L118.29,23.24L118.29,20.57L107.19,20.57L107.19,16.43L116.22,16.43L116.22,13.82L107.19,13.82L107.19,9.68L104.22,9.68L104.22,13.82L98.58,13.82C99.09,12.77,99.54,11.66,99.93,10.55L97.08,9.86ZM95.4,25.85L95.4,37.73L98.28,37.73L98.28,36.11L112.05,36.11L112.05,37.64L115.05,37.64L115.05,25.85L95.4,25.85ZM98.28,33.5L98.28,28.46L112.05,28.46L112.05,33.5L98.28,33.5Z" fill="#0C0E43" fill-opacity="1"/></g></g></svg>