<svg xmlns="http://www.w3.org/2000/svg" xmlns:xlink="http://www.w3.org/1999/xlink" fill="none" version="1.1" width="20" height="20" viewBox="0 0 20 20"><defs><linearGradient x1="1" y1="1.0275715589523315" x2="0" y2="-0.04238281399011612" id="master_svg0_55_23848"><stop offset="0%" stop-color="#4577FF" stop-opacity="1"/><stop offset="97.99996614456177%" stop-color="#849DEE" stop-opacity="1"/></linearGradient></defs><g><g><path d="M16.0667,10.875L15.1333,10.875L15.1333,4.75C15.1333,3.7875,14.2933,3,13.2667,3L6.7333300000000005,3C5.70667,3,4.86667,3.7875,4.86667,4.75L4.86667,10.875L3.933333,10.875C3.373333,10.875,3,11.225,3,11.75L3,16.125C3,16.65,3.373333,17,3.933333,17L16.0667,17C16.6267,17,17,16.65,17,16.125L17,11.75C17,11.225,16.6267,10.875,16.0667,10.875ZM7.66667,4.75L12.33333,4.75L12.33333,5.625L7.66667,5.625L7.66667,4.75ZM7.66667,7.375L12.33333,7.375L12.33333,8.25L7.66667,8.25L7.66667,7.375ZM12.33333,14.375L7.66667,14.375L7.66667,13.5L12.33333,13.5L12.33333,14.375ZM5.8,10.875L5.8,10L14.2,10L14.2,10.875L5.8,10.875Z" fill="url(#master_svg0_55_23848)" fill-opacity="1" style="mix-blend-mode:passthrough"/></g></g></svg>