<svg xmlns="http://www.w3.org/2000/svg" xmlns:xlink="http://www.w3.org/1999/xlink" fill="none" version="1.1" width="144" height="52" viewBox="0 0 144 52"><g><g><path d="M22.968,17.088L22.968,26.736L13.716,26.736L13.716,25.404L13.716,17.088L22.968,17.088ZM1.764,26.736L1.764,29.976L9.972,29.976C9.396,34.584,7.488,39.12,1.764,42.648C2.628,43.188,3.924,44.412,4.5,45.168C10.98,41.064,12.96,35.52,13.536,29.976L22.968,29.976L22.968,45.06L26.532,45.06L26.532,29.976L34.308,29.976L34.308,26.736L26.532,26.736L26.532,17.088L33.192,17.088L33.192,13.848L3.06,13.848L3.06,17.088L10.224,17.088L10.224,25.368L10.224,26.736L1.764,26.736ZM42.66,19.968L49.104,19.968L49.104,22.272L42.66,22.272L42.66,19.968ZM42.66,15.432L49.104,15.432L49.104,17.7L42.66,17.7L42.66,15.432ZM39.6,13.092L39.6,24.648L52.272,24.648L52.272,13.092L39.6,13.092ZM60.768,23.136C60.552,32.136,59.94,36.456,52.452,38.76C52.992,39.264,53.748,40.308,54.036,40.992C62.388,38.292,63.36,33.108,63.612,23.136L60.768,23.136ZM62.28,35.592C64.44,37.176,67.212,39.444,68.544,40.92L70.56,38.832C69.156,37.392,66.348,35.232,64.188,33.756L62.28,35.592ZM39.996,31.164C39.852,36.276,39.276,40.596,36.972,43.368C37.656,43.728,38.916,44.556,39.384,44.988C40.572,43.404,41.364,41.424,41.904,39.12C44.964,43.512,49.896,44.268,57.132,44.268L69.696,44.268C69.876,43.404,70.38,42.108,70.848,41.424C68.4,41.532,59.112,41.532,57.168,41.532C53.352,41.496,50.148,41.316,47.628,40.38L47.628,35.628L53.28,35.628L53.28,33.072L47.628,33.072L47.628,29.616L54,29.616L54,27.06L37.692,27.06L37.692,29.616L44.748,29.616L44.748,38.724C43.848,37.932,43.092,36.924,42.48,35.628C42.624,34.26,42.732,32.856,42.804,31.38L39.996,31.164ZM55.224,18.996L55.224,34.116L58.032,34.116L58.032,21.48L66.024,21.48L66.024,33.972L68.976,33.972L68.976,18.996L62.316,18.996L63.684,15.9L70.524,15.9L70.524,13.164L53.892,13.164L53.892,15.9L60.264,15.9C59.94,16.98,59.58,18.06,59.256,18.996L55.224,18.996ZM91.08,28.356C92.376,31.992,94.104,35.304,96.3,38.112C94.644,39.876,92.664,41.352,90.396,42.468L90.396,28.356L91.08,28.356ZM94.356,28.356L101.664,28.356C100.944,30.912,99.864,33.324,98.424,35.484C96.732,33.36,95.364,30.912,94.356,28.356ZM87.012,12.84L87.012,44.916L90.396,44.916L90.396,42.756C91.152,43.404,92.016,44.376,92.484,45.132C94.788,43.944,96.768,42.432,98.496,40.632C100.26,42.396,102.276,43.872,104.508,44.952C105.048,44.052,106.056,42.72,106.848,42.072C104.58,41.136,102.492,39.696,100.692,37.968C103.14,34.548,104.76,30.444,105.624,25.872L103.428,25.188L102.816,25.296L90.396,25.296L90.396,16.008L101.052,16.008C100.872,18.744,100.692,20.004,100.296,20.436C99.972,20.688,99.576,20.724,98.82,20.724C98.064,20.724,95.868,20.724,93.636,20.544C94.104,21.3,94.5,22.488,94.536,23.316C96.876,23.46,99.108,23.46,100.296,23.388C101.52,23.28,102.492,23.064,103.212,22.308C104.04,21.408,104.4,19.284,104.544,14.208C104.58,13.74,104.616,12.84,104.616,12.84L87.012,12.84ZM78.408,11.616L78.408,18.708L73.548,18.708L73.548,22.02L78.408,22.02L78.408,29.004L73.044,30.336L73.836,33.792L78.408,32.568L78.408,41.028C78.408,41.604,78.192,41.784,77.58,41.784C77.076,41.82,75.204,41.82,73.332,41.748C73.836,42.684,74.268,44.124,74.412,44.988C77.292,45.024,79.092,44.952,80.28,44.376C81.432,43.872,81.864,42.936,81.864,41.028L81.864,31.56L85.968,30.372L85.572,27.096L81.864,28.104L81.864,22.02L85.68,22.02L85.68,18.708L81.864,18.708L81.864,11.616L78.408,11.616ZM116.496,11.832C115.164,15.828,112.932,19.86,110.268,22.38C111.132,22.812,112.68,23.712,113.4,24.216C114.48,22.992,115.596,21.444,116.604,19.716L125.064,19.716L125.064,24.684L110.16,24.684L110.16,27.888L141.948,27.888L141.948,24.684L128.628,24.684L128.628,19.716L139.464,19.716L139.464,16.584L128.628,16.584L128.628,11.616L125.064,11.616L125.064,16.584L118.296,16.584C118.908,15.324,119.448,13.992,119.916,12.66L116.496,11.832ZM114.48,31.02L114.48,45.276L117.936,45.276L117.936,43.332L134.46,43.332L134.46,45.168L138.06,45.168L138.06,31.02L114.48,31.02ZM117.936,40.2L117.936,34.152L134.46,34.152L134.46,40.2L117.936,40.2Z" fill="#0C0E43" fill-opacity="1"/></g></g></svg>