<svg xmlns="http://www.w3.org/2000/svg" xmlns:xlink="http://www.w3.org/1999/xlink" fill="none" version="1.1" width="94" height="58" viewBox="0 0 94 58"><defs><clipPath id="master_svg0_66_13481"><rect x="0" y="0" width="94" height="58" rx="0"/></clipPath><linearGradient x1="0.0000075315147114451975" y1="0.5001527070999146" x2="1" y2="0.5001527070999146" id="master_svg1_36_06671"><stop offset="0%" stop-color="#0069FF" stop-opacity="1"/><stop offset="100%" stop-color="#3BBEFF" stop-opacity="1"/></linearGradient></defs><g clip-path="url(#master_svg0_66_13481)"><g><path d="M42.966124804687496,7.9995175390625C46.4923248046875,8.0005975390625,49.4830248046875,10.5715275390625,49.9881248046875,14.0359275390625L58.087524804687504,14.0359275390625C57.5384248046875,5.8943375390625,50.5518248046875,-0.3286174609375,42.339224804687504,0.0088289390625C34.1265548046875,0.3462825390625,27.6818788046875,7.1211275390625,27.8123621346875,15.2799275390625C27.9428458046875,23.4386275390625,34.6009148046875,30.0069275390625,42.8202248046875,30.0854275390625L49.9808248046875,30.0854275390625L49.9808248046875,22.0884275390625L42.9418248046875,22.0884275390625C39.073824804687504,22.0111275390625,35.9807548046875,18.8727275390625,35.9873748046875,15.0321275390625C35.9940048046875,11.1915275390625,39.0979248046875,8.0636875390625,42.966124804687496,7.9995175390625Z" fill="url(#master_svg1_36_06671)" fill-opacity="1" style="mix-blend-mode:passthrough"/></g><g><path d="M58.0728759765625,22.0906982421875L66.1917959765625,22.0906982421875L66.1917959765625,24.9881582421875C66.1864459765625,27.8046282421875,63.8871159765625,30.0861282421875,61.0499759765625,30.0901182421875L58.0728759765625,30.0901182421875L58.0728759765625,22.0906982421875Z" fill="#0096FF" fill-opacity="1" style="mix-blend-mode:passthrough"/></g><g><path d="M10.899,41.4337620821875C11.6822,41.4337620821875,12.1395,41.8104319921875,12.2659,42.5613619921875L14.6715,57.1283419921875L12.0349,57.1283419921875L11.3392,52.589041992187504L4.54348,52.589041992187504L2.71442,57.1283419921875L0,57.1283419921875L6.05879,42.3995839921875C6.27585,41.7855629921875,6.87869,41.3905523921875,7.53275,41.4337620821875L10.899,41.4337620821875ZM8.14081,43.7324119921875L5.46531,50.2903419921875L10.9768,50.2903419921875L9.96745,43.7324119921875L8.14081,43.7324119921875Z" fill="#272E38" fill-opacity="1" style="mix-blend-mode:passthrough"/></g><g><path d="M16.373798515625,41.4337158203125L18.857138515625,41.4337158203125L16.911328515625,57.1283158203125L14.427978515625,57.1283158203125L16.373798515625,41.4337158203125Z" fill="#272E38" fill-opacity="1" style="mix-blend-mode:passthrough"/></g><g><path d="M29.76856015625,40.1008712996875L29.09726015625,44.4639679296875L36.60816015625,44.4639679296875L36.33326015625,46.5042679296875L29.20186015625,46.5042679296875C29.865260156250002,48.6040879296875,30.84966015625,50.5902279296875,32.12056015625,52.3933279296875Q33.65776015625,54.5664279296875,36.476760156249995,57.0510279296875L34.18316015625,57.9710279296875C32.88486015625,56.7900279296875,31.726860156249998,55.4654279296875,30.731760156249997,54.0232279296875C29.55526015625,52.4041279296875,28.60686015625,50.6332279296875,27.912770156249998,48.7594679296875C26.23844015625,52.4832279296875,23.54091015625,55.6632279296875,20.12950015625,57.9347279296875L18.07666015625,56.9544279296875C20.13051015625,55.6126279296875,21.96057015625,53.9604279296875,23.50062015625,52.0577279296875Q25.706690156249998,49.2810079296875,26.44610015625,46.5042679296875L19.48251015625,46.5042679296875L19.69168015625,44.4567279296875L26.83284015625,44.4567279296875L27.54793015625,40.0936279296875L29.76856015625,40.1008712996875Z" fill="#272E38" fill-opacity="1" style="mix-blend-mode:passthrough"/></g><g><path d="M38.994159140625,41.979527421875L40.939979140625,41.979527421875L39.723849140625,52.299307421875L37.765869140625,52.299307421875L38.994159140625,41.979527421875ZM43.496299140625,48.370847421875C43.256059140625,50.190107421875,42.833169140625,51.980907421875,42.233949140625,53.716707421875C41.717379140625,55.231507421875,40.987779140625,56.666207421875,40.066799140625,57.978407421875005L38.152599140625,57.413307421875004Q40.908359140625,53.550107421875,41.582099140625,48.329807421875L42.518519140625,39.985107421875L44.464339140625,39.985107421875L43.496299140625,48.370847421875ZM55.993269140625,40.830194421875L55.803569140625,42.730447421875L51.595769140625,42.730447421875L51.301469140625,45.070147421875L53.490469140625,45.070147421875C53.988069140625,45.033847421875,54.479869140625,45.195407421875004,54.857469140625,45.519247421875Q55.321969140625,45.968347421875,55.236869140625004,46.844837421875L54.395269140625004,53.675607421875C54.354069140625,54.090307421874996,54.163169140625,54.476207421875,53.857769140624995,54.762107421875C53.549769140625,55.019607421875,53.155769140625,55.153107421875,52.753469140625,55.136407421875C52.394169140624996,55.131807421874996,52.035669140625004,55.101107421875,51.680869140625,55.044607421875C51.334769140625,54.998807421875,50.995669140625,54.910407421875,50.671469140625,54.781407421875L50.817369140625004,52.944007421875C51.239369140625,53.090407421875,51.676769140625,53.188407421875,52.121069140624996,53.236107421875L52.206269140625,53.236107421875C52.278369140625,53.241107421875,52.349669140625,53.218707421874996,52.405669140625,53.173407421875C52.470269140625,53.105107421875,52.517069140625,53.022207421875,52.541869140624996,52.931907421874996L53.291069140625,46.987317421875L51.060669140625,46.987317421875L49.713169140625,57.867307421875L47.694419140625,57.867307421875L49.041869140624996,46.987317421875L47.020659140625,46.987317421875L46.011259140625,55.049507421875L44.033819140625,55.049507421875L45.074839140625,46.762767421875C45.107349140625,46.297007421875,45.308669140625,45.858707421874996,45.641569140625,45.528927421875C45.991949140624996,45.213857421875,46.453539140625,45.048977421875,46.925809140625,45.070157421875L49.282669140625,45.070157421875L49.576969140624996,42.730457421875L45.128349140625,42.730457421875L45.337519140625,40.830201421875L55.993269140625,40.830194421875Z" fill="#272E38" fill-opacity="1" style="mix-blend-mode:passthrough"/></g><g><path d="M68.796755078125,51.9200248046875L68.607055078125,53.6102248046875L56.866455078125,53.6102248046875L57.097524078125,51.9200248046875L68.796755078125,51.9200248046875ZM72.666455078125,40.7479248046875C73.325655078125,40.7479248046875,73.799955078125,40.8541658046875,74.086955078125,41.0714738046875C74.395355078125,41.3325298046875,74.55675507812501,41.7259858046875,74.519855078125,42.1266348046875C74.514655078125,42.2883048046875,74.500055078125,42.4495448046875,74.476155078125,42.6095448046875L74.203755078125,45.2003548046875L72.141155078125,45.2003548046875L72.415955078125,42.5902248046875L60.106245078125,42.5902248046875L59.792485078125,45.2848548046875L57.688564078125,45.2848548046875L58.002325078125,42.4646648046875C58.087445078125,41.8513648046875,58.277165078125,41.4143298046875,58.571475078125,41.1487268046875C58.865785078125,40.8831248046875,59.327915078125,40.7527365246875,59.960315078125,40.7527365246875L72.666455078125,40.7479248046875ZM71.552555078125,46.5959748046875L62.737965078125,46.5959748046875L62.251505078125,48.3706648046875L70.81315507812499,48.3706648046875Q71.786055078125,48.3706648046875,72.211655078125,48.6845548046875C72.498655078125,48.8922048046875,72.644655078125,49.2616348046875,72.644655078125,49.790424804687504C72.64665507812501,49.9227648046875,72.63935507812499,50.0550948046875,72.622755078125,50.1864148046875Q72.493755078125,51.6496248046875,72.265155078125,53.342224804687504Q72.097355078125,54.6123248046875,71.822455078125,55.998224804687496C71.696055078125,56.667124804687504,71.447955078125,57.1355248046875,71.075755078125,57.408324804687496C70.703655078125,57.6812248046875,70.168555078125,57.787424804687504,69.468055078125,57.7319248046875C67.895955078125,57.5814248046875,66.335285078125,57.3305248046875,64.795665078125,56.9810248046875L65.026735078125,55.0493248046875Q67.512555078125,55.5926248046875,69.234555078125,55.8027248046875C69.296955078125,55.8158248046875,69.360555078125,55.8223248046875,69.424255078125,55.8220248046875C69.521855078125,55.8331248046875,69.619055078125,55.798324804687496,69.686955078125,55.7278248046875C69.753755078125,55.6168248046875,69.793655078125,55.4921248046875,69.803755078125,55.3632248046875Q70.13935507812499,53.3785248046875,70.496955078125,50.1405548046875L61.580195078125,50.1405548046875C61.163445078125,50.1715748046875,60.746625078125,50.0809448046875,60.381095078125,49.8797748046875C60.119785078125,49.6888448046875,59.976315078125,49.3775148046875,60.001655078125,49.0564248046875C59.999665078125,48.815874804687496,60.034935078125,48.5764548046875,60.106245078125,48.3465448046875L61.495075078125,43.3653048046875L63.620875078124996,43.3653048046875L63.200095078125,44.9106248046875L71.761655078125,44.9106248046875L71.552555078125,46.5959748046875Z" fill="#0096FF" fill-opacity="1" style="mix-blend-mode:passthrough"/></g><g><path d="M83.186263359375,40.0791475671875L81.104243359375,43.4402138671875L79.370033359375,57.9975138671875L77.285573359375,57.9975138671875L78.591703359375,47.3058938671875L77.348813359375,49.0805838671875L74.991943359375,49.0805838671875C77.156863359375,46.2147238671875,79.124963359375,43.2074538671875,80.882893359375,40.0791254671875L83.186263359375,40.0791475671875ZM93.790943359375,44.3818838671875L88.277043359375,44.3818838671875L87.919443359375,47.2624438671875L93.075843359375,47.2624438671875L92.832643359375,49.1433738671875L87.724943359375,49.1433738671875L87.389243359375,51.8791138671875L92.669743359375,51.8791138671875L92.380243359375,53.7479138671875L87.153343359375,53.7479138671875L86.666843359375,57.9975138671875L84.543483359375,57.9975138671875L86.180343359375,44.3818838671875L85.611243359375,44.3818838671875Q85.124743359375,45.3621938671875,84.526433359375,46.4390938671875Q83.928093359375,47.5159838671875,83.738383359375,47.8685038671875L83.465973359375,48.3514138671875L81.145583359375,48.3514138671875Q82.514953359375,46.1179538671875,83.524353359375,44.246673867187496Q84.575093359375,42.3150238671875,85.584443359375,40.0067138671875L87.732143359375,40.0067138671875L87.153343359375,41.2284738671875L86.586543359375,42.4188438671875L93.990443359375,42.4188438671875L93.790943359375,44.3818838671875Z" fill="#0096FF" fill-opacity="1" style="mix-blend-mode:passthrough"/></g></g></svg>