<svg xmlns="http://www.w3.org/2000/svg" xmlns:xlink="http://www.w3.org/1999/xlink" fill="none" version="1.1" width="55.57460403442383" height="24" viewBox="0 0 55.57460403442383 24"><g><g><path d="M52.54085049266517,23.317164735126497L8.580630492665172,23.317164735126497C7.6015704926651715,23.317464735126496,6.682540492665171,22.846864735126495,6.112730492665172,22.053364735126497L0.5851844926651716,14.338064735126496C-0.1435845073348284,13.326464735126496,-0.17456350733482837,11.972864735126496,0.5071524926651716,10.929164735126495L6.138750492665172,2.2967847351264954C6.698180492665172,1.4392607351264952,7.655090492665171,0.9221922921264953,8.681420492665172,0.9228647351264954L52.54085049266517,0.9228647351264954C54.21635049266517,0.9228449574264954,55.574550492665175,2.2764347351264953,55.574550492665175,3.9461447351264956L55.574550492665175,20.297164735126497C55.57275049266517,21.965564735126495,54.21505049266517,23.317164735126497,52.54085049266517,23.317164735126497Z" fill="#231815" fill-opacity="1" style="mix-blend-mode:passthrough"/></g><g><g><path d="M9.770431148986816,17.842613351440427L9.770431148986816,16.07961335144043Q13.371441148986817,16.281613351440427,16.174051148986816,16.731313351440427L17.151701148986817,14.77606335144043L10.141941148986817,14.77606335144043L11.201061148986817,11.84311335144043L8.486451148986816,11.84311335144043L8.486451148986816,10.09963335144043L11.816971148986816,10.09963335144043L12.273211148986817,8.84498335144043L9.099113148986817,8.84498335144043L9.099113148986817,7.10150335144043L12.889141148986816,7.10150335144043L13.289971148986815,6.00001335144043L15.206171148986815,6.00001335144043L14.805341148986816,7.10150335144043L20.736451148986816,7.10150335144043L20.736451148986816,8.84498335144043L14.192671148986816,8.84498335144043L13.736431148986817,10.09963335144043L21.36215114898682,10.09963335144043L21.36215114898682,11.84311335144043L13.117261148986817,11.84311335144043L12.687091148986816,13.04562335144043L19.960851148986816,13.04562335144043L17.946861148986816,17.031213351440428Q19.09075114898682,17.25931335144043,20.06185114898682,17.50371335144043L20.06185114898682,19.260213351440427C16.684061148986814,18.462713351440428,13.238101148986816,17.98801335144043,9.770431148986816,17.842613351440427Z" fill="#FFFFFF" fill-opacity="1" style="mix-blend-mode:passthrough"/></g><g><path d="M22.632935523986816,17.05725319519043L26.576115523986815,17.05725319519043L26.576115523986815,6.11085319519043L28.404315523986817,6.11085319519043L28.404315523986817,17.05725319519043L30.033735523986817,17.05725319519043L30.033735523986817,6.11085319519043L31.861935523986816,6.11085319519043L31.861935523986816,17.05725319519043L35.792135523986815,17.05725319519043L35.792135523986815,18.89855319519043L22.632935523986816,18.89855319519043L22.632935523986816,17.05725319519043ZM24.760965523986815,7.466533195190429L25.904795523986817,15.10197319519043L24.047255523986816,15.10197319519043L22.903404523986815,7.45675319519043L24.760965523986815,7.466533195190429ZM33.65103552398682,7.466533195190429L35.50863552398682,7.466533195190429L34.364735523986816,15.10197319519043L32.507195523986816,15.10197319519043L33.65103552398682,7.466533195190429Z" fill="#FFFFFF" fill-opacity="1" style="mix-blend-mode:passthrough"/></g><g><path d="M46.42553989898681,15.75381382019043L44.698359898986816,11.76500382019043L44.698359898986816,12.69377382019043C44.70364989898682,13.810543820190428,44.624129898986816,14.92609382019043,44.46047989898682,16.030823820190427C44.302089898986814,17.08299382019043,44.04681989898682,18.11829382019043,43.69789989898682,19.12349382019043L40.35434989898682,19.12349382019043L40.35434989898682,14.56108382019043L39.19420989898681,14.56108382019043C39.141659898986816,16.09589382019043,38.95078989898682,17.622893820190427,38.62390989898682,19.12349382019043L36.779419898986816,19.12349382019043C37.054323898986816,18.17259382019043,37.24837489898682,17.200093820190432,37.359501898986814,16.21659382019043C37.46549789898682,15.17499382019043,37.51554189898682,14.12849382019043,37.509415898986816,13.08157382019043L37.509415898986816,6.46940082019043L39.22356989898682,6.46940082019043L39.22356989898682,9.584843820190429L40.03826989898682,9.584843820190429L40.03826989898682,6.254315820190429L41.69702989898681,6.254315820190429L41.69702989898681,9.584843820190429L42.440049898986814,9.584843820190429L42.440049898986814,11.41304382019043L39.223589898986816,11.41304382019043L39.223589898986816,12.71658382019043L42.039219898986815,12.71658382019043L42.039219898986815,18.46189382019043C42.39316989898681,17.59619382019043,42.64788989898682,16.69319382019043,42.79853989898682,15.77010382019043C42.94794989898681,14.74504382019043,43.018759898986815,13.710063820190431,43.010369898986816,12.67421382019043L43.010369898986816,6.36837682019043Q46.77105989898682,6.36837682019043,49.928819898986816,6.04249382019043L49.928819898986816,7.802263820190429Q47.81391989898682,8.03363382019043,44.71472989898682,8.10208382019043L44.71472989898682,10.015013820190429L50.11461989898682,10.015013820190429C49.756019898986814,11.83917382019043,49.20991989898682,13.621443820190429,48.48521989898681,15.33343382019043L50.22871989898682,19.10389382019043L48.37111989898682,19.10389382019043L47.54341989898681,17.31809382019043C47.216419898986814,17.93109382019043,46.85861989898682,18.52719382019043,46.47124989898681,19.10389382019043L44.32692989898682,19.10389382019043C45.11197989898682,18.04309382019043,45.813639898986814,16.92309382019043,46.42553989898681,15.75381382019043ZM47.354319898986816,13.75288382019043Q47.80071989898681,12.63836382019043,48.05491989898682,11.75196382019043L46.526569898986814,11.75196382019043L47.354319898986816,13.75288382019043Z" fill="#FFFFFF" fill-opacity="1" style="mix-blend-mode:passthrough"/></g></g></g></svg>