<svg xmlns="http://www.w3.org/2000/svg" xmlns:xlink="http://www.w3.org/1999/xlink" fill="none" version="1.1" width="60" height="26" viewBox="0 -1 60 26"><defs><clipPath id="master_svg0_79_23877"><rect x="0" y="0" width="60" height="24.260473251342773" rx="0"/></clipPath></defs><g clip-path="url(#master_svg0_79_23877)"><g><path d="M56.7248560546875,24.264L9.2640460546875,24.264C8.2073060546875,24.2632,7.2156060546875,23.7536,6.5996360546875,22.8949L0.6319290546875,14.5366C-0.1554719453125,13.4396,-0.1889179453125,11.9719,0.5476820546875,10.8402L6.6277260546875,1.49193C7.2313360546875,0.562086,8.2643160546875,0.000685628,9.3728660546875,0L56.7248560546875,0C58.5350560546875,0.0000107129,60.0020560546875,1.46851,60.0000560546875,3.27873L60.0000560546875,20.9853C60.0020560546875,22.7955,58.5350560546875,24.264,56.7248560546875,24.264Z" fill="#231815" fill-opacity="1" style="mix-blend-mode:passthrough"/></g><g><path d="M10.81913515625,18.110270666503908L10.81913515625,16.211070666503907Q14.69814515625,16.428770666503908,17.71711515625,16.913170666503905L18.77023515625,14.806920666503906L11.21933515625,14.806920666503906L12.36021515625,11.647550666503907L9.43603515625,11.647550666503907L9.43603515625,9.769480666503906L13.02366515625,9.769480666503906L13.51513515625,8.417970666503907L10.09599515625,8.417970666503907L10.09599515625,6.539890666503906L14.17860515625,6.539890666503906L14.61038515625,5.353370666503906L16.67450515625,5.353370666503906L16.24273515625,6.539890666503906L22.631735156250002,6.539890666503906L22.631735156250002,8.417970666503907L15.582775156250001,8.417970666503907L15.09130515625,9.769480666503906L23.30573515625,9.769480666503906L23.30573515625,11.647550666503907L14.42434515625,11.647550666503907L13.960965156250001,12.942890666503907L21.79623515625,12.942890666503907L19.62673515625,17.236170666503906Q20.85893515625,17.48187066650391,21.90503515625,17.745170666503906L21.90503515625,19.637270666503905C18.266495156250002,18.778170666503904,14.55450515625,18.266870666503905,10.81913515625,18.110270666503908Z" fill="#FFFFFF" fill-opacity="1" style="mix-blend-mode:passthrough"/></g><g><path d="M24.6746826171875,17.264236358642577L28.9222726171875,17.264236358642577L28.9222726171875,5.472736358642578L30.891612617187498,5.472736358642578L30.891612617187498,17.264236358642577L32.646822617187496,17.264236358642577L32.646822617187496,5.472736358642578L34.6161526171875,5.472736358642578L34.6161526171875,17.264236358642577L38.8496826171875,17.264236358642577L38.8496826171875,19.24763635864258L24.6746826171875,19.24763635864258L24.6746826171875,17.264236358642577ZM26.9669926171875,6.933066358642578L28.1991326171875,15.157966358642579L26.1981926171875,15.157966358642579L24.9660316171875,6.922536358642578L26.9669926171875,6.933066358642578ZM36.543382617187504,6.933066358642578L38.5443826171875,6.933066358642578L37.3121826171875,15.157966358642579L35.3112826171875,15.157966358642579L36.543382617187504,6.933066358642578Z" fill="#FFFFFF" fill-opacity="1" style="mix-blend-mode:passthrough"/></g><g><path d="M50.3042521484375,15.860017333984375L48.4437321484375,11.563307333984376L48.4437321484375,12.563777333984376C48.4494321484375,13.766747333984375,48.3637721484375,14.968417333984375,48.187482148437496,16.158417333984374C48.0168621484375,17.291817333984376,47.7418821484375,18.407017333984374,47.3660321484375,19.489817333984377L43.7643621484375,19.489817333984377L43.7643621484375,14.575237333984376L42.5146621484375,14.575237333984376C42.4580521484375,16.228617333984374,42.2524521484375,17.873417333984374,41.9003421484375,19.489817333984377L39.9134521484375,19.489817333984377C40.2095791484375,18.465517333984373,40.4186101484375,17.418017333984373,40.5383161484375,16.358517333984373C40.6524951484375,15.236547333984374,40.7064021484375,14.109257333984376,40.6998031484375,12.981507333984375L40.6998031484375,5.858880333984375L42.5462821484375,5.858880333984375L42.5462821484375,9.214837333984375L43.4238921484375,9.214837333984375L43.4238921484375,5.627192333984375L45.2107021484375,5.627192333984375L45.2107021484375,9.214837333984375L46.0110821484375,9.214837333984375L46.0110821484375,11.184177333984376L42.5463021484375,11.184177333984376L42.5463021484375,12.588337333984375L45.5793121484375,12.588337333984375L45.5793121484375,18.777217333984375C45.9605821484375,17.844617333984374,46.2349621484375,16.871917333984374,46.3972421484375,15.877617333984375C46.5581921484375,14.773407333984375,46.6344721484375,13.658517333984374,46.6254221484375,12.542697333984375L46.6254221484375,5.750058333984375Q50.6764521484375,5.750058333984375,54.0780521484375,5.399017333984375L54.0780521484375,7.294637333984375Q51.7997521484375,7.5438773339843745,48.4613621484375,7.617597333984375L48.4613621484375,9.678217333984374L54.2781521484375,9.678217333984374C53.8918521484375,11.643197333984375,53.3036521484375,13.563057333984375,52.5229521484375,15.407217333984375L54.4009521484375,19.468717333984372L52.400052148437496,19.468717333984372L51.5084521484375,17.545017333984376C51.1562521484375,18.205417333984375,50.7707521484375,18.847517333984374,50.3534521484375,19.468717333984372L48.0436221484375,19.468717333984372C48.8892821484375,18.326117333984374,49.6451021484375,17.119617333984372,50.3042521484375,15.860017333984375ZM51.3047521484375,13.704647333984376Q51.7856521484375,12.504077333984375,52.0594521484375,11.549247333984376L50.4130521484375,11.549247333984376L51.3047521484375,13.704647333984376Z" fill="#FFFFFF" fill-opacity="1" style="mix-blend-mode:passthrough"/></g></g></svg>