<svg xmlns="http://www.w3.org/2000/svg" xmlns:xlink="http://www.w3.org/1999/xlink" fill="none" version="1.1" width="60" height="26" viewBox="0 0 60 26"><g><g><path d="M56.724722265625,25.2605L9.263962265625,25.2605C8.206942265625,25.2608,7.214732265625,24.751,6.599552265625,23.8914L0.631844265625,15.5331C-0.154955734375,14.4373,-0.188401734375,12.9708,0.547598265625,11.8402L6.627642265625,2.48841C7.231612265625,1.559429,8.264722265625,0.999271521,9.372782265625,1L56.724722265625,1C58.533622265625,0.9999785741,60.000022265625,2.46636,60.000022265625,4.27522L60.000022265625,21.9888C59.998022265625,23.7963,58.532222265625,25.2605,56.724722265625,25.2605Z" fill="#231815" fill-opacity="1" style="mix-blend-mode:passthrough"/></g><g><path d="M9.73438340625,15.515619744415282Q9.89586940625,13.321609744415284,9.89586940625,10.748469744415283L11.528221406250001,10.748469744415283Q11.528221406250001,13.412879744415283,11.41237140625,15.529649744415282C11.337961406249999,16.922199744415284,11.17144140625,18.308399744415283,10.91390140625,19.678999744415282L9.15869140625,19.678999744415282C9.43954140625,18.304899744415284,9.63183840625,16.91429974441528,9.73438340625,15.515619744415282ZM21.05899140625,18.61529974441528Q20.62719140625,19.668399744415282,20.209491406250002,20.479299744415282L17.94876140625,20.479299744415282C18.61307140625,19.35049974441528,19.19949140625,18.177699744415285,19.703991406249997,16.968899744415282L17.82590140625,15.491039744415284C17.59142140625,17.20989974441528,17.13597140625,18.89119974441528,16.47089140625,20.493399744415285L14.28386140625,20.493399744415285C14.95473140625,19.177899744415285,15.44365140625,17.77729974441528,15.73718140625,16.33003974441528C16.02748140625,14.851239744415283,16.16977140625,13.347209744415284,16.16195140625,11.840219744415283L16.16195140625,8.649249744415282L15.347531406249999,8.649249744415282L15.347531406249999,10.127139744415283L13.974971406249999,10.127139744415283L13.974971406249999,11.910439744415283L15.347531406249999,12.759949744415284L15.347531406249999,15.083839744415283L13.974971406249999,14.234329744415284L13.974971406249999,20.479299744415282L12.00563140625,20.479299744415282L12.00563140625,10.120109744415283L9.45004040625,10.120109744415283L9.45004040625,8.210449744415284L11.83712140625,8.210449744415284L11.83712140625,6.542999744415283L13.86964140625,6.542999744415283L13.86964140625,8.206929744415284L15.193071406249999,8.206929744415284L15.193071406249999,6.774677744415283L22.182291406250002,6.774677744415283L21.36439140625,10.439549744415283L23.305591406250002,10.439549744415283Q23.042391406249997,12.514199744415283,22.691291406250002,14.100909744415283C22.484191406249998,15.017119744415282,22.227891406250002,15.954419744415283,21.91899140625,16.909199744415282L23.582991406250002,18.232699744415285L23.582991406250002,20.619799744415282L21.05899140625,18.61529974441528ZM20.53239140625,15.199689744415283C20.82219140625,14.243949744415282,21.05659140625,13.272289744415282,21.23449140625,12.289569744415283L19.07910140625,12.289569744415283L19.87239140625,8.649249744415282L18.040011406250002,8.649249744415282L18.040011406250002,11.833199744415282C18.040011406250002,12.152639744415282,18.040011406250002,12.609009744415284,18.008411406249998,13.205759744415282L20.53239140625,15.199689744415283Z" fill="#FFFFFF" fill-opacity="1" style="mix-blend-mode:passthrough"/></g><g><path d="M38.835725585937496,18.401168798828124L38.835725585937496,20.324868798828128L31.2953555859375,20.324868798828128C30.4878955859375,20.336468798828125,29.6809755859375,20.277768798828127,28.8837055859375,20.149368798828124C28.2813955859375,20.042768798828124,27.6982055859375,19.847568798828124,27.1530655859375,19.570168798828124L26.8897855859375,20.479368798828126L24.7519375859375,20.479368798828126C25.2089945859375,19.264068798828127,25.5716255859375,18.015368798828124,25.8366655859375,16.744268798828124C26.0767655859375,15.513598798828125,26.2187955859375,14.265818798828125,26.261435585937498,13.012688798828126L24.5062255859375,13.012688798828126L24.5062255859375,11.011748798828126L28.2307655859375,11.011748798828126Q28.2307655859375,12.967048798828124,28.0938555859375,14.522158798828125C28.0018755859375,15.569558798828124,27.8471355859375,16.610468798828123,27.6304855859375,17.639368798828123C28.1178155859375,17.911968798828127,28.6449555859375,18.106268798828125,29.1926155859375,18.215168798828124C29.8867955859375,18.346168798828124,30.5925255859375,18.406168798828126,31.2988655859375,18.394168798828126L38.835725585937496,18.401168798828124ZM27.2302855859375,6.623749798828125L28.2834155859375,9.965668798828125L26.2052555859375,9.965668798828125L25.1521295859375,6.623749798828125L27.2302855859375,6.623749798828125ZM29.6314255859375,14.381758798828125L31.4954555859375,14.381758798828125C31.399955585937498,15.528228798828126,31.1028655859375,16.648868798828126,30.617845585937502,17.692068798828124L28.5712655859375,17.692068798828124C29.1617055859375,16.679568798828125,29.5212955859375,15.549248798828126,29.6243955859375,14.381758798828125L29.6314255859375,14.381758798828125ZM28.8170055859375,7.0871047988281255L32.7837655859375,7.0871047988281255L32.7837655859375,6.469268798828125L34.7531255859375,6.469268798828125L34.7531255859375,7.0871047988281255L38.5549255859375,7.0871047988281255L38.5549255859375,8.870398798828125L34.7426255859375,8.870398798828125L34.7426255859375,9.702368798828125L38.2354255859375,9.702368798828125L38.2354255859375,14.030718798828126L34.7250255859375,14.030718798828126L34.7250255859375,17.800868798828127L32.8153655859375,17.800868798828127L32.8153655859375,14.030718798828126L29.2733555859375,14.030718798828126L29.2733555859375,9.702368798828125L32.7837655859375,9.702368798828125L32.7837655859375,8.870398798828125L28.8170055859375,8.870398798828125L28.8170055859375,7.0871047988281255ZM32.8013155859375,12.398368798828125L32.8013155859375,11.345238798828124L31.154925585937498,11.345238798828124L31.154925585937498,12.398368798828125L32.8013155859375,12.398368798828125ZM36.3573255859375,12.398368798828125L36.3573255859375,11.345238798828124L34.7110255859375,11.345238798828124L34.7110255859375,12.398368798828125L36.3573255859375,12.398368798828125ZM37.8844255859375,14.381758798828125C37.9953255859375,15.550628798828125,38.3620255859375,16.680768798828126,38.9585255859375,17.692068798828124L36.8979255859375,17.692068798828124C36.4113255859375,16.649468798828124,36.1141255859375,15.528508798828126,36.0203255859375,14.381758798828125L37.8844255859375,14.381758798828125Z" fill="#FFFFFF" fill-opacity="1" style="mix-blend-mode:passthrough"/></g><g><path d="M50.3042521484375,16.846068847656248L48.4437321484375,12.55282884765625L48.4437321484375,13.56382884765625C48.4491721484375,14.76680884765625,48.3635121484375,15.96845884765625,48.187482148437496,17.158468847656252C48.0163721484375,18.29176884765625,47.7413921484375,19.406968847656252,47.3660321484375,20.48986884765625L43.7643621484375,20.48986884765625L43.7643621484375,15.57528884765625L42.5146621484375,15.57528884765625C42.4578421484375,17.22856884765625,42.2522321484375,18.873468847656248,41.9003321484375,20.48986884765625L39.9134521484375,20.48986884765625C40.2092791484375,19.46426884765625,40.4183101484375,18.41566884765625,40.5383161484375,17.35506884765625C40.6525801484375,16.23310884765625,40.7064881484375,15.10580884765625,40.6998031484375,13.97805884765625L40.6998031484375,6.85543184765625L42.5462821484375,6.85543184765625L42.5462821484375,10.21138884765625L43.4238921484375,10.21138884765625L43.4238921484375,6.62373284765625L45.2107021484375,6.62373284765625L45.2107021484375,10.21136884765625L46.0110821484375,10.21136884765625L46.0110821484375,12.18070884765625L42.5463021484375,12.18070884765625L42.5463021484375,13.58486884765625L45.5793121484375,13.58486884765625L45.5793121484375,19.77376884765625C45.9605221484375,18.83996884765625,46.2349021484375,17.86606884765625,46.3972421484375,16.87056884765625C46.5582121484375,15.76760884765625,46.6344921484375,14.65388884765625,46.6254221484375,13.53922884765625L46.6254221484375,6.74660984765625Q50.6764521484375,6.74660984765625,54.0780521484375,6.39556884765625L54.0780521484375,8.29820884765625Q51.7997521484375,8.54745884765625,48.4613621484375,8.62115884765625L48.4613621484375,10.685288847656249L54.2781521484375,10.685288847656249C53.8912521484375,12.64898884765625,53.3030521484375,14.56760884765625,52.5229521484375,16.41076884765625L54.4009521484375,20.47586884765625L52.400052148437496,20.47586884765625L51.5084521484375,18.552168847656247C51.1573521484375,19.25416884765625,50.753652148437496,19.87906884765625,50.3534521484375,20.47586884765625L48.0436221484375,20.47586884765625C48.8893021484375,19.32576884765625,49.645082148437496,18.11226884765625,50.3042521484375,16.846068847656248ZM51.3047521484375,14.69065884765625Q51.7856521484375,13.490098847656249,52.0594521484375,12.53525884765625L50.4130521484375,12.53525884765625L51.3047521484375,14.69065884765625Z" fill="#FFFFFF" fill-opacity="1" style="mix-blend-mode:passthrough"/></g></g></svg>