<svg xmlns="http://www.w3.org/2000/svg" xmlns:xlink="http://www.w3.org/1999/xlink" fill="none" version="1.1" width="140" height="52" viewBox="0 0 140 52"><g><g><path d="M17.424,20.076C14.328,24.288,8.1,27.924,1.26,30.156C1.944,30.768,2.952,32.136,3.384,32.892C5.976,31.956,8.46,30.876,10.728,29.616L10.728,30.984L25.452,30.984L25.452,29.184C27.864,30.444,30.384,31.596,32.796,32.424C33.336,31.524,34.416,30.12,35.172,29.436C29.664,27.888,23.256,24.864,19.764,22.344L20.52,21.372L17.424,20.076ZM13.176,28.14C14.904,26.988,16.488,25.764,17.892,24.396C19.404,25.584,21.384,26.88,23.58,28.14L13.176,28.14ZM7.452,33.468L7.452,45.06L10.728,45.06L10.728,43.728L25.308,43.728L25.308,44.916L28.692,44.916L28.692,33.468L7.452,33.468ZM10.728,40.776L10.728,36.42L25.308,36.42L25.308,40.776L10.728,40.776ZM6.912,11.4C5.652,14.784,3.528,18.24,1.116,20.364C1.944,20.832,3.348,21.732,3.996,22.272C5.184,21.012,6.408,19.392,7.488,17.592L8.82,17.592C9.684,19.104,10.548,20.904,10.944,22.092L13.968,21.084C13.644,20.148,12.996,18.816,12.276,17.592L17.604,17.592L17.604,14.712L9.072,14.712C9.468,13.92,9.828,13.092,10.152,12.264L6.912,11.4ZM21.312,11.4C20.484,14.28,18.936,17.124,17.064,18.924C17.82,19.356,19.224,20.292,19.836,20.796C20.628,19.932,21.42,18.852,22.14,17.664L24.12,17.664C25.2,19.104,26.28,20.868,26.712,22.092L29.88,20.94C29.484,20.004,28.728,18.816,27.9,17.664L34.02,17.664L34.02,14.784L23.58,14.784C23.94,13.92,24.3,13.056,24.552,12.156L21.312,11.4ZM50.4,14.064C51.84,16.116,53.532,18.852,54.216,20.58L56.88,18.78C56.088,17.124,54.36,14.46,52.884,12.516L50.4,14.064ZM59.472,20.004C60.156,21.876,60.588,24.36,60.66,25.98L63.216,25.368C63.108,23.784,62.604,21.336,61.884,19.464L59.472,20.004ZM49.644,22.92L49.644,26.196L52.668,26.196L52.668,37.788C52.668,39.444,51.624,40.74,50.94,41.244C51.48,41.856,52.416,43.152,52.74,43.908C53.208,43.224,54.108,42.468,59.184,38.292C58.788,37.68,58.248,36.42,57.996,35.52L55.656,37.392L55.656,22.92L49.644,22.92ZM40.644,12.804C41.184,13.848,41.724,15.108,42.192,16.26L37.836,16.26L37.836,19.104L49.248,19.104L49.248,16.26L45.504,16.26C45,14.928,44.208,13.236,43.452,11.904L40.644,12.804ZM37.908,32.532L37.908,35.376L41.76,35.376C41.508,37.968,40.644,40.92,37.728,42.828C38.412,43.368,39.384,44.412,39.816,45.06C43.38,42.54,44.568,38.76,44.892,35.376L49.176,35.376L49.176,32.532L45,32.532L45,28.752L49.464,28.752L49.464,25.908L46.692,25.908C47.268,24.216,47.88,21.984,48.456,20.004L45.684,19.392C45.432,21.3,44.748,24.036,44.172,25.908L40.176,25.908L42.624,25.368C42.552,23.784,42.048,21.336,41.364,19.464L38.952,19.968C39.6,21.84,39.996,24.324,39.996,25.908L37.476,25.908L37.476,28.752L41.868,28.752L41.868,32.532L37.908,32.532ZM61.56,12.552C62.136,13.668,62.748,15,63.216,16.224L58.428,16.224L58.428,19.068L70.056,19.068L70.056,16.224L66.492,16.224C65.988,14.82,65.124,13.056,64.332,11.652L61.56,12.552ZM58.5,33.396L58.5,36.276L62.784,36.276L62.784,45.024L65.952,45.024L65.952,36.276L70.128,36.276L70.128,33.396L65.952,33.396L65.952,28.824L70.596,28.824L70.596,26.016L67.572,26.016C68.22,24.216,68.868,21.876,69.48,19.86L66.672,19.248C66.348,21.228,65.664,24.036,65.052,26.016L57.996,26.016L57.996,28.824L62.784,28.824L62.784,33.396L58.5,33.396ZM75.492,42L79.668,42L79.668,31.956L83.664,31.956C89.424,31.956,93.672,29.292,93.672,23.532C93.672,17.52,89.424,15.468,83.52,15.468L75.492,15.468L75.492,42ZM79.668,28.572L79.668,18.852L83.124,18.852C87.336,18.852,89.532,20.004,89.532,23.532C89.532,26.952,87.48,28.572,83.304,28.572L79.668,28.572ZM98.82,42L102.996,42L102.996,31.956L106.992,31.956C112.752,31.956,117,29.292,117,23.532C117,17.52,112.752,15.468,106.848,15.468L98.82,15.468L98.82,42ZM102.996,28.572L102.996,18.852L106.452,18.852C110.664,18.852,112.86,20.004,112.86,23.532C112.86,26.952,110.808,28.572,106.632,28.572L102.996,28.572ZM126.648,42L130.896,42L130.896,18.996L138.672,18.996L138.672,15.468L118.908,15.468L118.908,18.996L126.648,18.996L126.648,42Z" fill="#0C0E43" fill-opacity="1"/></g></g></svg>