<svg xmlns="http://www.w3.org/2000/svg" xmlns:xlink="http://www.w3.org/1999/xlink" fill="none" version="1.1" width="34" height="16" viewBox="0 0.5 34 16"><defs><linearGradient x1="0" y1="0.5" x2="0.9583517907435157" y2="0.6163842813256188" id="master_svg0_344_44126"><stop offset="0%" stop-color="#FF6868" stop-opacity="1"/><stop offset="100%" stop-color="#FF3628" stop-opacity="1"/></linearGradient></defs><g><g><path d="M0.662499,7.44C0.257161,8.08854,0.257161,8.91146,0.662499,9.56L4.4125,15.56C4.77798,16.1448,5.41892,16.5,6.1085,16.5L32,16.5C33.1046,16.5,34,15.6046,34,14.5L34,2.5C34,1.3954309999999999,33.1046,0.5,32,0.5L6.1085,0.5C5.41892,0.5,4.77798,0.8552390000000001,4.4125,1.440002L0.662499,7.44Z" fill="url(#master_svg0_344_44126)" fill-opacity="1"/></g><g><path d="M11.64648,7.28809Q12.88672,5.78418,13.85352,3.66504L14.58594,3.90918Q14.214839999999999,4.68555,13.80469,5.40332L18.6875,5.40332L18.6875,6.06738L16.26562,6.06738L16.26562,7.58105L18.55078,7.58105L18.55078,8.24512L16.26562,8.24512L16.26562,9.75879L18.55078,9.75879L18.55078,10.4229L16.26562,10.4229L16.26562,11.9658L18.84375,11.9658L18.84375,12.6104L13.49219,12.6104L13.49219,13.3428L12.75,13.3428L12.75,7.07812Q12.47656,7.46387,12.19336,7.83496Q12.01758,7.62012,11.64648,7.28809ZM9.136719,8.90918Q9.791016,8.75781,10.39648,8.60156L10.39648,6.2334L9.205078,6.2334L9.205078,5.5498L10.39648,5.5498L10.39648,3.69434L11.12891,3.69434L11.12891,5.5498L12.26172,5.5498L12.26172,6.2334L11.12891,6.2334L11.12891,8.41113Q11.72461,8.25,12.26172,8.08887Q12.28125,8.53809,12.33008,8.85059Q11.7002,9.02637,11.12891,9.19238L11.12891,12.1514Q11.12891,13.1475,10.35742,13.1963Q9.869141,13.2256,9.361328,13.2158Q9.322266,12.8252,9.244141,12.4053Q9.732422,12.4443,10.02539,12.4443Q10.39648,12.4443,10.39648,12.0635L10.39648,9.40234Q9.78125,9.58301,9.234375,9.74902L9.136719,8.90918ZM13.49219,11.9658L15.52344,11.9658L15.52344,10.4229L13.49219,10.4229L13.49219,11.9658ZM13.49219,9.75879L15.52344,9.75879L15.52344,8.24512L13.49219,8.24512L13.49219,9.75879ZM13.49219,7.58105L15.52344,7.58105L15.52344,6.06738L13.49219,6.06738L13.49219,7.58105ZM15.2793,4.0752L15.89453,3.69434Q16.37305,4.30957,16.77344,4.90527L16.09961,5.3252Q15.73828,4.71973,15.2793,4.0752ZM19.4197,6.46777L22.090600000000002,6.46777Q22.2078,6.24805,22.3201,6.01855L23.0916,6.01855Q22.979300000000002,6.24805,22.867,6.46777L28.5798,6.46777L28.5798,7.15137L22.5056,7.15137Q22.139400000000002,7.80566,21.7439,8.38184L21.7439,13.2354L21.0017,13.2354L21.0017,9.37305Q20.3279,10.1885,19.5857,10.8135Q19.322,10.4229,19.1267,10.1592Q20.6209,8.95312,21.7048,7.15137L19.4197,7.15137L19.4197,6.46777ZM22.4666,10.0811L25.406,10.0811L25.406,9.60254L26.8318,8.68457L22.9939,8.68457L22.9939,8.02051L28.0427,8.02051L28.0427,8.68457L26.1482,9.88574L26.1482,10.0811L28.7166,10.0811L28.7166,10.7646L26.1482,10.7646L26.1482,12.0635Q26.1482,13.2158,25.0837,13.2158Q24.4685,13.2158,23.3845,13.2061Q23.3357,12.835,23.2576,12.415Q24.156,12.4932,24.8982,12.4932Q25.406,12.4932,25.406,11.9463L25.406,10.7646L22.4666,10.7646L22.4666,10.0811ZM19.400199999999998,4.59277L21.9783,4.59277L21.9783,3.72363L22.7205,3.72363L22.7205,4.59277L25.4353,4.59277L25.4353,3.71387L26.1775,3.71387L26.1775,4.59277L28.7166,4.59277L28.7166,5.27637L26.1775,5.27637L26.1775,5.98926L25.4353,5.98926L25.4353,5.27637L22.7205,5.27637L22.7205,5.88184L21.9783,5.88184L21.9783,5.27637L19.400199999999998,5.27637L19.400199999999998,4.59277Z" fill="#FFFFFF" fill-opacity="1"/></g></g></svg>