<svg xmlns="http://www.w3.org/2000/svg" xmlns:xlink="http://www.w3.org/1999/xlink" fill="none" version="1.1" width="144" height="52" viewBox="0 0 144 52"><g><g><path d="M6.012,36.888C4.968,39.192,3.096,41.532,1.152,43.08C1.944,43.548,3.276,44.484,3.888,45.06C5.832,43.296,7.956,40.488,9.252,37.788L6.012,36.888ZM11.268,38.22C12.672,39.912,14.364,42.252,15.048,43.728L17.82,42.108C17.028,40.632,15.3,38.4,13.896,36.78L11.268,38.22ZM30.24,16.404L30.24,21.516L23.832,21.516L23.832,16.404L30.24,16.404ZM20.628,13.308L20.628,26.448C20.628,31.632,20.412,38.472,17.496,43.224C18.252,43.548,19.656,44.556,20.232,45.168C22.284,41.82,23.22,37.248,23.58,32.928L30.24,32.928L30.24,40.956C30.24,41.532,30.06,41.676,29.52,41.712C29.016,41.712,27.216,41.748,25.452,41.676C25.92,42.54,26.352,44.016,26.46,44.916C29.16,44.952,30.924,44.88,32.04,44.304C33.156,43.764,33.552,42.792,33.552,40.992L33.552,13.308L20.628,13.308ZM30.24,24.54L30.24,29.868L23.76,29.868L23.832,26.448L23.832,24.54L30.24,24.54ZM13.392,12.012L13.392,16.152L7.74,16.152L7.74,12.012L4.644,12.012L4.644,16.152L1.692,16.152L1.692,19.14L4.644,19.14L4.644,33.324L1.26,33.324L1.26,36.312L19.008,36.312L19.008,33.324L16.56,33.324L16.56,19.14L19.116,19.14L19.116,16.152L16.56,16.152L16.56,12.012L13.392,12.012ZM7.74,19.14L13.392,19.14L13.392,21.876L7.74,21.876L7.74,19.14ZM7.74,24.54L13.392,24.54L13.392,27.528L7.74,27.528L7.74,24.54ZM7.74,30.228L13.392,30.228L13.392,33.324L7.74,33.324L7.74,30.228ZM57.744,15.828L57.744,36.06L61.164,36.06L61.164,15.828L57.744,15.828ZM65.592,12.264L65.592,40.524C65.592,41.244,65.34,41.46,64.584,41.496C63.792,41.496,61.38,41.532,58.788,41.424C59.328,42.432,59.904,44.052,60.084,45.024C63.504,45.06,65.808,44.952,67.212,44.376C68.58,43.8,69.084,42.792,69.084,40.524L69.084,12.264L65.592,12.264ZM37.332,25.62L37.332,29.04L44.604,29.04L44.604,44.988L48.096,44.988L48.096,29.04L55.512,29.04L55.512,25.62L48.096,25.62L48.096,17.052L54.468,17.052L54.468,13.74L38.268,13.74L38.268,17.052L44.604,17.052L44.604,25.62L37.332,25.62ZM75.528,14.46C77.724,16.26,80.604,18.852,81.936,20.472L84.204,17.88C82.8,16.296,79.812,13.884,77.616,12.192L75.528,14.46ZM100.872,26.448C98.46,28.212,94.824,30.264,91.656,31.776L91.656,25.008L88.488,25.008C91.404,22.38,93.708,19.428,95.508,16.476C98.1,20.652,101.664,24.648,105.012,27.06C105.588,26.232,106.668,25.008,107.46,24.396C103.68,22.056,99.504,17.592,97.236,13.38L97.812,12.156L94.176,11.508C92.34,15.864,88.74,21.084,83.232,24.828C83.988,25.368,85.032,26.592,85.536,27.42C86.508,26.7,87.408,25.98,88.272,25.224L88.272,39.264C88.272,42.972,89.46,44.052,93.744,44.052C94.644,44.052,99.864,44.052,100.8,44.052C104.58,44.052,105.552,42.576,105.984,37.248C105.048,37.068,103.644,36.492,102.888,35.952C102.636,40.2,102.348,40.956,100.584,40.956C99.396,40.956,94.968,40.956,94.032,40.956C92.016,40.956,91.656,40.704,91.656,39.264L91.656,35.196C95.22,33.648,99.72,31.416,103.104,29.328L100.872,26.448ZM73.332,22.848L73.332,26.124L78.66,26.124L78.66,38.436C78.66,40.272,77.616,41.532,76.932,42.108C77.472,42.612,78.372,43.836,78.696,44.52C79.272,43.692,80.316,42.792,86.436,37.824C86.076,37.176,85.536,35.88,85.248,34.944L81.936,37.536L81.936,22.848L73.332,22.848ZM123.048,12.372C124.056,14.1,125.064,16.368,125.496,17.844L109.728,17.844L109.728,21.156L115.344,21.156C117.396,26.448,120.096,31.02,123.588,34.764C119.736,37.932,114.948,40.164,109.116,41.748C109.8,42.54,110.844,44.124,111.24,44.952C117.144,43.116,122.076,40.632,126.108,37.212C130.032,40.632,134.856,43.188,140.688,44.772C141.228,43.8,142.236,42.36,142.992,41.604C137.376,40.236,132.66,37.86,128.772,34.728C132.192,31.092,134.856,26.628,136.8,21.156L142.452,21.156L142.452,17.844L126.108,17.844L129.312,16.836C128.844,15.324,127.692,13.02,126.648,11.292L123.048,12.372ZM126.18,32.388C123.048,29.184,120.6,25.404,118.872,21.156L132.948,21.156C131.328,25.656,129.096,29.328,126.18,32.388Z" fill="#0C0E43" fill-opacity="1"/></g></g></svg>