<svg xmlns="http://www.w3.org/2000/svg" xmlns:xlink="http://www.w3.org/1999/xlink" fill="none" version="1.1" width="20" height="20" viewBox="0 0 20 20"><defs><linearGradient x1="0.5" y1="0" x2="0.5" y2="1" id="master_svg0_55_17910"><stop offset="0%" stop-color="#9F82FF" stop-opacity="1"/><stop offset="100%" stop-color="#8664FF" stop-opacity="1"/></linearGradient></defs><g><g style="opacity:0;"><rect x="0" y="0" width="20" height="20" rx="0" fill="#D8D8D8" fill-opacity="1"/></g><g><path d="M15.5556,17.5L6.18056,17.5C4.8382000000000005,17.5,3.750000165568,16.3247,3.75,14.875L3.75,4.75C3.75,3.5073600000000003,4.68274,2.5,5.83333,2.5L15.5556,2.5C15.9391,2.5,16.25,2.835786,16.25,3.25L16.25,16.75C16.25,17.1642,15.9391,17.5,15.5556,17.5ZM14.8611,16L14.8611,13.75L6.18056,13.75C5.6052599999999995,13.75,5.13889,14.2537,5.13889,14.875C5.13889,15.4963,5.6052599999999995,16,6.18056,16L14.8611,16ZM8.61111,4L8.61111,10L11.04167,8.5L13.47222,10L13.47222,4L8.61111,4Z" fill="url(#master_svg0_55_17910)" fill-opacity="1" style="mix-blend-mode:passthrough"/></g></g></svg>