<svg xmlns="http://www.w3.org/2000/svg" xmlns:xlink="http://www.w3.org/1999/xlink" fill="none" version="1.1" width="20" height="20" viewBox="0 0 20 20"><defs><linearGradient x1="0.5" y1="0" x2="0.5" y2="1" id="master_svg0_55_17910"><stop offset="0%" stop-color="#9F82FF" stop-opacity="1"/><stop offset="100%" stop-color="#8664FF" stop-opacity="1"/></linearGradient></defs><g><g><path d="M16.2222,18L5.72222,18C4.21878,18,3.000000185437,16.7464,3,15.2L3,4.4C3,3.0745199999999997,4.04467,2,5.33333,2L16.2222,2C16.6518,2,17,2.358172,17,2.8L17,17.2C17,17.6418,16.6518,18,16.2222,18ZM15.4444,16.4L15.4444,14L5.72222,14C5.07789,14,4.55556,14.5373,4.55556,15.2C4.55556,15.8627,5.07789,16.4,5.72222,16.4L15.4444,16.4ZM8.44444,3.6L8.44444,10L11.16667,8.4L13.8889,10L13.8889,3.6L8.44444,3.6Z" fill="url(#master_svg0_55_17910)" fill-opacity="1" style="mix-blend-mode:passthrough"/></g></g></svg>