<svg xmlns="http://www.w3.org/2000/svg" xmlns:xlink="http://www.w3.org/1999/xlink" fill="none" version="1.1" width="108" height="52" viewBox="0 0 108 52"><g><g><path d="M12.6,40.452L12.6,43.692L34.128,43.692L34.128,40.452L24.948,40.452L24.948,30.156L34.632,30.156L34.632,26.844L24.948,26.844L24.948,17.376C28.044,16.764,30.996,16.044,33.444,15.216L30.924,12.336C26.46,13.956,18.9,15.36,12.312,16.224C12.672,17.016,13.176,18.276,13.32,19.14C15.948,18.816,18.72,18.456,21.492,17.988L21.492,26.844L11.16,26.844L11.16,30.156L21.492,30.156L21.492,40.452L12.6,40.452ZM10.152,11.652C8.028,17.196,4.428,22.596,0.648,26.052C1.296,26.88,2.34,28.716,2.7,29.544C3.96,28.32,5.22,26.88,6.408,25.296L6.408,44.988L9.756,44.988L9.756,20.292C11.196,17.88,12.492,15.288,13.5,12.732L10.152,11.652ZM51.624,28.32C51.48,29.544,51.264,30.66,50.976,31.668L40.392,31.668L40.392,34.62L49.824,34.62C47.7,38.724,43.884,40.956,37.944,42.108C38.556,42.792,39.564,44.232,39.888,44.988C46.764,43.224,51.12,40.236,53.496,34.62L63.9,34.62C63.324,38.76,62.64,40.812,61.812,41.424C61.38,41.748,60.948,41.784,60.156,41.784C59.22,41.784,56.772,41.748,54.432,41.532C55.008,42.36,55.476,43.62,55.512,44.52C57.78,44.664,59.976,44.664,61.2,44.592C62.64,44.52,63.612,44.304,64.512,43.476C65.808,42.324,66.636,39.516,67.464,33.108C67.536,32.64,67.608,31.668,67.608,31.668L54.504,31.668C54.756,30.696,54.972,29.688,55.152,28.608L51.624,28.32ZM62.244,18.06C60.156,19.968,57.384,21.48,54.18,22.74C51.516,21.624,49.356,20.22,47.844,18.456L48.24,18.06L62.244,18.06ZM49.428,11.58C47.556,14.676,44.1,18.168,38.988,20.652C39.672,21.192,40.608,22.452,41.04,23.244C42.732,22.344,44.244,21.336,45.612,20.292C46.944,21.732,48.528,22.992,50.328,24.036C46.296,25.188,41.904,25.908,37.62,26.304C38.124,27.096,38.7,28.428,38.952,29.292C44.136,28.68,49.428,27.6,54.18,25.872C58.356,27.492,63.324,28.428,68.868,28.86C69.264,27.96,70.056,26.592,70.776,25.836C66.204,25.584,61.956,25.044,58.32,24.108C62.208,22.164,65.484,19.644,67.644,16.404L65.556,15.036L65.016,15.18L50.904,15.18C51.66,14.244,52.308,13.236,52.92,12.264L49.428,11.58ZM97.344,14.784C99.684,16.296,102.852,18.528,104.328,19.968L106.452,17.376C104.868,16.008,101.628,13.884,99.324,12.516L97.344,14.784ZM76.284,17.808L76.284,21.084L86.544,21.084L86.544,27.528L74.124,27.528L74.124,30.732L86.544,30.732L86.544,44.952L90.036,44.952L90.036,30.732L102.528,30.732C102.168,35.412,101.7,37.572,101.016,38.184C100.584,38.544,100.188,38.58,99.432,38.58C98.532,38.58,96.228,38.544,93.996,38.328C94.608,39.228,95.076,40.632,95.148,41.604C97.38,41.676,99.54,41.712,100.728,41.64C102.132,41.532,103.032,41.28,103.896,40.344C105.012,39.228,105.588,36.204,106.128,28.968C106.2,28.5,106.272,27.528,106.272,27.528L101.016,27.528L101.016,17.808L90.036,17.808L90.036,11.724L86.544,11.724L86.544,17.808L76.284,17.808ZM90.036,27.528L90.036,21.084L97.632,21.084L97.632,27.528L90.036,27.528Z" fill="#0C0E43" fill-opacity="1"/></g></g></svg>