<svg xmlns="http://www.w3.org/2000/svg" xmlns:xlink="http://www.w3.org/1999/xlink" fill="none" version="1.1" width="20" height="20" viewBox="0 0 20 20"><defs><linearGradient x1="0.8930989503860474" y1="1" x2="0" y2="0" id="master_svg0_55_15928"><stop offset="0%" stop-color="#FF9625" stop-opacity="1"/><stop offset="100%" stop-color="#FFBE25" stop-opacity="1"/></linearGradient></defs><g><g style="opacity:0;"><rect x="0" y="0" width="20" height="20" rx="0" fill="#D8D8D8" fill-opacity="1"/></g><g><path d="M15.1288,2.5C15.5388,2.5,15.8716,2.836,15.8716,3.25L15.8716,6.06775L9.18656,12.8177L9.1821,15.9963L12.33632,16.000700000000002L15.8716,12.4315L15.8716,16.75C15.8716,17.164,15.5388,17.5,15.1288,17.5L3.242869,17.5C2.832805,17.5,2.5,17.164,2.5,16.75L2.5,3.25C2.5,2.836,2.832805,2.5,3.242869,2.5L15.1288,2.5ZM16.4496,7.606L17.5,8.6665L11.72197,14.5L10.67007,14.4985L10.67155,13.4395L16.4496,7.606ZM9.18582,10L5.47147,10L5.47147,11.5L9.18582,11.5L9.18582,10ZM11.41442,7L5.47147,7L5.47147,8.5L11.41442,8.5L11.41442,7Z" fill="url(#master_svg0_55_15928)" fill-opacity="1" style="mix-blend-mode:passthrough"/></g></g></svg>