<svg xmlns="http://www.w3.org/2000/svg" xmlns:xlink="http://www.w3.org/1999/xlink" fill="none" version="1.1" width="126" height="34" viewBox="42 11 126 34"><g><g><path d="M51.917996,42.504002C57.713997,42.504002,61.241997,39.012001,61.241997,34.764C61.241997,30.875999,59.009996,28.931999,55.841997,27.6L52.205996999999996,26.052002C50.0819969,25.152,47.957996800000004,24.324001,47.957996800000004,22.02C47.957996800000004,19.968,49.685997,18.636002,52.385997,18.636002C54.725997,18.636002,56.597995999999995,19.536001,58.253996,21.012001L60.377995999999996,18.348001C58.433996,16.296001,55.517997,15.000002,52.385997,15.000002C47.309997100000004,15.000002,43.6739972,18.132002,43.6739972,22.308001C43.6739972,26.196001,46.481997,28.176001,49.0739965,29.256001L52.745996,30.84C55.193996,31.92,56.957996,32.676003,56.957996,35.088001C56.957996,37.32,55.193996,38.832001,52.025997000000004,38.832001C49.4339972,38.832001,46.8419971,37.571999,44.9339972,35.700001L42.4859972,38.580002C44.8979969,41.028,48.2819972,42.504002,51.917996,42.504002ZM76.577995,42.504002C80.033997,42.504002,82.697994,41.136002,84.85799399999999,38.652L82.589996,35.987999C81.00599700000001,37.716,79.169994,38.832001,76.75799599999999,38.832001C72.077995,38.832001,69.089996,34.944,69.089996,28.68C69.089996,22.452002,72.293995,18.636002,76.865997,18.636002C78.989998,18.636002,80.645996,19.644001,82.049995,21.012001L84.281998,18.348001C82.66199499999999,16.584002,80.069996,15.000002,76.793995,15.000002C70.061996,15.000002,64.769997,20.184,64.769997,28.788C64.769997,37.5,69.917995,42.504002,76.577995,42.504002ZM89.501995,42L93.677994,42L93.677994,15.468L89.501995,15.468L89.501995,42ZM99.54599400000001,14.604002C101.669994,15.648001,104.26199299999999,17.304001,105.449997,18.528002L107.465996,15.828001C106.169998,14.604002,103.577995,13.056002,101.489994,12.156002L99.54599400000001,14.604002ZM98.285995,24.108002C100.373993,24.972,102.893993,26.484001,104.117996,27.6L106.061996,24.864C104.801994,23.748001,102.245995,22.380001,100.193996,21.588001L98.285995,24.108002ZM98.89799500000001,42.683998L101.99399600000001,44.484001C103.50599700000001,41.063999,105.233994,36.743999,106.529999,32.928001L103.75799599999999,31.164001C102.317993,35.268002,100.33799400000001,39.911999,98.89799500000001,42.683998ZM107.321991,19.176001L107.321991,44.771999L110.381996,44.771999L110.381996,19.176001L107.321991,19.176001ZM108.077995,13.056002C109.661995,14.748001,111.497993,17.124001,112.289993,18.672001L114.773994,16.872002C113.945992,15.288002,112.037994,13.02,110.417992,11.436001L108.077995,13.056002ZM112.037994,36.888L112.037994,39.804001L125.717995,39.804001L125.717995,36.888L120.533997,36.888L120.533997,31.271999L124.745995,31.271999L124.745995,28.356001L120.533997,28.356001L120.533997,23.316L125.357994,23.316L125.357994,20.400002L112.505997,20.400002L112.505997,23.316L117.437996,23.316L117.437996,28.356001L112.973991,28.356001L112.973991,31.271999L117.437996,31.271999L117.437996,36.888L112.037994,36.888ZM115.637993,13.164001L115.637993,16.332001L127.51799,16.332001L127.51799,40.740002C127.51799,41.424,127.301994,41.675999,126.653992,41.675999C125.969994,41.712002,123.665993,41.712002,121.397995,41.604C121.865997,42.504002,122.333992,44.015999,122.513992,44.952C125.609993,44.952,127.661995,44.880001,128.921997,44.34C130.145996,43.799999,130.577995,42.827999,130.577995,40.812L130.577995,13.164001L115.637993,13.164001ZM149.838,24.756001L149.838,30.192001L142.20598999999999,30.192001L142.20598999999999,24.756001L149.838,24.756001ZM153.186,24.756001L160.88999,24.756001L160.88999,30.192001L153.186,30.192001L153.186,24.756001ZM154.19398999999999,17.628C153.14999,19.032001,151.88999,20.508001,150.702,21.624001L141.77399,21.624001C143.034,20.364,144.22199,19.032001,145.338,17.628L154.19398999999999,17.628ZM145.55399,11.436001C143.06999000000002,16.116001,138.713997,20.400002,134.35799400000002,23.064001C134.933998,23.820002,135.86999500000002,25.512001,136.193993,26.268002C137.093994,25.656,138.029999,24.972,138.929993,24.216002L138.929993,38.652C138.929993,43.259998,140.838,44.411999,146.994,44.411999C148.39799,44.411999,158.69398999999999,44.411999,160.24199,44.411999C165.92999,44.411999,167.18999,42.720001,167.90999,36.959999C166.93799,36.779999,165.49799000000002,36.276001,164.63400000000001,35.736C164.202,40.380001,163.66199,41.279999,160.13400000000001,41.279999C157.82999,41.279999,148.75799999999998,41.279999,146.84999,41.279999C142.88999,41.279999,142.20598999999999,40.848,142.20598999999999,38.652L142.20598999999999,33.431999L160.88999,33.431999L160.88999,34.835999L164.27399,34.835999L164.27399,21.624001L154.80599,21.624001C156.46199000000001,19.896002,158.118,17.880001,159.34199999999998,16.044001L157.14600000000002,14.424002L156.46199000000001,14.604002L147.46199000000001,14.604002C147.894,13.956001,148.28999,13.272001,148.64999,12.588001L145.55399,11.436001Z" fill="#0C0E43" fill-opacity="1"/></g></g></svg>