<svg xmlns="http://www.w3.org/2000/svg" xmlns:xlink="http://www.w3.org/1999/xlink" fill="none" version="1.1" width="20" height="20" viewBox="0 0 20 20"><defs><linearGradient x1="0.8930989503860474" y1="1" x2="0.1426320532604373" y2="-0.09752877289802132" id="master_svg0_55_15928"><stop offset="0%" stop-color="#FF9625" stop-opacity="1"/><stop offset="100%" stop-color="#FFBE25" stop-opacity="1"/></linearGradient></defs><g><g><path d="M4.4999983,2.000016914948633L15.499997,2.000001907348633C16.328424,2.000001907348633,16.999999000000003,2.671575907348633,16.999999000000003,3.500003807348633L16.999999000000003,16.500001907348633C16.999999000000003,17.32842890734863,16.29917,18.00000390734863,15.470741,18.000001907348633L4.5100058,18.000000907348635C3.68157852,18.000000907348635,3,17.32842890734863,3,16.500001907348633L3,3.500016907348633C3,2.671590387348633,3.67157167,2.000017909563633,4.4999983,2.000016914948633ZM11.9440565,4.450708907348632L8.054208299999999,4.450708907348632C7.733664,4.450708907348632,7.4720292,4.721623907348633,7.4702973,5.051355407348632C7.4702973,5.381086807348632,7.733664,5.652000907348633,8.054208299999999,5.652000907348633L11.9440565,5.652000907348633C12.2646017,5.652000907348633,12.5279684,5.381086807348632,12.5279684,5.051355407348632C12.5279684,4.719841507348633,12.2646017,4.450708907348632,11.9440565,4.450708907348632ZM12.9932423,11.144846907348633L13.373512,10.749472607348633C13.81881,10.302106807348633,13.81881,9.573133007348634,13.37871,9.127549607348634L12.1970272,7.904869507348633C11.7638588,7.457503807348632,11.0551958,7.457503807348632,10.6150994,7.904869507348633L10.1904068,8.341734407348632L12.9932423,11.144846907348633ZM12.1565628,12.005224907348634L9.2774749,14.973600907348633C9.145792499999999,15.109057907348634,8.963861900000001,15.191045907348633,8.7698026,15.191045907348633L6.8621286999999995,15.201738907348632C6.484406,15.201738907348632,6.2903465999999995,15.002117907348632,6.2903465999999995,14.613568907348633L6.2903465999999995,12.670826907348633C6.2903465999999995,12.476551907348632,6.3648515,12.289407907348632,6.5017328,12.148603907348633L9.3542542,9.202639107348633L12.1565628,12.005224907348634Z" fill-rule="evenodd" fill="url(#master_svg0_55_15928)" fill-opacity="1" style="mix-blend-mode:passthrough"/></g></g></svg>