<svg xmlns="http://www.w3.org/2000/svg" xmlns:xlink="http://www.w3.org/1999/xlink" fill="none" version="1.1" width="20" height="20" viewBox="0 0 20 20"><defs><linearGradient x1="0" y1="-0.0408528633415699" x2="1" y2="1.1040689945220947" id="master_svg0_59_12532"><stop offset="0%" stop-color="#0096FF" stop-opacity="1"/><stop offset="100%" stop-color="#0084FF" stop-opacity="1"/></linearGradient></defs><g><g style="opacity:0;"><rect x="0" y="0" width="20" height="20" rx="0" fill="#D8D8D8" fill-opacity="1"/></g><g><path d="M15.8716,12.43225L15.8716,16.756C15.8712,17.167,15.5411,17.5,15.134,17.5L3.237686,17.5C2.827407,17.4971,2.49713643,17.159,2.500018774,16.744799999999998L2.500018774,7.75L6.95722,7.75C7.3675,7.75,7.70009,7.41421,7.70009,7L7.70009,2.5L15.1303,2.5C15.5396,2.5,15.8716,2.84125,15.8716,3.2439999999999998L15.8716,6.06775L9.18657,12.8177L9.18211,15.9962L12.33633,16.000700000000002L15.8716,12.43225ZM16.4496,7.606L17.5,8.6665L11.72198,14.5L10.67008,14.4985L10.67156,13.4395L16.4496,7.606ZM2.500018774,6.25L6.21436,2.50224984L6.21436,6.25L2.500018774,6.25Z" fill="url(#master_svg0_59_12532)" fill-opacity="1" style="mix-blend-mode:passthrough"/></g></g></svg>