<svg xmlns="http://www.w3.org/2000/svg" xmlns:xlink="http://www.w3.org/1999/xlink" fill="none" version="1.1" width="144" height="52" viewBox="0 0 144 52"><g><g><path d="M19.224,38.796C23.94,40.416,28.728,42.756,31.572,44.844L33.624,42.144C30.672,40.164,25.596,37.86,20.844,36.276L19.224,38.796ZM8.532,22.128C10.44,23.244,12.708,25.008,13.752,26.268L15.912,23.82C14.76,22.56,12.456,20.94,10.548,19.932L8.532,22.128ZM4.896,27.672C6.876,28.752,9.288,30.444,10.404,31.74L12.456,29.148C11.268,27.96,8.856,26.34,6.876,25.368L4.896,27.672ZM3.024,15.396L3.024,23.136L6.408,23.136L6.408,18.564L29.52,18.564L29.52,23.136L33.048,23.136L33.048,15.396L20.772,15.396C20.268,14.136,19.332,12.516,18.54,11.292L15.156,12.336C15.696,13.236,16.272,14.352,16.74,15.396L3.024,15.396ZM2.52,32.496L2.52,35.412L14.94,35.412C12.888,38.472,9.288,40.596,2.844,42C3.564,42.72,4.428,44.052,4.752,44.952C12.78,43.044,16.884,39.912,18.972,35.412L33.696,35.412L33.696,32.496L20.052,32.496C20.988,29.076,21.24,25.008,21.384,20.256L17.784,20.256C17.64,25.188,17.496,29.256,16.344,32.496L2.52,32.496ZM41.76,16.008L47.592,16.008L47.592,21.588L41.76,21.588L41.76,16.008ZM61.092,14.172C62.784,15.108,64.908,16.512,65.988,17.52L68.04,15.432C66.924,14.496,64.728,13.164,63.108,12.336L61.092,14.172ZM37.152,40.092L38.052,43.296C41.76,42.072,46.656,40.416,51.228,38.832L50.688,35.916L46.476,37.284L46.476,31.812L50.4,31.812L50.4,28.896L46.476,28.896L46.476,24.504L50.724,24.504L50.724,13.092L38.808,13.092L38.808,24.504L43.416,24.504L43.416,38.256L41.544,38.832L41.544,27.564L38.808,27.564L38.808,39.624L37.152,40.092ZM67.536,29.4C66.276,31.452,64.584,33.324,62.64,34.98C62.172,33.288,61.74,31.308,61.416,29.148L70.02,27.528L69.444,24.54L60.984,26.088C60.804,24.756,60.696,23.388,60.552,21.948L69.012,20.652L68.472,17.664L60.372,18.888C60.264,16.512,60.192,14.064,60.228,11.58L56.952,11.58C56.952,14.208,57.024,16.836,57.168,19.356L52.236,20.112L52.776,23.172L57.384,22.452C57.492,23.892,57.636,25.332,57.78,26.7L51.48,27.852L52.02,30.912L58.212,29.76C58.644,32.46,59.184,34.944,59.868,37.068C56.988,38.976,53.676,40.524,50.22,41.64C51.012,42.396,51.876,43.584,52.308,44.448C55.404,43.296,58.356,41.82,61.02,40.056C62.46,43.116,64.332,44.916,66.744,44.916C69.372,44.916,70.308,43.728,70.884,39.552C70.164,39.192,69.12,38.472,68.472,37.752C68.292,40.776,67.932,41.676,67.068,41.676C65.808,41.676,64.692,40.38,63.72,38.112C66.384,35.952,68.652,33.468,70.38,30.696L67.536,29.4ZM91.08,28.356C92.376,31.992,94.104,35.304,96.3,38.112C94.644,39.876,92.664,41.352,90.396,42.468L90.396,28.356L91.08,28.356ZM94.356,28.356L101.664,28.356C100.944,30.912,99.864,33.324,98.424,35.484C96.732,33.36,95.364,30.912,94.356,28.356ZM87.012,12.84L87.012,44.916L90.396,44.916L90.396,42.756C91.152,43.404,92.016,44.376,92.484,45.132C94.788,43.944,96.768,42.432,98.496,40.632C100.26,42.396,102.276,43.872,104.508,44.952C105.048,44.052,106.056,42.72,106.848,42.072C104.58,41.136,102.492,39.696,100.692,37.968C103.14,34.548,104.76,30.444,105.624,25.872L103.428,25.188L102.816,25.296L90.396,25.296L90.396,16.008L101.052,16.008C100.872,18.744,100.692,20.004,100.296,20.436C99.972,20.688,99.576,20.724,98.82,20.724C98.064,20.724,95.868,20.724,93.636,20.544C94.104,21.3,94.5,22.488,94.536,23.316C96.876,23.46,99.108,23.46,100.296,23.388C101.52,23.28,102.492,23.064,103.212,22.308C104.04,21.408,104.4,19.284,104.544,14.208C104.58,13.74,104.616,12.84,104.616,12.84L87.012,12.84ZM78.408,11.616L78.408,18.708L73.548,18.708L73.548,22.02L78.408,22.02L78.408,29.004L73.044,30.336L73.836,33.792L78.408,32.568L78.408,41.028C78.408,41.604,78.192,41.784,77.58,41.784C77.076,41.82,75.204,41.82,73.332,41.748C73.836,42.684,74.268,44.124,74.412,44.988C77.292,45.024,79.092,44.952,80.28,44.376C81.432,43.872,81.864,42.936,81.864,41.028L81.864,31.56L85.968,30.372L85.572,27.096L81.864,28.104L81.864,22.02L85.68,22.02L85.68,18.708L81.864,18.708L81.864,11.616L78.408,11.616ZM116.496,11.832C115.164,15.828,112.932,19.86,110.268,22.38C111.132,22.812,112.68,23.712,113.4,24.216C114.48,22.992,115.596,21.444,116.604,19.716L125.064,19.716L125.064,24.684L110.16,24.684L110.16,27.888L141.948,27.888L141.948,24.684L128.628,24.684L128.628,19.716L139.464,19.716L139.464,16.584L128.628,16.584L128.628,11.616L125.064,11.616L125.064,16.584L118.296,16.584C118.908,15.324,119.448,13.992,119.916,12.66L116.496,11.832ZM114.48,31.02L114.48,45.276L117.936,45.276L117.936,43.332L134.46,43.332L134.46,45.168L138.06,45.168L138.06,31.02L114.48,31.02ZM117.936,40.2L117.936,34.152L134.46,34.152L134.46,40.2L117.936,40.2Z" fill="#0C0E43" fill-opacity="1"/></g></g></svg>