<svg xmlns="http://www.w3.org/2000/svg" xmlns:xlink="http://www.w3.org/1999/xlink" fill="none" version="1.1" width="117" height="29" viewBox="2 9 117 29"><g><g><path d="M16.02,32.33C19.95,33.68,23.94,35.63,26.31,37.37L28.02,35.12C25.56,33.47,21.33,31.55,17.37,30.23L16.02,32.33ZM7.11,18.44C8.7,19.37,10.59,20.84,11.46,21.89L13.26,19.85C12.3,18.8,10.38,17.45,8.79,16.61L7.11,18.44ZM4.08,23.06C5.73,23.96,7.74,25.37,8.67,26.45L10.38,24.29C9.39,23.3,7.38,21.95,5.73,21.14L4.08,23.06ZM2.52,12.83L2.52,19.28L5.34,19.28L5.34,15.47L24.6,15.47L24.6,19.28L27.54,19.28L27.54,12.83L17.31,12.83C16.89,11.78,16.11,10.43,15.45,9.41L12.63,10.28C13.08,11.03,13.56,11.96,13.95,12.83L2.52,12.83ZM2.1,27.08L2.1,29.51L12.45,29.51C10.74,32.06,7.74,33.83,2.37,35C2.97,35.6,3.69,36.71,3.96,37.46C10.65,35.87,14.07,33.26,15.81,29.51L28.08,29.51L28.08,27.08L16.71,27.08C17.49,24.23,17.7,20.84,17.82,16.88L14.82,16.88C14.7,20.99,14.58,24.38,13.62,27.08L2.1,27.08ZM34.8,13.34L39.66,13.34L39.66,17.99L34.8,17.99L34.8,13.34ZM50.91,11.81C52.32,12.59,54.09,13.76,54.99,14.6L56.7,12.86C55.77,12.08,53.94,10.97,52.59,10.28L50.91,11.81ZM30.96,33.41L31.71,36.08C34.8,35.06,38.88,33.68,42.69,32.36L42.24,29.93L38.73,31.07L38.73,26.51L42,26.51L42,24.08L38.73,24.08L38.73,20.42L42.27,20.42L42.27,10.91L32.34,10.91L32.34,20.42L36.18,20.42L36.18,31.88L34.62,32.36L34.62,22.97L32.34,22.97L32.34,33.02L30.96,33.41ZM56.28,24.5C55.23,26.21,53.82,27.77,52.2,29.15C51.81,27.74,51.45,26.09,51.18,24.29L58.35,22.94L57.87,20.45L50.82,21.74C50.67,20.63,50.58,19.49,50.46,18.29L57.51,17.21L57.06,14.72L50.31,15.74C50.22,13.76,50.16,11.72,50.19,9.65L47.46,9.65C47.46,11.84,47.52,14.03,47.64,16.13L43.53,16.76L43.98,19.31L47.82,18.71C47.91,19.91,48.03,21.11,48.15,22.25L42.9,23.21L43.35,25.76L48.51,24.8C48.87,27.05,49.32,29.12,49.89,30.89C47.49,32.48,44.73,33.77,41.85,34.7C42.51,35.33,43.23,36.32,43.59,37.04C46.17,36.08,48.63,34.85,50.85,33.38C52.05,35.93,53.61,37.43,55.62,37.43C57.81,37.43,58.59,36.44,59.07,32.96C58.47,32.66,57.6,32.06,57.06,31.46C56.91,33.98,56.61,34.73,55.89,34.73C54.84,34.73,53.91,33.65,53.1,31.76C55.32,29.96,57.21,27.89,58.65,25.58L56.28,24.5ZM75.9,23.63C76.98,26.66,78.42,29.42,80.25,31.76C78.87,33.23,77.22,34.46,75.33,35.39L75.33,23.63L75.9,23.63ZM78.63,23.63L84.72,23.63C84.12,25.76,83.22,27.77,82.02,29.57C80.61,27.8,79.47,25.76,78.63,23.63ZM72.51,10.7L72.51,37.43L75.33,37.43L75.33,35.63C75.96,36.17,76.68,36.98,77.07,37.61C78.99,36.62,80.64,35.36,82.08,33.86C83.55,35.33,85.23,36.56,87.09,37.46C87.54,36.71,88.38,35.6,89.04,35.06C87.15,34.28,85.41,33.08,83.91,31.64C85.95,28.79,87.3,25.37,88.02,21.56L86.19,20.99L85.68,21.08L75.33,21.08L75.33,13.34L84.21,13.34C84.06,15.62,83.91,16.67,83.58,17.03C83.31,17.24,82.98,17.27,82.35,17.27C81.72,17.27,79.89,17.27,78.03,17.12C78.42,17.75,78.75,18.74,78.78,19.43C80.73,19.55,82.59,19.55,83.58,19.49C84.6,19.4,85.41,19.22,86.01,18.59C86.7,17.84,87,16.07,87.12,11.84C87.15,11.45,87.18,10.7,87.18,10.7L72.51,10.7ZM65.34,9.68L65.34,15.59L61.29,15.59L61.29,18.35L65.34,18.35L65.34,24.17L60.87,25.28L61.53,28.16L65.34,27.14L65.34,34.19C65.34,34.67,65.16,34.82,64.65,34.82C64.23,34.85,62.67,34.85,61.11,34.79C61.53,35.57,61.89,36.77,62.01,37.49C64.41,37.52,65.91,37.46,66.9,36.98C67.86,36.56,68.22,35.78,68.22,34.19L68.22,26.3L71.64,25.31L71.31,22.58L68.22,23.42L68.22,18.35L71.4,18.35L71.4,15.59L68.22,15.59L68.22,9.68L65.34,9.68ZM97.08,9.86C95.97,13.19,94.11,16.55,91.89,18.65C92.61,19.01,93.9,19.76,94.5,20.18C95.4,19.16,96.33,17.87,97.17,16.43L104.22,16.43L104.22,20.57L91.8,20.57L91.8,23.24L118.29,23.24L118.29,20.57L107.19,20.57L107.19,16.43L116.22,16.43L116.22,13.82L107.19,13.82L107.19,9.68L104.22,9.68L104.22,13.82L98.58,13.82C99.09,12.77,99.54,11.66,99.93,10.55L97.08,9.86ZM95.4,25.85L95.4,37.73L98.28,37.73L98.28,36.11L112.05,36.11L112.05,37.64L115.05,37.64L115.05,25.85L95.4,25.85ZM98.28,33.5L98.28,28.46L112.05,28.46L112.05,33.5L98.28,33.5Z" fill="#0C0E43" fill-opacity="1"/></g></g></svg>