<svg xmlns="http://www.w3.org/2000/svg" xmlns:xlink="http://www.w3.org/1999/xlink" fill="none" version="1.1" width="12" height="12" viewBox="0 0 12 12"><defs><clipPath id="master_svg0_75_64380"><rect x="0" y="0" width="12" height="12" rx="0"/></clipPath></defs><g clip-path="url(#master_svg0_75_64380)"><g><path d="M6.56251,9.19141125Q6.56251,9.24681325,6.5517,9.30115025Q6.54089,9.35548825,6.51969,9.40667225Q6.49849,9.45785725,6.46771,9.50392225Q6.4369309999999995,9.549987250000001,6.397756,9.58916225Q6.358581,9.62833725,6.3125160000000005,9.65911625Q6.266451,9.68989625,6.215266,9.71109625Q6.164082,9.732296250000001,6.109744,9.74310625Q6.055407,9.75391625,6.000005,9.75391625Q5.944603,9.75391625,5.8902660000000004,9.74310625Q5.835928,9.732296250000001,5.784744,9.71109625Q5.733559,9.68989625,5.687494,9.65911625Q5.641429,9.62833725,5.602254,9.58916225Q5.563079,9.549987250000001,5.5322992,9.50392225Q5.5015195,9.45785725,5.4803181,9.40667225Q5.4591167,9.35548825,5.4483084,9.30115025Q5.4375,9.24681325,5.4375,9.19141125Q5.4375,9.13600925,5.4483084,9.08167225Q5.4591167,9.02733425,5.4803181,8.97615025Q5.5015195,8.92496525,5.5322992,8.87890025Q5.563079,8.83283525,5.602254,8.79366025Q5.641429,8.75448525,5.687494,8.72370545Q5.733559,8.69292575,5.784744,8.67172435Q5.835928,8.65052295,5.8902660000000004,8.63971465Q5.944603,8.62890625,6.000005,8.62890625Q6.055407,8.62890625,6.109744,8.63971465Q6.164082,8.65052295,6.215266,8.67172435Q6.266451,8.69292575,6.3125160000000005,8.72370545Q6.358581,8.75448525,6.397756,8.79366025Q6.4369309999999995,8.83283525,6.46771,8.87890025Q6.49849,8.92496525,6.51969,8.97615025Q6.54089,9.02733425,6.5517,9.08167225Q6.56251,9.13600925,6.56251,9.19141125Z" fill="#3D3D3D" fill-opacity="1" style="mix-blend-mode:passthrough"/></g><g><path d="M6,11.25C3.10501,11.25,0.75,8.89499,0.75,6C0.75,3.10501,3.10501,0.75,6,0.75C8.89499,0.75,11.25,3.10501,11.25,6C11.25,8.89499,8.89499,11.25,6,11.25ZM6,1.503367C3.52049,1.503367,1.503366,3.52049,1.503366,6C1.503366,8.47912,3.52049,10.49663,6,10.49663C8.47912,10.49663,10.49663,8.479140000000001,10.49663,6C10.49663,3.52049,8.47912,1.503367,6,1.503367Z" fill="#3D3D3D" fill-opacity="1" style="mix-blend-mode:passthrough"/></g><g><path d="M6.00001,7.894661875C5.793,7.894661875,5.625,7.726661875,5.625,7.519671875L5.625,6.885541875C5.625,6.272031875,6.09375,5.803281875,6.50774,5.3896718749999994C6.81111,5.085921875,7.125,4.772421875,7.125,4.5222918750000005C7.125,3.8971718749999997,6.62025,3.388671875,6.00001,3.388671875C5.36927,3.388671875,4.87502,3.875421875,4.87502,4.4967918749999995C4.87502,4.703801875,4.707018,4.871781875,4.50001,4.871781875C4.293002,4.871781875,4.125,4.703781875,4.125,4.4967918749999995C4.125,3.472289875,4.966117,2.638671875,6.00001,2.638671875C7.0339,2.638671875,7.87502,3.483537875,7.87502,4.5222918750000005C7.87502,5.083661875000001,7.44939,5.508911875,7.0380199999999995,5.920291875C6.71177,6.245791875,6.37502,6.582531875,6.37502,6.885161875L6.37502,7.519281875C6.37502,7.726291875,6.20702,7.894661875,6.00001,7.894661875Z" fill="#3D3D3D" fill-opacity="1" style="mix-blend-mode:passthrough"/></g></g></svg>