<svg xmlns="http://www.w3.org/2000/svg" xmlns:xlink="http://www.w3.org/1999/xlink" fill="none" version="1.1" width="20" height="20" viewBox="0 0 20 20"><defs><linearGradient x1="1" y1="0.9944661259651184" x2="0" y2="-0.12451171875" id="master_svg0_55_16192"><stop offset="0%" stop-color="#8E7AFF" stop-opacity="1"/><stop offset="100%" stop-color="#7A87FF" stop-opacity="1"/></linearGradient></defs><g><g style="opacity:0;"><rect x="0" y="0" width="20" height="20" rx="0" fill="#D8D8D8" fill-opacity="1"/></g><g><path d="M15.25,17.5L4.75,17.5C3.5073600000000003,17.5,2.5,16.4926,2.5,15.25L2.5,3.25C2.5,2.835786,2.835786,2.5,3.25,2.5L13.75,2.5C14.1642,2.5,14.5,2.835786,14.5,3.25L14.5,12.25L17.5,12.25L17.5,15.25C17.5,16.4926,16.4926,17.5,15.25,17.5ZM14.5,13.75L14.5,15.25C14.5,15.6642,14.8358,16,15.25,16C15.6642,16,16,15.6642,16,15.25L16,13.75L14.5,13.75ZM5.5,6.25L5.5,7.75L11.5,7.75L11.5,6.25L5.5,6.25ZM5.5,9.25L5.5,10.75L11.5,10.75L11.5,9.25L5.5,9.25ZM5.5,12.25L5.5,13.75L9.25,13.75L9.25,12.25L5.5,12.25Z" fill="url(#master_svg0_55_16192)" fill-opacity="1" style="mix-blend-mode:passthrough"/></g></g></svg>