<svg xmlns="http://www.w3.org/2000/svg" xmlns:xlink="http://www.w3.org/1999/xlink" fill="none" version="1.1" width="144" height="52" viewBox="0 0 144 52"><g><g><path d="M15.048,12.372C16.056,14.1,17.064,16.368,17.496,17.844L1.728,17.844L1.728,21.156L7.344,21.156C9.396,26.448,12.096,31.02,15.588,34.764C11.736,37.932,6.948,40.164,1.116,41.748C1.8,42.54,2.844,44.124,3.24,44.952C9.144,43.116,14.076,40.632,18.108,37.212C22.032,40.632,26.856,43.188,32.688,44.772C33.228,43.8,34.236,42.36,34.992,41.604C29.376,40.236,24.66,37.86,20.772,34.728C24.192,31.092,26.856,26.628,28.8,21.156L34.452,21.156L34.452,17.844L18.108,17.844L21.312,16.836C20.844,15.324,19.692,13.02,18.648,11.292L15.048,12.372ZM18.18,32.388C15.048,29.184,12.6,25.404,10.872,21.156L24.948,21.156C23.328,25.656,21.096,29.328,18.18,32.388ZM64.584,14.172C65.7,16.116,66.96,18.708,67.464,20.328L70.272,19.212C69.732,17.628,68.4,15.072,67.248,13.236L64.584,14.172ZM42.516,25.332C43.308,26.7,44.172,28.5,44.532,29.652L46.332,28.788C45.972,27.708,45.036,25.908,44.208,24.648L42.516,25.332ZM60.912,11.616L60.912,21.048L60.912,21.48L56.16,21.48L56.16,24.612L60.876,24.612C60.66,30.408,59.688,37.644,55.152,42.864C55.98,43.368,57.204,44.484,57.744,45.168C60.552,41.712,62.172,37.572,63.072,33.432C64.188,38.148,65.808,42.072,68.328,44.772C68.868,43.872,69.948,42.648,70.704,42.036C67.14,38.58,65.34,32.028,64.44,24.612L70.452,24.612L70.452,21.48L64.224,21.48L64.224,21.048L64.224,11.616L60.912,11.616ZM48.888,24.612C48.492,26.124,47.664,28.32,46.944,29.904L42.156,29.904L42.156,32.352L45.468,32.352L45.468,35.052L41.76,35.052L41.76,37.536L45.468,37.536L45.468,43.188L48.096,43.188L48.096,37.536L51.912,37.536L51.912,35.052L48.096,35.052L48.096,32.352L51.48,32.352L51.48,29.904L49.068,29.904C49.752,28.536,50.508,26.736,51.192,25.188L48.888,24.612ZM38.34,21.444L38.34,44.844L41.184,44.844L41.184,24.216L52.38,24.216L52.38,41.424C52.38,41.82,52.236,41.928,51.912,41.928C51.552,41.928,50.472,41.928,49.356,41.892C49.716,42.648,50.076,43.872,50.184,44.664C52.02,44.664,53.28,44.592,54.18,44.124C55.044,43.656,55.296,42.864,55.296,41.46L55.296,21.444L48.384,21.444L48.384,18.132L55.764,18.132L55.764,15.216L48.384,15.216L48.384,11.616L45.144,11.616L45.144,15.216L37.548,15.216L37.548,18.132L45.144,18.132L45.144,21.444L38.34,21.444ZM89.532,22.488L89.532,25.44L102.852,25.44L102.852,22.488L89.532,22.488ZM99.792,35.196C101.412,37.572,103.248,40.776,104.004,42.756L107.1,41.352C106.272,39.372,104.328,36.276,102.708,33.972L99.792,35.196ZM86.04,29.04L86.04,32.028L94.716,32.028L94.716,41.388C94.716,41.748,94.572,41.856,94.14,41.892C93.708,41.892,92.232,41.892,90.756,41.856C91.188,42.756,91.584,44.016,91.728,44.844C94.032,44.88,95.58,44.844,96.66,44.376C97.776,43.872,98.028,43.044,98.028,41.46L98.028,32.028L106.164,32.028L106.164,29.04L86.04,29.04ZM93.456,12.192C94.032,13.308,94.644,14.712,95.076,15.936L86.4,15.936L86.4,22.344L89.64,22.344L89.64,18.852L102.672,18.852L102.672,22.344L106.02,22.344L106.02,15.936L98.82,15.936C98.388,14.604,97.56,12.768,96.732,11.364L93.456,12.192ZM73.44,39.84L74.052,43.08L85.14,40.164L84.276,41.064C85.032,41.532,86.4,42.504,87.012,43.044C88.848,40.992,91.08,37.824,92.628,35.016L89.496,34.008C88.452,35.988,86.94,38.112,85.428,39.84L85.14,37.212C80.784,38.256,76.356,39.264,73.44,39.84ZM74.16,26.916C74.7,26.664,75.564,26.448,79.56,25.944C78.12,28.068,76.824,29.76,76.176,30.444C75.096,31.74,74.268,32.604,73.44,32.784C73.8,33.576,74.304,35.052,74.448,35.628C75.204,35.196,76.5,34.8,84.924,33.144C84.852,32.424,84.888,31.164,84.996,30.3L78.912,31.38C81.504,28.284,84.024,24.576,86.148,20.868L83.52,19.248C82.872,20.544,82.152,21.84,81.396,23.1L77.256,23.496C79.308,20.436,81.324,16.656,82.8,13.02L79.776,11.616C78.408,15.9,75.96,20.544,75.168,21.732C74.412,22.92,73.8,23.748,73.116,23.892C73.512,24.72,74.016,26.268,74.16,26.916ZM133.812,13.704C135.288,15.072,137.16,17.016,138.06,18.24L140.76,16.476C139.824,15.288,137.88,13.416,136.404,12.12L133.812,13.704ZM110.088,14.712C112.032,16.8,114.336,19.644,115.344,21.48L118.224,19.68C117.108,17.844,114.732,15.072,112.788,13.128L110.088,14.712ZM129.024,11.94L129.024,18.42L119.484,18.42L119.484,21.588L127.404,21.588C125.424,26.736,122.256,31.776,118.836,34.44C119.592,35.052,120.672,36.24,121.212,36.996C124.236,34.296,126.972,30.012,129.024,25.26L129.024,39.336L132.444,39.336L132.444,25.404C135.36,28.86,138.24,32.748,139.644,35.448L142.308,33.468C140.472,30.228,136.476,25.332,132.984,21.588L141.948,21.588L141.948,18.42L132.444,18.42L132.444,11.94L129.024,11.94ZM117.756,24.504L109.584,24.504L109.584,27.672L114.516,27.672L114.516,37.86C112.86,38.508,111.024,39.912,109.224,41.604L111.348,44.556C113.148,42.396,115.02,40.416,116.28,40.416C117.18,40.416,118.296,41.46,119.916,42.288C122.508,43.692,125.604,44.052,129.888,44.052C133.344,44.052,139.356,43.872,141.84,43.692C141.912,42.756,142.452,41.172,142.812,40.308C139.32,40.704,133.884,40.992,129.96,40.992C126.144,40.992,122.94,40.74,120.564,39.516C119.34,38.868,118.476,38.256,117.756,37.86L117.756,24.504Z" fill="#0C0E43" fill-opacity="1"/></g></g></svg>