<svg xmlns="http://www.w3.org/2000/svg" xmlns:xlink="http://www.w3.org/1999/xlink" fill="none" version="1.1" width="127" height="28" viewBox="0 9 127 28"><g><g><path d="M0,35L3.57,35L5.43,28.73L13.11,28.73L14.97,35L18.66,35L11.34,12.89L7.32,12.89L0,35ZM6.27,25.97L7.14,23C7.86,20.6,8.55,18.17,9.21,15.65L9.33,15.65C10.02,18.14,10.68,20.6,11.4,23L12.27,25.97L6.27,25.97ZM21.57,35L25.05,35L25.05,12.89L21.57,12.89L21.57,35ZM39.87,35.42C42.87,35.42,45.36,34.28,46.83,32.81L46.83,23.24L39.3,23.24L39.3,26.12L43.65,26.12L43.65,31.28C42.9,31.94,41.58,32.36,40.23,32.36C35.64,32.36,33.21,29.12,33.21,23.9C33.21,18.71,35.94,15.53,40.05,15.53C42.18,15.53,43.53,16.43,44.64,17.51L46.5,15.29C45.18,13.88,43.08,12.5,39.96,12.5C34.08,12.5,29.61,16.82,29.61,23.99C29.61,31.25,33.96,35.42,39.87,35.42ZM60.48,35.42C63.36,35.42,65.58,34.28,67.38,32.21L65.49,29.99C64.17,31.43,62.64,32.36,60.63,32.36C56.73,32.36,54.24,29.12,54.24,23.9C54.24,18.71,56.91,15.53,60.72,15.53C62.49,15.53,63.87,16.37,65.04,17.51L66.9,15.29C65.55,13.82,63.39,12.5,60.66,12.5C55.05,12.5,50.64,16.82,50.64,23.99C50.64,31.25,54.93,35.42,60.48,35.42ZM77.58,28.43L88.86,28.43L88.86,30.53L77.58,30.53L77.58,28.43ZM77.58,24.5L88.86,24.5L88.86,26.54L77.58,26.54L77.58,24.5ZM74.76,22.58L74.76,32.45L91.8,32.45L91.8,22.58L74.76,22.58ZM70.38,34.1L70.38,36.62L96.39,36.62L96.39,34.1L70.38,34.1ZM81.84,9.68L81.84,13.28L69.99,13.28L69.99,15.77L78.96,15.77C76.47,18.38,72.78,20.69,69.27,21.86C69.87,22.43,70.68,23.45,71.1,24.14C75.09,22.55,79.14,19.61,81.84,16.19L81.84,21.65L84.66,21.65L84.66,16.19C87.42,19.52,91.5,22.4,95.52,23.9C95.94,23.18,96.78,22.13,97.38,21.59C93.75,20.45,90,18.29,87.51,15.77L96.72,15.77L96.72,13.28L84.66,13.28L84.66,9.68L81.84,9.68ZM103.02,18.8L103.02,28.22L111.78,28.22L111.78,29.99L102.06,29.99L102.06,32.18L111.78,32.18L111.78,34.34L99.81,34.34L99.81,36.62L126.93,36.62L126.93,34.34L114.63,34.34L114.63,32.18L124.98,32.18L124.98,29.99L114.63,29.99L114.63,28.22L123.87,28.22L123.87,18.8L114.63,18.8L114.63,17.27L126.72,17.27L126.72,14.99L114.63,14.99L114.63,13.01C118.05,12.77,121.29,12.41,123.9,11.99L122.49,9.77C117.57,10.64,109.26,11.15,102.24,11.33C102.51,11.9,102.81,12.89,102.84,13.55C105.66,13.49,108.75,13.4,111.78,13.22L111.78,14.99L99.99,14.99L99.99,17.27L111.78,17.27L111.78,18.8L103.02,18.8ZM105.78,24.38L111.78,24.38L111.78,26.27L105.78,26.27L105.78,24.38ZM114.63,24.38L120.99,24.38L120.99,26.27L114.63,26.27L114.63,24.38ZM105.78,20.75L111.78,20.75L111.78,22.61L105.78,22.61L105.78,20.75ZM114.63,20.75L120.99,20.75L120.99,22.61L114.63,22.61L114.63,20.75Z" fill="#0C0E43" fill-opacity="1"/></g></g></svg>