<svg xmlns="http://www.w3.org/2000/svg" xmlns:xlink="http://www.w3.org/1999/xlink" fill="none" version="1.1" width="20" height="20" viewBox="0 0 20 20"><defs><linearGradient x1="0" y1="0" x2="0.9063799303860335" y2="1.0786668749629986" id="master_svg0_55_17604"><stop offset="0%" stop-color="#79D86C" stop-opacity="1"/><stop offset="100%" stop-color="#56C648" stop-opacity="1"/></linearGradient></defs><g><g style="opacity:0;"><rect x="0" y="0" width="20" height="20" rx="0" fill="#D8D8D8" fill-opacity="1"/></g><g><path d="M15.7324,2.5C16.100099999999998,2.5,16.3965,2.80756,16.3965,3.187256L16.3977,10.30119C15.2238,9.216809999999999,13.54254,8.94613,12.1048,9.61003C10.66676,10.2744,9.741,11.74892,9.741,13.375C9.741,15.6011,11.578240000000001,17.5,13.73499,17.5L4.415666,17.5C4.048029,17.5,3.75,17.1922,3.75,16.8125L3.75,3.187256C3.75,2.80756,4.0488669999999995,2.5,4.416504,2.5L15.7324,2.5ZM6,5L13,5L13,6L6,6L6,5ZM10,8L6,8L6,9L10,9L10,8ZM13.73499,10.625C14.6907,10.62486,15.5733,11.15378,16.0474,12.01087C16.5215,12.868,16.514400000000002,13.9218,16.0289,14.772L17.5,16.2914L16.5594,17.264200000000002L15.0876,15.7448C13.57518,16.6644,11.63002,15.8476,11.16802,14.0989C10.70601,12.35018,11.9799,10.62621,13.73499,10.625ZM13.73499,12C12.99972,12,12.40366,12.6156,12.40366,13.375C12.40366,14.1344,12.99972,14.75,13.73499,14.75C14.4703,14.75,15.0663,14.1344,15.0663,13.375C15.0663,12.6156,14.4703,12,13.73499,12Z" fill-rule="evenodd" fill="url(#master_svg0_55_17604)" fill-opacity="1" style="mix-blend-mode:passthrough"/></g></g></svg>