<svg xmlns="http://www.w3.org/2000/svg" xmlns:xlink="http://www.w3.org/1999/xlink" fill="none" version="1.1" width="155" height="52" viewBox="0 0 155 52"><g><g><path d="M27.756,17.412C26.712,18.852,25.416,20.112,23.868,21.228C22.428,20.148,21.204,18.96,20.268,17.628L20.448,17.412L27.756,17.412ZM20.772,11.652C19.296,14.316,16.632,17.556,12.888,19.932C13.608,20.4,14.616,21.516,15.084,22.272C16.236,21.444,17.316,20.58,18.288,19.644C19.152,20.832,20.196,21.876,21.312,22.848C18.648,24.324,15.588,25.404,12.456,26.052C13.032,26.736,13.824,27.996,14.148,28.788C17.64,27.888,21.024,26.592,23.976,24.792C26.604,26.448,29.664,27.672,33.012,28.392C33.444,27.564,34.344,26.304,35.028,25.62C31.968,25.08,29.088,24.18,26.64,22.884C29.052,20.94,31.032,18.528,32.328,15.612L30.24,14.568L29.664,14.712L22.572,14.712C23.148,13.92,23.652,13.092,24.12,12.3L20.772,11.652ZM14.94,29.544L14.94,32.496L22.932,32.496L22.932,36.816L17.784,36.816L18.612,33.792L15.552,33.432C15.048,35.484,14.292,38.04,13.644,39.768L22.932,39.768L22.932,45.024L26.208,45.024L26.208,39.768L34.056,39.768L34.056,36.816L26.208,36.816L26.208,32.496L33.012,32.496L33.012,29.544L26.208,29.544L26.208,27.096L22.932,27.096L22.932,29.544L14.94,29.544ZM2.592,13.056L2.592,44.952L5.616,44.952L5.616,16.116L9.612,16.116C8.82,18.528,7.776,21.552,6.768,23.964C9.468,26.7,10.152,29.112,10.152,30.984C10.188,32.1,9.972,33,9.396,33.324C9.072,33.576,8.676,33.648,8.208,33.684C7.668,33.72,6.948,33.72,6.156,33.612C6.624,34.476,6.948,35.736,6.984,36.564C7.848,36.6,8.784,36.6,9.54,36.528C10.332,36.42,11.016,36.168,11.592,35.808C12.708,34.98,13.212,33.432,13.212,31.308C13.176,29.112,12.6,26.556,9.828,23.604C11.124,20.796,12.492,17.232,13.608,14.244L11.376,12.948L10.872,13.056L2.592,13.056ZM36,42L40.284,42L42.516,34.476L51.732,34.476L53.964,42L58.392,42L49.608,15.468L44.784,15.468L36,42ZM43.524,31.164L44.568,27.6C45.432,24.72,46.26,21.804,47.052,18.78L47.196,18.78C48.024,21.768,48.816,24.72,49.68,27.6L50.724,31.164L43.524,31.164ZM61.884,42L66.06,42L66.06,15.468L61.884,15.468L61.884,42ZM83.844,42.504C87.444,42.504,90.432,41.136,92.196,39.372L92.196,27.888L83.16,27.888L83.16,31.344L88.38,31.344L88.38,37.536C87.48,38.328,85.896,38.832,84.276,38.832C78.768,38.832,75.852,34.944,75.852,28.68C75.852,22.452,79.128,18.636,84.06,18.636C86.616,18.636,88.236,19.716,89.568,21.012L91.8,18.348C90.216,16.656,87.696,15,83.952,15C76.896,15,71.532,20.184,71.532,28.788C71.532,37.5,76.752,42.504,83.844,42.504ZM108.576,42.504C112.032,42.504,114.696,41.136,116.856,38.652L114.588,35.988C113.004,37.716,111.168,38.832,108.756,38.832C104.076,38.832,101.088,34.944,101.088,28.68C101.088,22.452,104.292,18.636,108.864,18.636C110.988,18.636,112.644,19.644,114.048,21.012L116.28,18.348C114.66,16.584,112.068,15,108.792,15C102.06,15,96.768,20.184,96.768,28.788C96.768,37.5,101.916,42.504,108.576,42.504ZM147.672,18.852C146.448,20.292,144.324,22.272,142.74,23.424L145.26,25.008C146.844,23.892,148.896,22.2,150.516,20.544L147.672,18.852ZM119.772,29.58L121.464,32.316C123.804,31.2,126.684,29.688,129.384,28.212L128.736,25.692C125.424,27.204,122.04,28.716,119.772,29.58ZM120.816,20.832C122.724,21.984,125.1,23.784,126.216,25.008L128.628,22.956C127.404,21.732,124.992,20.076,123.084,18.996L120.816,20.832ZM142.236,27.6C144.72,29.04,147.816,31.164,149.292,32.604L151.812,30.552C150.192,29.112,146.988,27.06,144.612,25.728L142.236,27.6ZM119.736,34.656L119.736,37.824L134.208,37.824L134.208,44.988L137.808,44.988L137.808,37.824L152.316,37.824L152.316,34.656L137.808,34.656L137.808,31.956L134.208,31.956L134.208,34.656L119.736,34.656ZM133.236,12.192C133.74,12.948,134.28,13.848,134.712,14.676L120.528,14.676L120.528,17.808L133.344,17.808C132.372,19.32,131.364,20.58,130.968,20.976C130.428,21.624,129.888,22.056,129.348,22.164C129.672,22.92,130.104,24.324,130.284,24.936C130.824,24.72,131.652,24.54,135.18,24.288C133.632,25.8,132.3,26.988,131.652,27.492C130.428,28.5,129.528,29.148,128.664,29.292C128.988,30.084,129.42,31.524,129.6,32.136C130.392,31.74,131.724,31.524,140.832,30.696C141.192,31.344,141.48,31.992,141.66,32.532L144.36,31.452C143.64,29.688,141.912,27.096,140.328,25.188L137.808,26.124C138.312,26.772,138.852,27.492,139.356,28.248L134.1,28.644C137.16,26.232,140.22,23.208,142.884,20.04L140.22,18.492C139.5,19.5,138.672,20.508,137.844,21.444L133.812,21.624C134.856,20.472,135.864,19.176,136.8,17.808L151.92,17.808L151.92,14.676L138.744,14.676C138.204,13.668,137.412,12.372,136.656,11.364L133.236,12.192Z" fill="#0C0E43" fill-opacity="1"/></g></g></svg>