<svg xmlns="http://www.w3.org/2000/svg" xmlns:xlink="http://www.w3.org/1999/xlink" fill="none" version="1.1" width="20" height="20" viewBox="0 0 20 20"><defs><linearGradient x1="0" y1="0" x2="1" y2="1" id="master_svg0_55_17796"><stop offset="0%" stop-color="#008AFF" stop-opacity="1"/><stop offset="100%" stop-color="#0073FF" stop-opacity="1"/></linearGradient></defs><g><g style="opacity:0;"><rect x="0" y="0" width="20" height="20" rx="0" fill="#D8D8D8" fill-opacity="1"/></g><g><path d="M14.8445,3L5.155530000000001,3C3.9641830000000002,3,3,3.9641830000000002,3,5.155530000000001L3,6.30481C3.0605769,6.33173,3.117788,6.36707,3.166587,6.41587L6.49832,9.7476L8.973559999999999,7.27236C9.18389,7.06202,9.52548,7.06202,9.73413,7.27236L12.76803,10.30625L13.2207,9.85361C13.4209,9.653369999999999,13.7642,9.74423,13.8365,10.01851L14.4827,12.42644C14.5567,12.70072,14.306,12.95144,14.0317,12.87741L11.6238,12.23125C11.34952,12.15721,11.25865,11.81563,11.45889,11.61539L12.00745,11.06683L9.353850000000001,8.4149L6.87861,10.89015C6.66827,11.10048,6.32668,11.10048,6.11803,10.89015L3,7.77212L3,14.8445C3,16.035800000000002,3.9641830000000002,17,5.155530000000001,17L14.8445,17C16.034100000000002,17,17,16.035800000000002,17,14.8445L17,5.155530000000001C17,3.9641830000000002,16.035800000000002,3,14.8445,3Z" fill="url(#master_svg0_55_17796)" fill-opacity="1" style="mix-blend-mode:passthrough"/></g></g></svg>