<?xml version="1.0" standalone="no"?><!DOCTYPE svg PUBLIC "-//W3C//DTD SVG 1.1//EN" "http://www.w3.org/Graphics/SVG/1.1/DTD/svg11.dtd"><svg t="1776069725925" class="icon" viewBox="0 0 1024 1024" version="1.1" xmlns="http://www.w3.org/2000/svg" p-id="31849" width="32" height="32" xmlns:xlink="http://www.w3.org/1999/xlink"><path d="M13.837838 13.837838m221.405405 0l553.513514 0q221.405405 0 221.405405 221.405405l0 553.513514q0 221.405405-221.405405 221.405405l-553.513514 0q-221.405405 0-221.405405-221.405405l0-553.513514q0-221.405405 221.405405-221.405405Z" fill="#1296db" p-id="31850" data-spm-anchor-id="a313x.search_index.0.i121.65843a81415OU4" class="selected"></path><path d="M696.043243 229.708108c25.212541 0 45.664865 20.452324 45.664865 45.664865V512a19.372973 19.372973 0 0 1-38.745946 0V275.372973a6.918919 6.918919 0 0 0-6.918919-6.918919h-368.086486a6.918919 6.918919 0 0 0-6.918919 6.918919v473.254054c0 3.819243 3.099676 6.918919 6.918919 6.918919H512a19.372973 19.372973 0 1 1 0 38.745946h-184.043243a45.664865 45.664865 0 0 1-45.664865-45.664865V275.372973c0-25.212541 20.452324-45.664865 45.664865-45.664865h368.086486z" fill="#ffffff" p-id="31851" data-spm-anchor-id="a313x.search_index.0.i124.65843a81415OU4" class=""></path><path d="M663.164541 779.762162a17.989189 17.989189 0 0 0 17.989189-17.989189V590.875676a17.989189 17.989189 0 1 0-35.978379 0v170.897297c0 9.935568 8.081297 17.989189 17.98919 17.989189z" fill="#ffffff" p-id="31852" data-spm-anchor-id="a313x.search_index.0.i122.65843a81415OU4" class=""></path><path d="M651.430054 786.653405a16.605405 16.605405 0 0 0 23.496649 0l59.142919-59.142919a16.605405 16.605405 0 1 0-23.468973-23.496648l-47.436108 47.436108-47.408433-47.436108a16.605405 16.605405 0 0 0-21.171892-1.937297l-2.297081 1.937297a16.605405 16.605405 0 0 0 0 23.496648l59.142919 59.142919zM617.167568 387.459459a19.372973 19.372973 0 1 1 0 38.745946h-210.335136a19.372973 19.372973 0 0 1 0-38.745946h210.335136zM512 492.627027a19.372973 19.372973 0 0 1 0 38.745946h-105.167568a19.372973 19.372973 0 0 1 0-38.745946H512z" fill="#ffffff" p-id="31853" data-spm-anchor-id="a313x.search_index.0.i123.65843a81415OU4" class=""></path></svg>