<svg xmlns="http://www.w3.org/2000/svg" xmlns:xlink="http://www.w3.org/1999/xlink" fill="none" version="1.1" width="32" height="32" viewBox="0 0 32 32"><defs><clipPath id="master_svg0_1545_42050"><rect x="0" y="0" width="32" height="32" rx="0"/></clipPath></defs><g clip-path="url(#master_svg0_1545_42050)"><g><ellipse cx="16" cy="16" rx="14.5" ry="14.5" fill-opacity="0" stroke-opacity="1" stroke="#D8D8D8" fill="none" stroke-width="3"/></g><g><path d="M15.804179999999999,18.1203390625L20.0474,22.363589062499997Q20.0995,22.4156890625,20.1565,22.4623890625Q20.2134,22.5091890625,20.2747,22.5500890625Q20.336,22.5909890625,20.401,22.6257890625Q20.465899999999998,22.660489062499998,20.534,22.6886890625Q20.6021,22.7168890625,20.6726,22.7382890625Q20.7431,22.7596890625,20.8154,22.7740890625Q20.887700000000002,22.7884890625,20.961,22.7956890625Q21.034399999999998,22.8028890625,21.108,22.8028890625Q21.1817,22.8028890625,21.2551,22.7956890625Q21.328400000000002,22.7884890625,21.4007,22.7740890625Q21.473,22.7596890625,21.5435,22.7382890625Q21.614,22.7168890625,21.6821,22.6886890625Q21.7502,22.660489062499998,21.8151,22.6257890625Q21.8801,22.5909890625,21.9414,22.5500890625Q22.0027,22.5091890625,22.0596,22.4623890625Q22.1166,22.4156890625,22.1687,22.363589062499997Q22.2208,22.3114890625,22.2676,22.2544890625Q22.3143,22.1974890625,22.3553,22.136289062499998Q22.3962,22.074989062500002,22.4309,22.0099890625Q22.4657,21.9449890625,22.4939,21.8768890625Q22.522100000000002,21.8087890625,22.5435,21.7382890625Q22.564799999999998,21.6677890625,22.5792,21.5954890625Q22.593600000000002,21.523289062499998,22.6008,21.4498890625Q22.608,21.376589062500003,22.608,21.3028890625Q22.608,21.229189062499998,22.6008,21.155889062500002Q22.593600000000002,21.082489062500002,22.5792,21.0102890625Q22.564799999999998,20.9379890625,22.5435,20.8674890625Q22.522100000000002,20.7969890625,22.4939,20.728889062500002Q22.4657,20.6607890625,22.4309,20.5957890625Q22.3962,20.5307890625,22.3553,20.4694890625Q22.3143,20.4082890625,22.2676,20.3512890625Q22.2208,20.294389062500002,22.1687,20.2421890625L17.9255,15.9990190625L22.167299999999997,11.7571790625Q22.2718,11.6527090625,22.3539,11.5298690625Q22.436,11.4070290625,22.4925,11.2705390625Q22.549,11.1340490625,22.5779,10.9891490625Q22.6067,10.8442490625,22.6067,10.6965190625Q22.6067,10.5487790625,22.5779,10.4038790625Q22.549,10.2589790625,22.4925,10.1224900625Q22.436,9.9859990625,22.3539,9.8631600625Q22.2718,9.7403210625,22.167299999999997,9.6358550625Q22.1152,9.5837480625,22.0583,9.5370000625Q22.0013,9.4902510625,21.939999999999998,9.4493110625Q21.8788,9.4083710625,21.8138,9.3736340625Q21.7488,9.3388960625,21.6807,9.3106960625Q21.6126,9.2824962625,21.542099999999998,9.2611051625Q21.471600000000002,9.2397139625,21.3993,9.2253376625Q21.3271,9.2109614625,21.253700000000002,9.2037385425Q21.1804,9.1965156295,21.1067,9.1965156295Q21.033,9.1965156295,20.959699999999998,9.2037385425Q20.8863,9.2109614625,20.8141,9.2253376625Q20.741799999999998,9.2397139625,20.671300000000002,9.2611051625Q20.6007,9.2824962625,20.5327,9.3106960625Q20.4646,9.3388960625,20.3996,9.3736340625Q20.334600000000002,9.4083710625,20.2733,9.4493110625Q20.2121,9.4902510625,20.155099999999997,9.5370000625Q20.098100000000002,9.5837480625,20.046,9.6358550625L15.804179999999999,13.8776990625L11.56211,9.6356290625Q11.51,9.5835220625,11.45304,9.5367730625Q11.39607,9.490025062499999,11.3348,9.4490850625Q11.273530000000001,9.4081450625,11.20854,9.3734070625Q11.14355,9.3386700625,11.07547,9.3104700625Q11.007390000000001,9.2822697625,10.93687,9.2608786625Q10.86636,9.2394874625,10.79408,9.2251111625Q10.72181,9.2107349625,10.64847,9.2035120425Q10.57514,9.1962891323312,10.50145,9.1962891323312Q10.42776,9.1962891323312,10.35442,9.2035120425Q10.28109,9.2107349625,10.20881,9.2251111625Q10.13654,9.2394874625,10.06602,9.2608786625Q9.995503,9.2822697625,9.927422,9.3104700625Q9.859341,9.3386700625,9.794352,9.3734070625Q9.729363,9.4081450625,9.668092,9.4490850625Q9.606821,9.490025062499999,9.549857,9.5367730625Q9.492894,9.5835220625,9.440787,9.6356290625Q9.38868,9.6877360625,9.341932,9.7446990625Q9.295183,9.8016630625,9.254243,9.8629340625Q9.213303,9.9242050625,9.178565,9.9891940625Q9.143828,10.0541830625,9.115628,10.1222640625Q9.0874279,10.1903450625,9.0660368,10.2608590625Q9.0446456,10.3313790625,9.0302693,10.4036490625Q9.0158931,10.4759290625,9.00867018,10.5492590625Q9.00144727,10.6225990625,9.00144727,10.6962890625Q9.00144727,10.7699790625,9.00867018,10.8433190625Q9.0158931,10.9166490625,9.0302693,10.9889290625Q9.0446456,11.0611990625,9.0660368,11.1317190625Q9.0874279,11.202229062499999,9.115628,11.2703090625Q9.143828,11.3383990625,9.178565,11.4033890625Q9.213303,11.468369062499999,9.254243,11.529649062499999Q9.295183,11.5909190625,9.341932,11.6478790625Q9.38868,11.7048390625,9.440787,11.7569490625L13.68286,15.9990190625L9.439427,20.2424890625Q9.387321,20.294589062500002,9.340572,20.3514890625Q9.293823,20.4084890625,9.252883,20.4697890625Q9.211943,20.530989062499998,9.177206,20.5959890625Q9.142469,20.6609890625,9.114269,20.7290890625Q9.0860685,20.7971890625,9.0646774,20.8676890625Q9.0432863,20.9381890625,9.0289101,21.0104890625Q9.0145339,21.082789062499998,9.00731099,21.1560890625Q9.0000881113,21.229389062499997,9.0000881444,21.3030890625Q9.0000881775,21.376789062500002,9.00731112,21.4501890625Q9.0145341,21.523489062499998,9.0289103,21.5957890625Q9.0432866,21.6679890625,9.0646778,21.738589062499997Q9.086069,21.8090890625,9.114269,21.8771890625Q9.142469,21.9451890625,9.177207,22.0101890625Q9.211944,22.0751890625,9.252884,22.1364890625Q9.293824,22.1977890625,9.340573,22.2546890625Q9.387321,22.3116890625,9.439428,22.3637890625Q9.491535,22.4158890625,9.548498,22.4625890625Q9.605462,22.5093890625,9.666733,22.5502890625Q9.728004,22.5912890625,9.792993,22.6259890625Q9.857982,22.660689062499998,9.926063,22.6888890625Q9.994144,22.7170890625,10.06466,22.7384890625Q10.13518,22.7598890625,10.20745,22.7742890625Q10.27973,22.788689062499998,10.35306,22.795889062500002Q10.4264,22.8030890625,10.50009,22.8030890625Q10.57378,22.8030890625,10.64711,22.795889062500002Q10.72045,22.788689062499998,10.79272,22.7742890625Q10.865,22.7598890625,10.93551,22.7384890625Q11.006029999999999,22.7170890625,11.074110000000001,22.6888890625Q11.14219,22.660689062499998,11.207180000000001,22.6259890625Q11.27217,22.5912890625,11.33344,22.5502890625Q11.39471,22.5093890625,11.45168,22.4625890625Q11.50864,22.4158890625,11.56075,22.3637890625L15.804179999999999,18.1203390625Z" fill-rule="evenodd" fill="#D8D8D8" fill-opacity="1"/></g></g></svg>