<svg xmlns="http://www.w3.org/2000/svg" xmlns:xlink="http://www.w3.org/1999/xlink" fill="none" version="1.1" width="24" height="24" viewBox="0 0 24 24"><defs><clipPath id="master_svg0_1164_35632"><rect x="0" y="0" width="24" height="24" rx="0"/></clipPath></defs><g clip-path="url(#master_svg0_1164_35632)"><g><path d="M12,0C5.4,0,0,5.4,0,12C0,18.6,5.4,24,12,24C18.6,24,24,18.6,24,12C24,5.4,18.6,0,12,0ZM12.6,17.1C12.3,17.25,12.15,17.4,11.85,17.4C11.55,17.4,11.25,17.25,11.1,17.1C10.95,16.95,10.8,16.65,10.8,16.35C10.8,16.05,10.95,15.75,11.1,15.6C11.25,15.45,11.55,15.3,11.85,15.3C12.15,15.3,12.45,15.45,12.6,15.6C12.75,15.75,12.9,16.05,12.9,16.35C12.9,16.65,12.9,16.95,12.6,17.1ZM14.85,11.25C14.7,11.55,14.25,11.85,13.5,12.45C13.2,12.75,13.05,13.05,12.9,13.2C12.9,13.35,12.75,13.5,12.75,13.8C12.75,14.25,12.3,14.55,12,14.55C11.55,14.55,11.1,14.1,11.25,13.65C11.25,13.35,11.4,13.05,11.4,12.9C11.55,12.45,12.15,11.85,13.05,11.1L13.35,10.8C13.65,10.5,13.8,10.05,13.8,9.75C13.8,9.3,13.65,8.85,13.35,8.55C13.05,8.1,12.6,7.95,12,7.95C11.25,7.95,10.8,8.1,10.5,8.55C10.35,8.7,10.2,9,10.2,9.45C10.2,9.9,9.75,10.2,9.45,10.2C9,10.2,8.55,9.75,8.7,9.15C8.85,8.4,9.15,7.95,9.45,7.5C10.05,6.9,10.95,6.6,12,6.6C13.05,6.6,13.8,6.9,14.4,7.35C15,7.95,15.3,8.55,15.3,9.45C15.3,10.2,15.15,10.8,14.85,11.25Z" fill="#BCBEC3" fill-opacity="1" style="mix-blend-mode:passthrough"/></g></g></svg>