<svg xmlns="http://www.w3.org/2000/svg" xmlns:xlink="http://www.w3.org/1999/xlink" fill="none" version="1.1" width="36" height="38" viewBox="0 0 36 38"><defs><mask id="master_svg0_1945_38841" style="mask-type:alpha" maskUnits="objectBoundingBox"><g><rect x="0" y="0" width="36" height="38" rx="0" fill="#FFFFFF" fill-opacity="1"/></g></mask></defs><g mask="url(#master_svg0_1945_38841)"><g transform="matrix(0.9979296922683716,0.0643145814538002,-0.0643145814538002,0.9979296922683716,0.005450732074677944,-0.16932823398383334)"><path d="M2.6328125,40.9298L36.1461125,40.9298L36.1461125,0L2.6328125,40.9298Z" fill="#006CFF" fill-opacity="1"/><path d="M0.5215624999999999,41.9298L37.1461125,41.9298L37.1461125,-2.79977L0.5215624999999999,41.9298ZM36.1461125,40.9298L2.6328125,40.9298L36.1461125,0L36.1461125,40.9298Z" fill-rule="evenodd" fill="#006CFF" fill-opacity="1"/></g><g transform="matrix(0.9862520694732666,-0.16524775326251984,0.16524775326251984,0.9862520694732666,-4.231121326934954,3.1806677310960367)"><path d="M22.50488,33.58095296875L17.219727,28.29814296875C16.9267578,28.00517596875,16.9267578,27.53173796875,17.219727,27.23876996875C17.512695,26.94580076875,17.986133,26.94580076875,18.2791,27.23876996875L23.56191,32.521582968749996C23.85488,32.81455296875,23.85488,33.287992968750004,23.56191,33.58095296875C23.27129,33.87392296875,22.79551,33.87392296875,22.50488,33.58095296875Z" fill="#FFFFFF" fill-opacity="1" style="mix-blend-mode:passthrough"/></g><g transform="matrix(0.9862520694732666,-0.16524775326251984,0.16524775326251984,0.9862520694732666,-3.593175382404297,3.924848746409225)"><path d="M22.01292787109375,32.75751890625C21.71761487109375,32.46220890625,21.71761487109375,31.97938890625,22.01292787109375,31.68407890625L29.91839287109375,23.77861390625C30.21370287109375,23.48330090625,30.696522871093748,23.48330090625,30.99183287109375,23.77861390625C31.28714287109375,24.07392590625,31.28714287109375,24.55673890625,30.99183287109375,24.85204890625L23.08636287109375,32.75751890625C22.79105287109375,33.05517890625,22.31058387109375,33.05517890625,22.01292787109375,32.75751890625Z" fill="#FFFFFF" fill-opacity="1" style="mix-blend-mode:passthrough"/></g></g></svg>