<svg xmlns="http://www.w3.org/2000/svg" xmlns:xlink="http://www.w3.org/1999/xlink" fill="none" version="1.1" width="30" height="30" viewBox="0 0 30 30"><defs><clipPath id="master_svg0_1449_48064"><rect x="0" y="0" width="30" height="30" rx="0"/></clipPath></defs><g clip-path="url(#master_svg0_1449_48064)"><g><path d="M11.3181321875,11.290884772460938Q11.3181321875,11.387586772460937,11.2992621875,11.482426772460938Q11.2804021875,11.577266772460938,11.2433921875,11.666606772460938Q11.206382187500001,11.755946772460938,11.1526621875,11.836356772460938Q11.0989421875,11.916756772460937,11.0305621875,11.985136772460937Q10.9621821875,12.053516772460938,10.8817821875,12.107236772460938Q10.8013721875,12.160956772460938,10.7120321875,12.197966772460937Q10.6226921875,12.234976772460938,10.5278521875,12.253836772460938Q10.4330121875,12.272706772460937,10.3363101875,12.272706772460937Q10.2396091875,12.272706772460937,10.1447671875,12.253836772460938Q10.0499241875,12.234976772460938,9.9605851875,12.197966772460937Q9.8712451875,12.160956772460938,9.7908411875,12.107236772460938Q9.7104381875,12.053516772460938,9.6420601875,11.985136772460937Q9.5736821875,11.916756772460937,9.5199581875,11.836356772460938Q9.4662341875,11.755946772460938,9.4292285875,11.666606772460938Q9.3922228875,11.577266772460938,9.3733575875,11.482426772460938Q9.3544921875,11.387586772460937,9.3544921875,11.290884772460938Q9.3544921875,11.194183772460937,9.3733575875,11.099341772460937Q9.3922228875,11.004498772460938,9.4292285875,10.915159772460937Q9.4662341875,10.825819772460937,9.5199581875,10.745415772460937Q9.5736821875,10.665012772460937,9.6420601875,10.596634772460938Q9.7104381875,10.528256772460937,9.7908411875,10.474532772460938Q9.8712451875,10.420808772460937,9.9605851875,10.383803272460938Q10.0499241875,10.346797472460937,10.1447671875,10.327932172460937Q10.2396091875,10.309066772460938,10.3363101875,10.309066772460938Q10.4330121875,10.309066772460938,10.5278521875,10.327932172460937Q10.6226921875,10.346797472460937,10.7120321875,10.383803272460938Q10.8013721875,10.420808772460937,10.8817821875,10.474532772460938Q10.9621821875,10.528256772460937,11.0305621875,10.596634772460938Q11.0989421875,10.665012772460937,11.1526621875,10.745415772460937Q11.206382187500001,10.825819772460937,11.2433921875,10.915159772460937Q11.2804021875,11.004498772460938,11.2992621875,11.099341772460937Q11.3181321875,11.194183772460937,11.3181321875,11.290884772460938Z" fill="#50B674" fill-opacity="1" style="mix-blend-mode:passthrough"/></g><g><path d="M13.74560636282,11.263646833984374C13.74507707375,11.806269833984375,14.18480646875,12.246419833984374,14.72742346875,12.246419833984374C15.27004546875,12.246419833984374,15.70977546875,11.806269833984375,15.70924546875,11.263646833984374C15.70924546875,10.721404833984375,15.26966546875,10.281829833984375,14.72742346875,10.281829833984375C14.18518046875,10.281829833984375,13.74560546875,10.721404833984375,13.74560636282,11.263646833984374Z" fill="#50B674" fill-opacity="1" style="mix-blend-mode:passthrough"/></g><g><path d="M17.5638353125,15.654582061523438Q17.5638353125,15.721735061523438,17.5507353125,15.787598061523438Q17.5376253125,15.853461061523438,17.5119353125,15.915503061523438Q17.4862353125,15.977543061523438,17.4489253125,16.033383061523438Q17.4116153125,16.089213061523438,17.3641353125,16.136703061523438Q17.3166453125,16.184183061523438,17.2608153125,16.221493061523436Q17.2049753125,16.258803061523437,17.1429343125,16.284503061523438Q17.0808923125,16.31020306152344,17.0150303125,16.323303061523436Q16.9491673125,16.336403061523438,16.8820133125,16.336403061523438Q16.8148603125,16.336403061523438,16.7489973125,16.323303061523436Q16.683134312500002,16.31020306152344,16.6210933125,16.284503061523438Q16.5590513125,16.258803061523437,16.5032153125,16.221493061523436Q16.4473803125,16.184183061523438,16.3998953125,16.136703061523438Q16.352410312499998,16.089213061523438,16.3151023125,16.033383061523438Q16.2777941125,15.977543061523438,16.2520956125,15.915503061523438Q16.2263972125,15.853461061523438,16.2132962125,15.787598061523438Q16.2001953125,15.721735061523438,16.2001953125,15.654582061523438Q16.2001953125,15.587429061523437,16.2132962125,15.521566061523437Q16.2263972125,15.455703061523437,16.2520956125,15.393661061523437Q16.2777941125,15.331619061523437,16.3151023125,15.275784061523437Q16.352410312499998,15.219948061523437,16.3998953125,15.172463061523437Q16.4473803125,15.124979061523437,16.5032153125,15.087670061523438Q16.5590513125,15.050361861523438,16.6210933125,15.024663461523437Q16.683134312500002,14.998964961523438,16.7489973125,14.985864061523438Q16.8148603125,14.972763061523438,16.8820133125,14.972763061523438Q16.9491673125,14.972763061523438,17.0150303125,14.985864061523438Q17.0808923125,14.998964961523438,17.1429343125,15.024663461523437Q17.2049753125,15.050361861523438,17.2608153125,15.087670061523438Q17.3166453125,15.124979061523437,17.3641353125,15.172463061523437Q17.4116153125,15.219948061523437,17.4489253125,15.275784061523437Q17.4862353125,15.331619061523437,17.5119353125,15.393661061523437Q17.5376253125,15.455703061523437,17.5507353125,15.521566061523437Q17.5638353125,15.587429061523437,17.5638353125,15.654582061523438Z" fill="#50B674" fill-opacity="1" style="mix-blend-mode:passthrough"/></g><g><path d="M21.0277025,15.709048309082032Q21.0277025,15.776201309082031,21.0146025,15.842064309082032Q21.0014925,15.907927309082032,20.9758025,15.969969309082032Q20.9501025,16.03200930908203,20.9127925,16.08784930908203Q20.8754825,16.14367930908203,20.8280025,16.19116930908203Q20.7805125,16.23864930908203,20.7246825,16.27595930908203Q20.6688425,16.31326930908203,20.6068015,16.33896930908203Q20.5447595,16.364669309082032,20.4788975,16.37776930908203Q20.4130345,16.39086930908203,20.3458805,16.39086930908203Q20.2787275,16.39086930908203,20.2128645,16.37776930908203Q20.147001500000002,16.364669309082032,20.0849605,16.33896930908203Q20.0229185,16.31326930908203,19.9670825,16.27595930908203Q19.9112475,16.23864930908203,19.8637625,16.19116930908203Q19.816277499999998,16.14367930908203,19.7789695,16.08784930908203Q19.7416613,16.03200930908203,19.7159628,15.969969309082032Q19.6902644,15.907927309082032,19.6771634,15.842064309082032Q19.6640625,15.776201309082031,19.6640625,15.709048309082032Q19.6640625,15.641895309082031,19.6771634,15.57603230908203Q19.6902644,15.51016930908203,19.7159628,15.44812730908203Q19.7416613,15.38608530908203,19.7789695,15.33025030908203Q19.816277499999998,15.274414309082031,19.8637625,15.226929309082031Q19.9112475,15.17944530908203,19.9670825,15.142136309082032Q20.0229185,15.104828109082032,20.0849605,15.07912970908203Q20.147001500000002,15.053431209082031,20.2128645,15.040330309082032Q20.2787275,15.027229309082031,20.3458805,15.027229309082031Q20.4130345,15.027229309082031,20.4788975,15.040330309082032Q20.5447595,15.053431209082031,20.6068015,15.07912970908203Q20.6688425,15.104828109082032,20.7246825,15.142136309082032Q20.7805125,15.17944530908203,20.8280025,15.226929309082031Q20.8754825,15.274414309082031,20.9127925,15.33025030908203Q20.9501025,15.38608530908203,20.9758025,15.44812730908203Q21.0014925,15.51016930908203,21.0146025,15.57603230908203Q21.0277025,15.641895309082031,21.0277025,15.709048309082032Z" fill="#50B674" fill-opacity="1" style="mix-blend-mode:passthrough"/></g><g><path d="M15,0C6.70909,0,0,6.70909,0,15C0,23.2909,6.70909,30,15,30C23.2909,30,30,23.2909,30,15C30,6.70909,23.2909,0,15,0ZM12.4364,18.4636C11.6455,18.4636,11.0182,18.3,10.2273,18.1364L8.01818,19.2273L8.64546,17.3455C7.06364,16.2545,6.13636,14.8364,6.13636,13.0909C6.13636,10.0909,8.97273,7.74546,12.4364,7.74546C15.5182,7.74546,18.2455,9.62727,18.7909,12.1636C18.6,12.1364,18.3818,12.1364,18.1909,12.1364C15.1909,12.1364,12.8455,14.3727,12.8455,17.1273C12.8455,17.5909,12.9273,18.0273,13.0364,18.4364C12.8182,18.4364,12.6273,18.4636,12.4364,18.4636ZM21.6545,20.6727L22.1182,22.2545L20.4,21.3C19.7727,21.4636,19.1455,21.6273,18.5182,21.6273C15.5182,21.6273,13.1727,19.5818,13.1727,17.0727C13.1727,14.5636,15.5182,12.5182,18.5182,12.5182C21.3545,12.5182,23.8636,14.5636,23.8636,17.0727C23.8636,18.4636,22.9364,19.7182,21.6545,20.6727Z" fill="#50B674" fill-opacity="1" style="mix-blend-mode:passthrough"/></g></g></svg>