<svg xmlns="http://www.w3.org/2000/svg" xmlns:xlink="http://www.w3.org/1999/xlink" fill="none" version="1.1" width="24" height="24" viewBox="0 0 24 24"><defs><clipPath id="master_svg0_1453_40278"><rect x="0" y="0" width="24" height="24" rx="0"/></clipPath></defs><g clip-path="url(#master_svg0_1453_40278)"><g><path d="M12.0000087890625,22.4535087890625C6.2362787890625,22.4535087890625,1.5465087890625,17.7645087890625,1.5465087890625,12.0000087890625C1.5465087890625,6.2362787890625,6.2362387890625,1.5465087890625,12.0000087890625,1.5465087890625C17.7645087890625,1.5465087890625,22.4535087890625,6.2355187890625,22.4535087890625,12.0000087890625C22.4535087890625,17.7645087890625,17.7645087890625,22.4535087890625,12.0000087890625,22.4535087890625ZM12.0000087890625,3.0465087890625C7.0627787890625,3.0465087890625,3.0465087890625,7.0627387890625,3.0465087890625,12.0000087890625C3.0465087890625,16.9365087890625,7.0627387890625,20.9535087890625,12.0000087890625,20.9535087890625C16.9365087890625,20.9535087890625,20.9535087890625,16.9373087890625,20.9535087890625,12.0000087890625C20.9535087890625,7.0627387890625,16.9365087890625,3.0465087890625,12.0000087890625,3.0465087890625Z" fill="#999999" fill-opacity="1" style="mix-blend-mode:passthrough"/></g><g><path d="M13.12502,7.12501Q13.12502,7.18028,13.1196,7.2352799999999995Q13.11419,7.29028,13.1034,7.34449Q13.09262,7.39869,13.07658,7.45158Q13.06053,7.5044699999999995,13.03938,7.55553Q13.018229999999999,7.60659,12.99218,7.65534Q12.96613,7.70408,12.93542,7.75003Q12.904720000000001,7.79599,12.86965,7.83871Q12.83459,7.88143,12.79551,7.92051Q12.75643,7.95959,12.71371,7.99465Q12.67099,8.029720000000001,12.62503,8.06042Q12.57908,8.09113,12.53034,8.11718Q12.48159,8.143229999999999,12.430530000000001,8.16438Q12.37947,8.18553,12.32658,8.20158Q12.27369,8.21762,12.21949,8.2284Q12.16528,8.23919,12.11028,8.2446Q12.05528,8.25002,12.00001,8.25002Q11.94474,8.25002,11.88974,8.2446Q11.834738,8.23919,11.780531,8.2284Q11.726325,8.21762,11.673437,8.20158Q11.620548,8.18553,11.569487,8.16438Q11.518426,8.143229999999999,11.469684,8.11718Q11.420942,8.09113,11.374988,8.06042Q11.329034,8.029720000000001,11.286311,7.99465Q11.243588,7.95959,11.204508,7.92051Q11.165427,7.88143,11.130366,7.83871Q11.095304,7.79599,11.064598,7.75003Q11.033893,7.70408,11.00784,7.65534Q10.981787,7.60659,10.9606363,7.55553Q10.9394861,7.5044699999999995,10.9234426,7.45158Q10.907399,7.39869,10.8966167,7.34449Q10.8858345,7.29028,10.88041723,7.2352799999999995Q10.875,7.18028,10.875,7.12501Q10.875,7.0697399999999995,10.88041723,7.01474Q10.8858345,6.959738,10.8966167,6.905531Q10.907399,6.851325,10.9234426,6.798437Q10.9394861,6.745548,10.9606363,6.694487Q10.981787,6.643426,11.00784,6.594684Q11.033893,6.545942,11.064598,6.499988Q11.095304,6.454034,11.130366,6.4113109999999995Q11.165427,6.368588,11.204508,6.329508Q11.243588,6.290427,11.286311,6.255366Q11.329034,6.220304,11.374988,6.189598Q11.420942,6.158893,11.469684,6.13284Q11.518426,6.106787,11.569487,6.0856363Q11.620548,6.0644861,11.673437,6.0484426Q11.726325,6.032399,11.780531,6.0216167Q11.834738,6.0108345,11.88974,6.00541723Q11.94474,6,12.00001,6Q12.05528,6,12.11028,6.00541723Q12.16528,6.0108345,12.21949,6.0216167Q12.27369,6.032399,12.32658,6.0484426Q12.37947,6.0644861,12.430530000000001,6.0856363Q12.48159,6.106787,12.53034,6.13284Q12.57908,6.158893,12.62503,6.189598Q12.67099,6.220304,12.71371,6.255366Q12.75643,6.290427,12.79551,6.329508Q12.83459,6.368588,12.86965,6.4113109999999995Q12.904720000000001,6.454034,12.93542,6.499988Q12.96613,6.545942,12.99218,6.594684Q13.018229999999999,6.643426,13.03938,6.694487Q13.06053,6.745548,13.07658,6.798437Q13.09262,6.851325,13.1034,6.905531Q13.11419,6.959738,13.1196,7.01474Q13.12502,7.0697399999999995,13.12502,7.12501Z" fill="#999999" fill-opacity="1" style="mix-blend-mode:passthrough"/></g><g><path d="M12.00002,18.00002C11.586003,18.00002,11.25,17.66478,11.25,17.25L11.25,10.50002C11.25,10.086003,11.586004,9.75,12.00002,9.75C12.41404,9.75,12.75004,10.086004,12.75004,10.50002L12.75004,17.25C12.75004,17.66478,12.41404,18.00002,12.00002,18.00002Z" fill="#999999" fill-opacity="1" style="mix-blend-mode:passthrough"/></g></g></svg>