<svg xmlns="http://www.w3.org/2000/svg" xmlns:xlink="http://www.w3.org/1999/xlink" fill="none" version="1.1" width="44.685546875" height="44.38671875" viewBox="0 0 44.685546875 44.38671875"><g><g><g transform="matrix(0.7952128052711487,-0.606330394744873,0.605477511882782,0.7958623766899109,-12.002391084046167,4.046623601785768)"><path d="M4.64367,31.611917120361326C3.18796,31.611917120361326,2.58561,33.47691712036133,3.76627,34.328517120361326L9.21314,38.257017120361326C9.74271,38.63891712036133,9.96437,39.31961712036133,9.76127,39.94011712036133L7.67644,46.310117120361326C7.22479,47.69011712036133,8.80167,48.842617120361325,9.97939,47.993317120361326L15.4693,44.034417120361326C15.9932,43.65661712036133,16.7002,43.65661712036133,17.2241,44.034417120361326L22.714,47.993317120361326C23.8917,48.842617120361325,25.4686,47.69011712036133,25.017,46.310117120361326L22.9321,39.94011712036133C22.729,39.31961712036133,22.9507,38.63891712036133,23.4803,38.257017120361326L28.9271,34.328517120361326C30.1078,33.47691712036133,29.5055,31.611917120361326,28.0497,31.611917120361326L21.2932,31.61161712036133C20.6446,31.61161712036133,20.0695,31.19471712036133,19.8677,30.578317120361326L17.7723,24.17751712036133C17.3212,22.799777120361327,15.3722,22.799777120361327,14.9212,24.17751712036133L12.8257,30.578317120361326C12.6239,31.19471712036133,12.0488,31.61161712036133,11.4002,31.61161712036133L4.64367,31.611917120361326ZM10.3831,36.63491712036133L6.19164,33.61181712036133L11.4003,33.61161712036133Q13.9371,33.61151712036133,14.7264,31.20061712036133L16.3467,26.25127712036133L17.967,31.20061712036133Q18.7563,33.61151712036133,21.2931,33.61161712036133L26.5018,33.61181712036133L22.3103,36.63491712036133Q20.2357,38.13121712036133,21.0314,40.56231712036133L22.6387,45.473217120361326L18.3939,42.41221712036133Q16.3467,40.935917120361324,14.2995,42.41221712036133L10.0547,45.473217120361326L11.6621,40.56231712036133Q12.4577,38.13121712036133,10.3831,36.63491712036133Z" fill-rule="evenodd" fill="#0072FF" fill-opacity="1"/></g><g><path d="M33.5831375213623,38.19880257629394L25.583136521362306,29.185372576293947L27.078938521362304,27.857752576293944L35.078937521362306,36.87118257629395L33.5831375213623,38.19880257629394Z" fill-rule="evenodd" fill="#0072FF" fill-opacity="1"/></g><g><path d="M22.331037521362305,13.505065119934082L22.331037521362305,9.500615119934082L24.331037521362305,9.500615119934082L24.331037521362305,13.505065119934082L22.331037521362305,13.505065119934082Z" fill-rule="evenodd" fill="#0072FF" fill-opacity="1"/></g><g transform="matrix(0,-1,1,0,-10.182658195495605,28.844731330871582)"><path d="M8.331036567687988,23.513694763183594L8.331036567687988,19.513694763183594L10.331036567687988,19.513694763183594L10.331036567687988,23.513694763183594L8.331036567687988,23.513694763183594Z" fill-rule="evenodd" fill="#0072FF" fill-opacity="1"/></g><g transform="matrix(0.7067135572433472,0.7074998617172241,-0.7067134976387024,0.7074998021125793,27.77681296836306,-4.041092625166925)"><path d="M19.176581021362306,39.36711054504394L17.761732021362306,31.706602545043946L19.728468021362303,31.343358545043944L21.143320021362303,39.003870545043945L19.176581021362306,39.36711054504394Z" fill-rule="evenodd" fill="#0072FF" fill-opacity="1"/></g><g transform="matrix(-0.5306674838066101,-0.8475801348686218,-0.8469895124435425,0.5316095352172852,74.72183162830697,41.36517117067547)"><path d="M39.29809293823242,24.958073045043946L38.17802393823242,17.589319045043947L40.15531193823242,17.288767045043944L41.275377938232424,24.657523045043945L39.29809293823242,24.958073045043946Z" fill-rule="evenodd" fill="#0072FF" fill-opacity="1"/></g></g></g></svg>