<svg xmlns="http://www.w3.org/2000/svg" xmlns:xlink="http://www.w3.org/1999/xlink" fill="none" version="1.1" width="154" height="27" viewBox="0 0 154 27"><defs><clipPath id="master_svg0_2107_39848"><rect x="0.476715087890625" y="0" width="153.50161743164062" height="26.99527359008789" rx="0"/></clipPath><linearGradient x1="-0.000014075645594857633" y1="0.4998316764831543" x2="1" y2="0.4998316764831543" id="master_svg1_806_79914"><stop offset="0%" stop-color="#0069FF" stop-opacity="1"/><stop offset="100%" stop-color="#3BBEFF" stop-opacity="1"/></linearGradient></defs><g><g clip-path="url(#master_svg0_2107_39848)"><g><path d="M13.930803369140625,7.1767728125C17.061103369140625,7.1777528125,19.716003369140626,9.4842128125,20.164403369140626,12.5922828125L27.354503369140627,12.5922828125C26.862403369140626,5.2896428125,20.658503369140625,-0.2888551875,13.369203369140624,0.0168697125C6.079953369140625,0.3225948125,0.36180036914062497,6.4011228125,0.478970959140625,13.7194828125C0.596142369140625,21.0378828125,6.505943369140625,26.9290828125,13.801203369140625,26.9997828125L20.151403369140624,26.9997828125L20.151403369140624,19.8165828125L13.909203369140625,19.8165828125C10.475473369140625,19.7471828125,7.729723369140625,16.9315828125,7.735613369140625,13.4860828125C7.741493369140625,10.0404828125,10.496803369140626,7.2343928125,13.930803369140625,7.1767728125Z" fill="url(#master_svg1_806_79914)" fill-opacity="1" style="mix-blend-mode:passthrough"/></g><g><path d="M27.341400146484375,19.81866455078125L34.548800146484375,19.81866455078125L34.548800146484375,22.41811455078125C34.548800146484375,24.95081455078125,32.502280146484374,27.00397455078125,29.977780146484374,27.00397455078125L27.341400146484375,27.00397455078125L27.341400146484375,19.81866455078125Z" fill="#0096FF" fill-opacity="1" style="mix-blend-mode:passthrough"/></g><g><path d="M53.08365078125,4.21985360375Q54.51515078125,4.21985360375,54.744050781249996,5.6040585937500005L57.65675078125,23.46440859375L54.46335078125,23.46440859375L53.619050781249996,17.90380859375L45.37095078125,17.90380859375L43.14698078125,23.46440859375L39.85205078125,23.46440859375L47.20843078125,5.39826859375C47.476770781249996,4.65024559375,48.20539078125,4.16999209375,48.99625078125,4.21985360375L53.08365078125,4.21985360375ZM49.73901078125,7.03591859375L46.50021078125,15.08340859375L53.19375078125,15.08340859375L51.96735078125,7.03591859375L49.73901078125,7.03591859375Z" fill="#272E38" fill-opacity="1" style="mix-blend-mode:passthrough"/></g><g><path d="M59.7253934375,4.2197265625L62.7482634375,4.2197265625L60.3969034375,23.4643265625L57.3740234375,23.4643265625L59.7253934375,4.2197265625Z" fill="#272E38" fill-opacity="1" style="mix-blend-mode:passthrough"/></g><g><path d="M75.99451806640624,2.579833984375L75.17841806640625,7.934693984375L84.29671806640624,7.934693984375L83.96411806640626,10.456163984375L75.30581806640625,10.456163984375C76.11351806640624,13.032933984375,77.31071806640625,15.470133984375,78.85551806640625,17.682633984375002Q80.72101806640624,20.347033984375,84.14341806640626,23.397133984375L81.36011806640624,24.523533984375C79.78311806640625,23.075933984375,78.37691806640625,21.451433984375,77.16911806640626,19.682033984375C75.74051806640625,17.695233984375,74.58911806640626,15.521933984375,73.74681806640625,13.222433984375C72.74241806640624,15.542233984375,71.39023806640625,17.694333984375,69.73720806640625,19.604033984375C68.17432806640625,21.489133984375,66.34050806640624,23.130233984375,64.29602806640625,24.473733984375L61.79351806640625,23.269233984375C64.28888806640624,21.627333984375,66.51246806640626,19.603433984375,68.38338806640625,17.271033984375002Q71.06511806640626,13.857133984375,71.95901806640624,10.456163984375L63.50576806640625,10.456163984375L63.76055806640625,7.943363984375L72.41891806640625,7.943363984375L73.28261806640626,2.588497354375L75.99451806640624,2.579833984375Z" fill="#272E38" fill-opacity="1" style="mix-blend-mode:passthrough"/></g><g><path d="M87.18366361328125,4.8869684375L89.55877361328125,4.8869684375L88.07757361328125,17.546248437499997L85.70245361328125,17.546248437499997L87.18366361328125,4.8869684375ZM92.64858361328125,12.7286484375C92.35830361328125,14.9609484375,91.84545361328125,17.158348437500003,91.11771361328125,19.2879484375C90.48997361328125,21.1458484375,89.60387361328125,22.9056484375,88.48565361328124,24.5149484375L86.16235661328125,23.8239484375Q89.50911361328124,19.0821484375,90.32528361328124,12.6766484375L91.47398361328125,2.4521484375L93.84909361328125,2.4521484375L92.64858361328125,12.7286484375ZM107.81475361328125,3.4767684375L107.59885361328125,5.8097684375L102.48375361328125,5.8097684375L102.12525361328125,8.6778284375L104.79195361328125,8.6778284375Q105.89095361328125,8.6778284375,106.45235361328125,9.2302084375Q107.01375361328125,9.782598437499999,106.91005361328125,10.8570384375L105.87155361328125,19.2359484375C105.82425361328126,19.7442484375,105.59395361328126,20.2178484375,105.22375361328125,20.5681484375C104.84975361328125,20.8843484375,104.37155361328125,21.0489484375,103.88285361328124,21.0295484375C103.44875361328126,21.0245484375,103.01565361328124,20.9861484375,102.58735361328125,20.9147484375C102.16695361328125,20.8589484375,101.75505361328125,20.7512484375,101.36095361328125,20.5941484375L101.54015361328125,18.3391484375C102.05305361328125,18.5192484375,102.58475361328125,18.6398484375,103.12505361328125,18.6987484375L103.22645361328125,18.6987484375C103.31395361328126,18.7036484375,103.40015361328125,18.6758484375,103.46835361328125,18.6207484375C103.54915361328125,18.5350484375,103.60635361328124,18.4298484375,103.63455361328124,18.3152484375L104.55435361328125,11.0368284375L101.84455361328125,11.0368284375L100.21005361328125,24.3871484375L97.75725361328125,24.3871484375L99.39395361328125,11.0368284375L96.94105361328126,11.0368284375L95.72325361328124,20.9277484375L93.31361361328125,20.9277484375L94.56594361328125,10.7465584375C94.60402361328124,10.173868437500001,94.84891361328125,9.6347584375,95.25473361328125,9.2302084375C95.67869361328125,8.8411684375,96.23975361328125,8.6376884375,96.81365361328125,8.664828437499999L99.67465361328125,8.664828437499999L100.04165361328126,5.8097684375L94.64368361328125,5.8097684375L94.89846361328125,3.4767684375L107.81475361328125,3.4767684375Z" fill="#272E38" fill-opacity="1" style="mix-blend-mode:passthrough"/></g><g><path d="M123.37843125,17.084902734375L123.14523125,19.160102734375002L108.89453125,19.160102734375002L109.17522425,17.084902734375L123.37843125,17.084902734375ZM128.07683125,3.374969404375Q129.27733125,3.374969404375,129.80423125,3.771385734375C130.15183125,4.035663734375,130.32673125,4.468902734375,130.32673125,5.071112734375C130.32023125,5.268232734375,130.30363125,5.464892734375,130.27703125,5.660322734375001L129.94453125,8.835982734375001L127.43983125,8.835982734375001L127.77023125,5.634322734375L112.82859125,5.634322734375L112.44641125,8.939952734375L109.89207925,8.939952734375L110.27426125,5.474022734375C110.37574125,4.722352734375,110.60677125,4.174298734375,110.96304125,3.860199734375C111.31932125,3.546099734375,111.88286125,3.372802734375,112.64938125,3.372802734375L128.07683125,3.374969404375ZM126.72303124999999,10.549452734375L116.01988125,10.549452734375L115.43259125,12.728652734375L125.82693125,12.728652734375Q127.00373125,12.728652734375,127.52623125,13.112072734375Q128.04873125,13.495502734375,128.05093125,14.470302734375C128.05343125,14.633202734375,128.04473125,14.796002734375,128.02503125,14.957702734375Q127.86953125,16.751302734375003,127.59323125,18.826502734374998C127.45503125,19.868502734375,127.27793125,20.953702734375,127.05553125,22.075802734375Q126.82453125,23.304102734375,126.14873125,23.808802734375C125.69743125,24.142402734375,125.04753124999999,24.274502734375,124.20543125,24.205202734375C122.29763125,24.020802734375,120.40373124999999,23.713302734375,118.53535125,23.284602734375L118.81604125,20.901802734375Q121.83893125,21.568902734375,123.92473125000001,21.824602734375C124.00033125,21.842702734375,124.07793125,21.851502734375,124.15573125,21.850602734375C124.27363125,21.864102734375,124.39103125,21.821602734375,124.47313125,21.735702734375C124.55383125,21.599002734375,124.60253125,21.445702734375,124.61563125,21.287302734375Q125.02373125,18.852502734375,125.45773125,14.879702734375L114.61640125,14.879702734375C113.95137125,14.879702734375,113.46771125,14.773502734375,113.16111125,14.559102734375C112.84376125,14.324402734375,112.66983125,13.941802734375,112.70120125,13.547502734375C112.69909125,13.253802734375,112.74206125,12.961552734375,112.82859125,12.680992734375L114.50844125,6.576622734375L117.09948125,6.576622734375L116.58775125,8.474222734375001L126.98433125,8.474222734375001L126.72303124999999,10.549452734375Z" fill="#0096FF" fill-opacity="1" style="mix-blend-mode:passthrough"/></g><g><path d="M140.85026875,2.553930171875L138.32184875,6.669721171875L136.22527875,24.536551171875L133.69685875,24.536551171875L135.27954875,11.415881171875L133.76810875,13.595051171875L130.91796875,13.595051171875C133.54695875,10.077821171875,135.93683875,6.3869211718750005,138.07138875,2.547429871875L140.85026875,2.553930171875ZM153.72336875,7.832981171875L147.02986875,7.832981171875L146.59806875,11.370391171875L152.85976875,11.370391171875L152.55316875,13.675251171875L146.34106875,13.675251171875L145.93086875,17.032851171875002L152.34366875,17.032851171875002L152.01116875,19.337751171875L145.67606875,19.337751171875L145.06286875,24.536551171875L142.47186875,24.536551171875L144.46476875,7.828641171875L143.78676875,7.828641171875Q143.19736875,9.033051171875,142.46966875,10.352271171875Q141.74206875,11.671491171875,141.51316875,12.109071171875L141.18066875,12.698251171875L138.37367875,12.698251171875Q140.03193875,9.955861171875,141.26056875,7.648851171875Q142.53656875000001,5.294181171875,143.76306875,2.449951171875L146.36706875,2.449951171875L145.67826875,3.966301171875L144.98946875000001,5.426321171875L153.97816875,5.426321171875L153.72336875,7.832981171875Z" fill="#0096FF" fill-opacity="1" style="mix-blend-mode:passthrough"/></g></g></g></svg>