<svg xmlns="http://www.w3.org/2000/svg" xmlns:xlink="http://www.w3.org/1999/xlink" fill="none" version="1.1" width="24" height="24" viewBox="0 0 24 24"><defs><clipPath id="master_svg0_1164_35754"><rect x="0" y="0" width="24" height="24" rx="0"/></clipPath></defs><g clip-path="url(#master_svg0_1164_35754)"><g><path d="M12.000375,1.546875C6.235885,1.546875,1.546875,6.235885,1.546875,12.000375C1.546875,17.764875,6.235885,22.453875,12.000375,22.453875C17.764875,22.453875,22.453875,17.764875,22.453875,12.000375C22.453875,6.235885,17.764875,1.546875,12.000375,1.546875ZM12.750375,17.250375C12.750375,17.665175,12.415175,18.000475,12.000375,18.000475C11.585575,18.000475,11.250365,17.665175,11.250365,17.250375L11.250365,10.500385C11.250365,10.085645,11.585575,9.750365,12.000375,9.750365C12.415175,9.750365,12.750375,10.085605,12.750375,10.500385L12.750375,17.250375ZM12.000375,8.250405C11.379385,8.250405,10.875375,7.745635,10.875375,7.125395C10.875375,6.503665,11.379385,6.000385,12.000375,6.000385C12.621375,6.000385,13.125375,6.503625,13.125375,7.125395C13.125375,7.745635,12.621375,8.250405,12.000375,8.250405Z" fill="#C2C2C2" fill-opacity="1" style="mix-blend-mode:passthrough"/></g></g></svg>