<svg xmlns="http://www.w3.org/2000/svg" xmlns:xlink="http://www.w3.org/1999/xlink" fill="none" version="1.1" width="30" height="30" viewBox="0 0 30 30"><defs><clipPath id="master_svg0_1449_48079"><rect x="0" y="0" width="30" height="30" rx="0"/></clipPath></defs><g clip-path="url(#master_svg0_1449_48079)"><g><path d="M6.76087,16.8913C6.3913,17.1739,6.02174,17.587,5.91304,18.1304C5.76087,18.8478,5.8913,19.7609,6.56522,20.4783C7.41304,21.3261,8.69565,21.5652,9.26087,21.6087C10.7609,21.7174,12.3696,20.9565,13.587,20.1304C14.0652,19.8043,14.8696,19.1304,15.6522,18.087C13.913,17.1957,11.7391,16.1957,9.43478,16.2826C8.21739,16.3261,7.36957,16.5652,6.76087,16.8913ZM28.8043,20.8696C29.5652,19.0652,30,17.087,30,15C30,6.73913,23.2609,0,15,0C6.73913,0,0,6.73913,0,15C0,23.2609,6.73913,30,15,30C20,30,24.413,27.5435,27.1522,23.7826C24.5652,22.5217,20.3261,20.3913,17.6957,19.1304C16.4565,20.5652,14.6087,21.9783,12.5217,22.587C11.2174,22.9783,10.0217,23.1304,8.80435,22.8696C7.56522,22.6087,6.67391,22.0435,6.15217,21.4783C5.8913,21.1739,5.58696,20.8261,5.34783,20.3696C5.36957,20.3913,5.36957,20.4348,5.36957,20.4565Q5.23913,20.2391,5.15217,19.8913C5.1087,19.7174,5.06522,19.5435,5.04348,19.3696C5.02174,19.2391,5.02174,19.1087,5.04348,19C5.02174,18.7826,5.04348,18.5435,5.08696,18.3043C5.21739,17.6957,5.45652,17.0217,6.13043,16.3913C7.56522,14.9783,9.5,14.913,10.5,14.913C11.9783,14.9348,14.5435,15.5652,16.7174,16.3478C17.3261,15.0652,17.7174,13.7174,17.9565,12.7826L8.93478,12.7826L8.93478,11.8043L13.5652,11.8043L13.5652,9.84783L7.97826,9.84783L7.97826,8.84783L13.5652,8.84783L13.5652,6.89131C13.5652,6.63044,13.6304,6.41304,14.0435,6.41304L16.2391,6.41304L16.2391,8.84783L22.3043,8.84783L22.3043,9.82609L16.2391,9.82609L16.2391,11.7826L21.087,11.7826Q20.587,14.5,19.087,17.1739C22.4565,18.3696,27.2174,20.2391,28.8043,20.8696Z" fill="#06B4FD" fill-opacity="1" style="mix-blend-mode:passthrough"/></g></g></svg>