<svg xmlns="http://www.w3.org/2000/svg" xmlns:xlink="http://www.w3.org/1999/xlink" fill="none" version="1.1" width="32" height="32" viewBox="0 0 32 32"><defs><clipPath id="master_svg0_2124_37985"><rect x="0" y="0" width="32" height="32" rx="0"/></clipPath></defs><g clip-path="url(#master_svg0_2124_37985)"><g><path d="M16,31C7.716,31,1,24.284,1,16C1,7.716,7.716,1,16,1C24.284,1,31,7.716,31,16C31,24.284,24.284,31,16,31ZM16,29C23.18,29,29,23.18,29,16C29,8.82,23.18,3,16,3C8.82,3,3,8.82,3,16C3,23.18,8.82,29,16,29Z" fill="#006DFF" fill-opacity="1" style="mix-blend-mode:passthrough"/></g><g><path d="M8,17C7.447715,17,7,16.55228,7,16C7,15.447715,7.447715,15,8,15L24,15C24.5523,15,25,15.447715,25,16C25,16.55228,24.5523,17,24,17L8,17Z" fill="#006DFF" fill-opacity="1" style="mix-blend-mode:passthrough"/></g><g><path d="M15,8C15,7.447715,15.447715,7,16,7C16.55228,7,17,7.447715,17,8L17,24C17,24.5523,16.55228,25,16,25C15.447715,25,15,24.5523,15,24L15,8Z" fill="#006DFF" fill-opacity="1" style="mix-blend-mode:passthrough"/></g></g></svg>