<svg xmlns="http://www.w3.org/2000/svg" xmlns:xlink="http://www.w3.org/1999/xlink" fill="none" version="1.1" width="26" height="26" viewBox="0 0 26 26"><defs><clipPath id="master_svg0_2124_37975"><rect x="0" y="0" width="26" height="26" rx="0"/></clipPath></defs><g clip-path="url(#master_svg0_2124_37975)"><g><path d="M22.45991171875,11.81581171875C21.99061171875,11.55171171875,21.39611171875,11.71801171875,21.13201171875,12.18731171875C20.86791171875,12.65661171875,21.03421171875,13.25121171875,21.50341171875,13.51531171875L24.47261171875,15.18641171875C25.09181171875,15.53481171875,25.86361171875,15.12531171875,25.92281171875,14.41711171875C25.97381171875,13.80291171875,25.99951171875,13.33331171875,25.99951171875,12.99951171875C25.99951171875,5.81993171875,20.17911171875,-0.00048828125,12.99951171875,-0.00048828125C5.81993171875,-0.00048828125,-0.00048828125,5.81993171875,-0.00048828125,12.99951171875C-0.00048828125,20.17911171875,5.81993171875,25.99951171875,12.99951171875,25.99951171875C17.39021171875,25.99951171875,21.41051171875,23.80481171875,23.80831171875,20.22461171875C24.11131171875,19.77711171875,23.99251171875,19.16861171875,23.54351171875,18.86791171875C23.09461171875,18.56721171875,22.48671171875,18.68901171875,22.18821171875,19.13941171875C20.14881171875,22.18461171875,16.73311171875,24.04951171875,12.99951171875,24.04951171875C6.89666171875,24.04951171875,1.94951171875,19.10231171875,1.94951171875,12.99951171875C1.94951171875,6.89666171875,6.89666171875,1.94951171875,12.99951171875,1.94951171875C19.00481171875,1.94951171875,23.89121171875,6.74001171875,24.04561171875,12.70831171875L22.45991171875,11.81581171875Z" fill="#006DFF" fill-opacity="1" style="mix-blend-mode:passthrough"/></g></g></svg>