<?xml version="1.0" standalone="no"?><!DOCTYPE svg PUBLIC "-//W3C//DTD SVG 1.1//EN" "http://www.w3.org/Graphics/SVG/1.1/DTD/svg11.dtd"><svg t="1733303847734" class="icon" viewBox="0 0 1024 1024" version="1.1" xmlns="http://www.w3.org/2000/svg" p-id="70152" width="14" height="14" xmlns:xlink="http://www.w3.org/1999/xlink"><path d="M407.429015 28.187523c-16.079174 51.234095-60.077641 143.32391-179.575138 265.452544-206.105775 211.002614-233.440371 550.784795 83.319356 717.935117 25.94594 13.667298 47.652825 5.262275 63.95126-11.693945 53.93832-55.911673 77.399296-137.91546 70.38293-246.011361-1.973353-29.746472 11.401596-37.49371 37.859146-17.175482 75.133595 57.738852 124.175075 146.685919 124.175075 242.357004 0 32.523784 13.155688 49.699265 43.633031 43.852293 202.012894-38.955453 448.17043-326.480318 182.86406-747.462327-15.859912-21.414536-39.320889-21.414536-38.882366 8.039587a423.174623 423.174623 0 0 1-12.424817 107.218855c-6.066234 24.41111-29.234862 24.118761-34.643311 0-33.035394-146.174309-124.979034-270.568645-275.757833-373.109923-40.709545-27.626944-55.47315-19.148834-64.901393 10.670725z" fill="#ea3333" p-id="70153"></path></svg>