<svg xmlns="http://www.w3.org/2000/svg" xmlns:xlink="http://www.w3.org/1999/xlink" fill="none" version="1.1" width="24" height="24" viewBox="0 0 24 24"><defs><clipPath id="master_svg0_2124_37971"><rect x="0" y="0" width="24" height="24" rx="0"/></clipPath></defs><g clip-path="url(#master_svg0_2124_37971)"><g><path d="M9.54865953125,0.6607456875C9.171799531249999,1.8615446875,8.14058953125,4.0199046875,5.339869531250001,6.8822946875C0.5092595312499999,11.8276546875,-0.13139046875000004,19.7913546875,7.29265953125,23.7088546875C7.90076953125,24.0292546875,8.40952953125,23.8322546875,8.79151953125,23.4348546875C10.05569953125,22.1243546875,10.60556953125,20.2024546875,10.44111953125,17.6689546875C10.39486953125,16.9717546875,10.70834953125,16.7901546875,11.32843953125,17.2663546875C13.08941953125,18.6196546875,14.23881953125,20.7043546875,14.23881953125,22.9466546875C14.23881953125,23.7088546875,14.54711953125,24.1114546875,15.26141953125,23.9744546875C19.99611953125,23.0613546875,25.76541953125,16.3225546875,19.54731953125,6.4557546875C19.17561953125,5.9538546875,18.62571953125,5.9538546875,18.63601953125,6.6441846875C18.64661953125,7.4908346875,18.54871953125,8.3353446875,18.34481953125,9.1571246875C18.20261953125,9.7292646875,17.65961953125,9.7224146875,17.53281953125,9.1571246875C16.758619531249998,5.7311646875,14.60361953125,2.8156746875,11.06977953125,0.4123646875C10.11564953125,-0.2351423125,9.76962953125,-0.0364362125,9.54865953125,0.6607456875L9.54865953125,0.6607456875Z" fill="#EA3333" fill-opacity="1" style="mix-blend-mode:passthrough"/></g></g></svg>