<svg xmlns="http://www.w3.org/2000/svg" xmlns:xlink="http://www.w3.org/1999/xlink" fill="none" version="1.1" width="14" height="14" viewBox="0 0 14 14"><defs><clipPath id="master_svg0_35_19537"><rect x="0" y="0" width="14" height="14" rx="0"/></clipPath></defs><g clip-path="url(#master_svg0_35_19537)"><g><path d="M13.9979,7.23286C13.9799,6.25823,13.775,5.2861,13.3972,4.39744C13.0203,3.50828,12.4735,2.70259,11.8023,2.03684C11.1315,1.37059,10.3358,0.843794,9.47467,0.496426C8.61399,0.147559,7.68835,-0.0188778,6.77419,0.00111457C5.86004,0.0201073,4.94939,0.225529,4.11721,0.604385C3.28402,0.981741,2.52931,1.52953,1.90555,2.20178C1.28178,2.87352,0.788972,3.67022,0.464096,4.53189C0.13772,5.39306,-0.0177208,6.31821,0.00227164,7.23286C0.0202648,8.14801,0.213191,9.05767,0.568056,9.88985C0.922421,10.722,1.43573,11.4762,2.06549,12.099C2.69475,12.7228,3.44046,13.2146,4.24666,13.5385C5.05235,13.8638,5.91802,14.0183,6.77419,13.9983C7.63087,13.9793,8.48054,13.7859,9.25825,13.431C10.0365,13.0766,10.7417,12.5638,11.3235,11.9341C11.9057,11.3053,12.3651,10.5601,12.6674,9.7554C12.8514,9.26759,12.9758,8.75828,13.0418,8.24198C13.0593,8.24348,13.0773,8.24398,13.0948,8.24398C13.5936,8.24398,13.9979,7.82614,13.9979,7.31083C13.9979,7.28484,13.9964,7.25885,13.9944,7.23286L13.9979,7.23286ZM12.563,9.71092C12.2321,10.4866,11.7523,11.1894,11.164,11.7691C10.5757,12.3499,9.88001,12.8072,9.1288,13.1076C8.37758,13.409,7.57289,13.5515,6.77419,13.5315C5.9755,13.513,5.1858,13.3315,4.46307,12.9997C3.73985,12.6693,3.0846,12.191,2.5443,11.6042C2.00351,11.0184,1.57717,10.3247,1.29828,9.57697C1.01788,8.82925,0.885935,8.02806,0.904928,7.23286C0.923421,6.43766,1.09286,5.65246,1.40224,4.93374C1.71062,4.21501,2.15695,3.56376,2.70374,3.02646C3.25004,2.48917,3.89629,2.06633,4.59252,1.78943C5.28876,1.51154,6.03348,1.38109,6.77419,1.40108C7.51491,1.42007,8.24463,1.58951,8.91238,1.89739C9.58062,2.20428,10.1859,2.64811,10.6847,3.1914C11.1845,3.73469,11.5769,4.37695,11.8333,5.06769C12.0907,5.75892,12.2111,6.49764,12.1921,7.23286L12.1951,7.23286C12.1931,7.25885,12.1921,7.28434,12.1921,7.31083C12.1921,7.79215,12.5445,8.188,12.9973,8.23848C12.9094,8.74629,12.7639,9.2416,12.563,9.71092Z" fill="#2986FF" fill-opacity="1" style="mix-blend-mode:passthrough"/></g></g></svg>