<svg xmlns="http://www.w3.org/2000/svg" xmlns:xlink="http://www.w3.org/1999/xlink" fill="none" version="1.1" width="24" height="24" viewBox="0 0 24 24"><defs><clipPath id="master_svg0_2124_37949"><rect x="0" y="0" width="24" height="24" rx="0"/></clipPath></defs><g clip-path="url(#master_svg0_2124_37949)"><g><g><g><path d="M23.9964,12.3992C23.9655,10.7284,23.6143,9.06189,22.9666,7.53847C22.3205,6.01419,21.3831,4.63301,20.2325,3.49173C19.0826,2.34958,17.7185,1.4465,16.2423,0.851016C14.7668,0.252958,13.18,-0.0323619,11.6129,0.00191069C10.0458,0.0344697,8.48467,0.386621,7.05807,1.03609C5.62975,1.68298,4.33596,2.62205,3.26666,3.77448C2.19734,4.92603,1.35252,6.29181,0.795593,7.76895C0.236091,9.24525,-0.0303785,10.8312,0.00389424,12.3992C0.0347397,13.968,0.36547,15.5274,0.97381,16.954C1.58129,18.3806,2.46125,19.6735,3.54084,20.7411C4.61957,21.8105,5.89793,22.6536,7.27999,23.2089C8.66117,23.7665,10.1452,24.0314,11.6129,23.9971C13.0815,23.9645,14.5381,23.633,15.8713,23.0246C17.2054,22.417,18.4143,21.5379,19.4117,20.4585C20.4098,19.3805,21.1973,18.103,21.7155,16.7235C22.031,15.8873,22.2442,15.0142,22.3574,14.1291C22.3874,14.1317,22.4182,14.1325,22.4482,14.1325C23.3033,14.1325,23.9964,13.4162,23.9964,12.5329C23.9964,12.4883,23.9938,12.4437,23.9904,12.3992L23.9964,12.3992ZM21.5366,16.6473C20.9693,17.977,20.1468,19.1818,19.1383,20.1756C18.1298,21.1713,16.9372,21.9552,15.6494,22.4702C14.3616,22.9869,12.9821,23.2311,11.6129,23.1969C10.2437,23.1651,8.88994,22.854,7.65098,22.2852C6.41117,21.7188,5.28789,20.8989,4.36166,19.8929C3.43459,18.8887,2.70372,17.6995,2.22562,16.4177C1.74494,15.1359,1.51875,13.7624,1.55131,12.3992C1.58301,11.036,1.87347,9.68993,2.40384,8.45784C2.93249,7.22573,3.69763,6.1093,4.63498,5.18822C5.5715,4.26715,6.67935,3.54228,7.87289,3.06759C9.06645,2.59121,10.3431,2.36758,11.6129,2.40185C12.8827,2.43441,14.1337,2.72487,15.2784,3.25267C16.4239,3.77877,17.4615,4.53962,18.3166,5.47097C19.1734,6.40233,19.8461,7.50334,20.2857,8.68747C20.7269,9.87243,20.9333,11.1388,20.9007,12.3992L20.9059,12.3992C20.9025,12.4437,20.9007,12.4874,20.9007,12.5329C20.9007,13.358,21.5049,14.0366,22.2811,14.1231C22.1304,14.9936,21.881,15.8427,21.5366,16.6473Z" fill="#2986FF" fill-opacity="1" style="mix-blend-mode:passthrough"/></g></g></g></g></svg>