<svg xmlns="http://www.w3.org/2000/svg" xmlns:xlink="http://www.w3.org/1999/xlink" fill="none" version="1.1" width="24" height="24" viewBox="0 0 24 24"><defs><clipPath id="master_svg0_2124_37955"><rect x="0" y="0" width="24" height="24" rx="0"/></clipPath></defs><g clip-path="url(#master_svg0_2124_37955)"><g><g><g><path d="M11.9877,0C5.36709,0,0,5.37233,0,11.9994C0,18.6266,5.36709,23.9988,11.9877,23.9988C18.6084,23.9988,23.9753,18.6266,23.9753,11.9994C23.9753,5.37233,18.6082,0,11.9877,0ZM18.8635,8.88689L11.1105,16.6476C10.7528,17.0057,10.2078,17.0616,9.79174,16.8156C9.71469,16.77,9.64203,16.714,9.57586,16.6478L5.11188,12.1795C4.68819,11.7554,4.68819,11.0677,5.11188,10.6435C5.53558,10.2194,6.22262,10.2194,6.64632,10.6435L10.3431,14.3439L17.3292,7.35103C17.753,6.92691,18.4399,6.92691,18.8637,7.35103C19.2873,7.77513,19.2873,8.46279,18.8635,8.88689Z" fill="#B2B6BA" fill-opacity="1" style="mix-blend-mode:passthrough"/></g></g></g></g></svg>