<svg xmlns="http://www.w3.org/2000/svg" xmlns:xlink="http://www.w3.org/1999/xlink" fill="none" version="1.1" width="14" height="14" viewBox="0 0 14 14"><defs><clipPath id="master_svg0_35_19541"><rect x="0" y="0" width="14" height="14" rx="0"/></clipPath></defs><g clip-path="url(#master_svg0_35_19541)"><g><path d="M6.99282,0C3.1308,0,0,3.13386,0,6.99965C0,10.8655,3.1308,13.9993,6.99282,13.9993C10.8549,13.9993,13.9856,10.8655,13.9856,6.99965C13.9856,3.13386,10.8548,0,6.99282,0ZM11.0037,5.18402L6.48111,9.71109C6.27248,9.91999,5.95455,9.95258,5.71185,9.80909C5.6669,9.78249,5.62452,9.74984,5.58592,9.71123L2.98193,7.1047C2.73478,6.85731,2.73478,6.45614,2.98193,6.20869C3.22909,5.96129,3.62986,5.96129,3.87702,6.20869L6.03349,8.36727L10.1087,4.2881C10.3559,4.0407,10.7566,4.0407,11.0038,4.2881C11.2509,4.53549,11.2509,4.93663,11.0037,5.18402Z" fill="#B2B6BA" fill-opacity="1" style="mix-blend-mode:passthrough"/></g></g></svg>