<svg xmlns="http://www.w3.org/2000/svg" xmlns:xlink="http://www.w3.org/1999/xlink" fill="none" version="1.1" width="16" height="16" viewBox="0 0 16 16"><defs><clipPath id="master_svg0_373_05813"><rect x="0" y="0" width="16" height="16" rx="0"/></clipPath></defs><g clip-path="url(#master_svg0_373_05813)"><g><path d="M8,13.1176C10.8264,13.1176,13.1176,10.8264,13.1176,8C13.1176,5.1736,10.8264,2.882352,8,2.882352C5.1736,2.882352,2.882354,5.1736,2.882353,8C2.882354,10.8264,5.1736,13.1176,8,13.1176ZM8,14C4.68629,14,2,11.31371,2,8C2,4.68629,4.68629,2,8,2C11.31371,2,14,4.68629,14,8C14,11.31371,11.31371,14,8,14Z" fill="#006CFF" fill-opacity="1" style="mix-blend-mode:passthrough"/></g><g><path d="M8.7039950390625,7.9999850390625L10.6159950390625,9.9119850390625C10.8106550390625,10.1063450390625,10.8107750390625,10.4217550390625,10.616265039062501,10.616265039062501C10.4217550390625,10.8107750390625,10.1063550390625,10.8106450390625,9.9119950390625,10.615985039062501L7.9999850390625,8.7039950390625L6.0879900390625,10.6159950390625C5.8936300390625,10.8106550390625,5.5782290390625,10.8107750390625,5.3837190390625,10.616265039062501C5.1892085390625,10.4217550390625,5.1893301390625,10.1063550390625,5.3839900390625,9.9119950390625L7.2959850390625,7.9999850390625L5.3839900390625,6.0879900390625C5.1893296390625,5.8936300390625,5.1892080390625,5.5782280390625,5.3837180390625,5.3837180390625C5.5782280390625,5.1892080390625,5.8936300390625,5.1893296390625,6.0879900390625,5.3839900390625L7.9999850390625,7.2959850390625L9.9119850390625,5.3839900390625C10.1063450390625,5.1893301390625,10.4217550390625,5.1892085390625,10.616265039062501,5.3837180390625C10.8107750390625,5.5782290390625,10.8106450390625,5.8936300390625,10.615985039062501,6.0879900390625L8.7039950390625,7.9999850390625Z" fill="#006CFF" fill-opacity="1" style="mix-blend-mode:passthrough"/></g></g></svg>