<svg xmlns="http://www.w3.org/2000/svg" xmlns:xlink="http://www.w3.org/1999/xlink" fill="none" version="1.1" width="16" height="16" viewBox="0 0 16 16"><defs><clipPath id="master_svg0_366_05811"><rect x="0" y="0" width="16" height="16" rx="0"/></clipPath></defs><g clip-path="url(#master_svg0_366_05811)"><rect x="0" y="0" width="16" height="16" rx="0" fill="#FFFFFF" fill-opacity="1"/><g><g style="opacity:0;"><rect x="0" y="0" width="16" height="16" rx="0" fill="#D8D8D8" fill-opacity="1"/></g><g><path d="M14.08,13.3979L11.95236,11.27025L11.95144,11.26937C12.316,10.83774,12.6133,10.35349,12.8332,9.83301C13.1273,9.13759,13.2764,8.39916,13.2764,7.63822C13.2764,6.87727,13.1273,6.13884,12.8332,5.44342C12.5492,4.77197,12.1427,4.16905,11.62505,3.6514100000000003C11.10739,3.13377,10.50447,2.727281,9.83301,2.443281C9.13759,2.149141,8.39916,2,7.63822,2C6.87727,2,6.13884,2.149141,5.44342,2.443281C4.77197,2.727281,4.16905,3.13375,3.6514100000000003,3.6514100000000003C3.13375,4.16905,2.727281,4.77198,2.443281,5.44342C2.149141,6.13884,2,6.87728,2,7.63822C2,8.39916,2.149141,9.13759,2.443281,9.83301C2.727281,10.50448,3.13375,11.1074,3.6514100000000003,11.62504C4.16905,12.1427,4.77198,12.5492,5.44342,12.8332C6.13884,13.1273,6.87728,13.2764,7.63822,13.2764C8.39916,13.2764,9.13759,13.1273,9.83301,12.8332C10.3452,12.6165,10.81734,12.3284,11.24234,11.97428C11.24333,11.97528,11.24425,11.97634,11.24525,11.97733L13.3729,14.105C13.4705,14.2026,13.5985,14.2514,13.7265,14.2514C13.8544,14.2514,13.9824,14.2026,14.08,14.105C14.2753,13.9097,14.2753,13.5932,14.08,13.3979ZM7.63822,12.3125C6.38967,12.3125,5.21586,11.82628,4.333,10.94344C3.45014,10.06058,2.9639379999999997,8.88677,2.9639379999999997,7.63822C2.9639379999999997,6.38967,3.45014,5.21586,4.333,4.333C5.21584,3.45014,6.38966,2.9639379999999997,7.63822,2.9639379999999997C8.88678,2.9639379999999997,10.06058,3.45014,10.94344,4.333C11.82628,5.21584,12.3125,6.38966,12.3125,7.63822C12.3125,8.88678,11.82628,10.06058,10.94344,10.94344C10.06058,11.82628,8.88677,12.3125,7.63822,12.3125Z" fill="#006CFF" fill-opacity="1" style="mix-blend-mode:passthrough"/></g></g></g></svg>