<svg xmlns="http://www.w3.org/2000/svg" xmlns:xlink="http://www.w3.org/1999/xlink" fill="none" version="1.1" width="16" height="16" viewBox="0 0 16 16"><defs><clipPath id="master_svg0_366_05825"><rect x="0" y="0" width="16" height="16" rx="0"/></clipPath><clipPath id="master_svg1_366_05848"><rect x="0" y="0" width="16" height="16" rx="0"/></clipPath></defs><g clip-path="url(#master_svg0_366_05825)"><rect x="0" y="0" width="16" height="16" rx="0" fill="#FFFFFF" fill-opacity="1"/><g clip-path="url(#master_svg1_366_05848)"><g><path d="M8,14C4.7,14,2,11.3,2,8C2,4.7,4.7,2,8,2C11.3,2,14,4.7,14,8C14,11.3,11.3,14,8,14ZM8,2.8571429999999998C5.17143,2.8571429999999998,2.8571429999999998,5.17143,2.8571429999999998,8C2.8571429999999998,10.82857,5.17143,13.1429,8,13.1429C10.82857,13.1429,13.1429,10.82857,13.1429,8C13.1429,5.17143,10.82857,2.8571429999999998,8,2.8571429999999998Z" fill="#999999" fill-opacity="1" style="mix-blend-mode:passthrough"/></g><g><path d="M8.1500244140625,12.20001220703125C7.9000244140625,12.20001220703125,7.6500244140625,12.00001220703125,7.6500244140625,11.70001220703125L7.6500244140625,6.70001220703125C7.6500244140625,6.45001220703125,7.8500244140625,6.20001220703125,8.1500244140625,6.20001220703125C8.4500244140625,6.20001220703125,8.6500244140625,6.40001220703125,8.6500244140625,6.70001220703125L8.6500244140625,11.70001220703125C8.6000244140625,12.00001220703125,8.4000244140625,12.20001220703125,8.1500244140625,12.20001220703125Z" fill="#999999" fill-opacity="1" style="mix-blend-mode:passthrough"/></g><g><path d="M8.6500244140625,4.95001220703125Q8.6500244140625,4.99925820703125,8.6404174140625,5.04755720703125Q8.630809414062501,5.09585720703125,8.6119644140625,5.14135420703125Q8.5931184140625,5.18685120703125,8.5657594140625,5.22779720703125Q8.5383994140625,5.26874320703125,8.5035774140625,5.30356520703125Q8.4687554140625,5.33838720703125,8.4278094140625,5.36574720703125Q8.3868634140625,5.39310620703125,8.3413664140625,5.41195220703125Q8.2958694140625,5.43079720703125,8.2475694140625,5.44040520703125Q8.1992704140625,5.45001220703125,8.1500244140625,5.45001220703125Q8.1007784140625,5.45001220703125,8.0524794140625,5.44040520703125Q8.0041794140625,5.43079720703125,7.9586824140625,5.41195220703125Q7.9131854140625,5.39310620703125,7.8722394140625,5.36574720703125Q7.8312934140625,5.33838720703125,7.7964714140625,5.30356520703125Q7.7616494140625,5.26874320703125,7.7342896140625,5.22779720703125Q7.7069301140625,5.18685120703125,7.6880846140625,5.14135420703125Q7.6692391140625,5.09585720703125,7.6596317740625,5.04755720703125Q7.6500244140625,4.99925820703125,7.6500244140625,4.95001220703125Q7.6500244140625,4.90076620703125,7.6596317740625,4.85246720703125Q7.6692391140625,4.80416720703125,7.6880846140625,4.75867020703125Q7.7069301140625,4.71317320703125,7.7342896140625,4.67222720703125Q7.7616494140625,4.63128120703125,7.7964714140625,4.59645920703125Q7.8312934140625,4.56163720703125,7.8722394140625,4.53427740703125Q7.9131854140625,4.50691790703125,7.9586824140625,4.48807240703125Q8.0041794140625,4.46922690703125,8.0524794140625,4.45961956703125Q8.1007784140625,4.45001220703125,8.1500244140625,4.45001220703125Q8.1992704140625,4.45001220703125,8.2475694140625,4.45961956703125Q8.2958694140625,4.46922690703125,8.3413664140625,4.48807240703125Q8.3868634140625,4.50691790703125,8.4278094140625,4.53427740703125Q8.4687554140625,4.56163720703125,8.5035774140625,4.59645920703125Q8.5383994140625,4.63128120703125,8.5657594140625,4.67222720703125Q8.5931184140625,4.71317320703125,8.6119644140625,4.75867020703125Q8.630809414062501,4.80416720703125,8.6404174140625,4.85246720703125Q8.6500244140625,4.90076620703125,8.6500244140625,4.95001220703125Z" fill="#999999" fill-opacity="1" style="mix-blend-mode:passthrough"/></g></g></g></svg>