<svg xmlns="http://www.w3.org/2000/svg" xmlns:xlink="http://www.w3.org/1999/xlink" fill="none" version="1.1" width="16" height="16" viewBox="0 0 16 16"><defs><clipPath id="master_svg0_5_003"><rect x="0" y="0" width="16" height="16" rx="0"/></clipPath></defs><g clip-path="url(#master_svg0_5_003)"><g><path d="M14.1882,9L1.8134299999999999,9C1.365043,9,1,8.54918,1,8C1,7.44877,1.3667099999999999,7,1.8134299999999999,7L14.1866,7C14.6346,7,14.9994,7.450133,15,7.9987449999999995C15,7.999748,15,8.00026,15,8.00126C15.0011,8.55191,14.6346,9,14.1882,9Z" fill="#FFFFFF" fill-opacity="1" style="mix-blend-mode:passthrough"/></g><g><path d="M7,14.1882L7,1.8134299999999999C7,1.365043,7.45082,1,8,1C8.55123,1,9,1.3667099999999999,9,1.8134299999999999L9,14.1866C9,14.6346,8.54987,14.9994,8.00125,15C8.00025,15,7.999744,15,7.99874,15C7.448087,15.0011,7,14.6346,7,14.1882Z" fill="#FFFFFF" fill-opacity="1" style="mix-blend-mode:passthrough"/></g></g></svg>